M48
; DRILL file {KiCad (5.1.5)-3} date 20/01/2020 14:23:34
; FORMAT={3:3/ absolute / metric / suppress leading zeros}
; #@! TF.CreationDate,2020-01-20T14:23:34+01:00
; #@! TF.GenerationSoftware,Kicad,Pcbnew,(5.1.5)-3
FMAT,2
METRIC,TZ
T1C0.200
T2C0.400
T3C1.000
%
G90
G05
T1
X114112Y-71085
X114112Y-71585
X114112Y-72085
X114612Y-71085
X114612Y-71585
X114612Y-72085
X115112Y-71085
X115112Y-71585
X115112Y-72085
T2
X105461Y-76606
X108001Y-68072
X108153Y-76606
X110185Y-76606
X110490Y-95758
X110998Y-70409
X112029Y-76063
X113487Y-81901
X114612Y-75583
X118821Y-72187
X119177Y-76708
X119888Y-71085
X119939Y-83769
X120685Y-71085
X123952Y-78638
X124155Y-79959
X125222Y-70307
X126035Y-70307
T3
X133096Y-87122
X110490Y-55880
X121158Y-94234
X94488Y-80772
X94488Y-83312
X94488Y-85852
X89916Y-69596
X89916Y-72136
X113785Y-46939
X119285Y-46939
X133096Y-81026
X121158Y-100330
X133096Y-93218
X94488Y-92964
X94488Y-95504
X94488Y-98044
X142748Y-69342
X142748Y-71882
X121158Y-88138
T0
M30
