G04 #@! TF.GenerationSoftware,KiCad,Pcbnew,(5.1.5)-3*
G04 #@! TF.CreationDate,2020-02-20T10:21:21+01:00*
G04 #@! TF.ProjectId,bq25570,62713235-3537-4302-9e6b-696361645f70,rev?*
G04 #@! TF.SameCoordinates,Original*
G04 #@! TF.FileFunction,Soldermask,Top*
G04 #@! TF.FilePolarity,Negative*
%FSLAX46Y46*%
G04 Gerber Fmt 4.6, Leading zero omitted, Abs format (unit mm)*
G04 Created by KiCad (PCBNEW (5.1.5)-3) date 2020-02-20 10:21:21*
%MOMM*%
%LPD*%
G04 APERTURE LIST*
%ADD10C,0.210000*%
%ADD11O,0.280000X0.850000*%
%ADD12O,0.850000X0.280000*%
%ADD13R,2.050000X2.050000*%
%ADD14R,1.700000X1.700000*%
%ADD15C,0.100000*%
%ADD16R,0.890000X0.775000*%
%ADD17R,0.870000X2.790000*%
%ADD18O,1.700000X1.700000*%
%ADD19C,1.700000*%
G04 APERTURE END LIST*
D10*
X115112420Y-72084820D03*
X115112420Y-71084820D03*
X114112420Y-71084820D03*
X114112420Y-72084820D03*
X114612420Y-71584820D03*
X114612420Y-72084820D03*
X115112420Y-71584820D03*
X114612420Y-71084820D03*
X114112420Y-71584820D03*
D11*
X113612420Y-69864820D03*
X114112420Y-69864820D03*
X114612420Y-69864820D03*
X115112420Y-69864820D03*
X115612420Y-69864820D03*
X115612420Y-73304820D03*
X115112420Y-73304820D03*
X113612420Y-73304820D03*
X114112420Y-73304820D03*
X114612420Y-73304820D03*
D12*
X112892420Y-72584820D03*
X112892420Y-71084820D03*
X112892420Y-72084820D03*
X116332420Y-72584820D03*
X116332420Y-70584820D03*
X116332420Y-72084820D03*
X112892420Y-71584820D03*
X112892420Y-70584820D03*
X116332420Y-71584820D03*
X116332420Y-71084820D03*
D13*
X114612420Y-71584820D03*
D14*
X121158000Y-94234000D03*
D15*
G36*
X104217505Y-89725204D02*
G01*
X104241773Y-89728804D01*
X104265572Y-89734765D01*
X104288671Y-89743030D01*
X104310850Y-89753520D01*
X104331893Y-89766132D01*
X104351599Y-89780747D01*
X104369777Y-89797223D01*
X104386253Y-89815401D01*
X104400868Y-89835107D01*
X104413480Y-89856150D01*
X104423970Y-89878329D01*
X104432235Y-89901428D01*
X104438196Y-89925227D01*
X104441796Y-89949495D01*
X104443000Y-89973999D01*
X104443000Y-90874001D01*
X104441796Y-90898505D01*
X104438196Y-90922773D01*
X104432235Y-90946572D01*
X104423970Y-90969671D01*
X104413480Y-90991850D01*
X104400868Y-91012893D01*
X104386253Y-91032599D01*
X104369777Y-91050777D01*
X104351599Y-91067253D01*
X104331893Y-91081868D01*
X104310850Y-91094480D01*
X104288671Y-91104970D01*
X104265572Y-91113235D01*
X104241773Y-91119196D01*
X104217505Y-91122796D01*
X104193001Y-91124000D01*
X103542999Y-91124000D01*
X103518495Y-91122796D01*
X103494227Y-91119196D01*
X103470428Y-91113235D01*
X103447329Y-91104970D01*
X103425150Y-91094480D01*
X103404107Y-91081868D01*
X103384401Y-91067253D01*
X103366223Y-91050777D01*
X103349747Y-91032599D01*
X103335132Y-91012893D01*
X103322520Y-90991850D01*
X103312030Y-90969671D01*
X103303765Y-90946572D01*
X103297804Y-90922773D01*
X103294204Y-90898505D01*
X103293000Y-90874001D01*
X103293000Y-89973999D01*
X103294204Y-89949495D01*
X103297804Y-89925227D01*
X103303765Y-89901428D01*
X103312030Y-89878329D01*
X103322520Y-89856150D01*
X103335132Y-89835107D01*
X103349747Y-89815401D01*
X103366223Y-89797223D01*
X103384401Y-89780747D01*
X103404107Y-89766132D01*
X103425150Y-89753520D01*
X103447329Y-89743030D01*
X103470428Y-89734765D01*
X103494227Y-89728804D01*
X103518495Y-89725204D01*
X103542999Y-89724000D01*
X104193001Y-89724000D01*
X104217505Y-89725204D01*
G37*
G36*
X106267505Y-89725204D02*
G01*
X106291773Y-89728804D01*
X106315572Y-89734765D01*
X106338671Y-89743030D01*
X106360850Y-89753520D01*
X106381893Y-89766132D01*
X106401599Y-89780747D01*
X106419777Y-89797223D01*
X106436253Y-89815401D01*
X106450868Y-89835107D01*
X106463480Y-89856150D01*
X106473970Y-89878329D01*
X106482235Y-89901428D01*
X106488196Y-89925227D01*
X106491796Y-89949495D01*
X106493000Y-89973999D01*
X106493000Y-90874001D01*
X106491796Y-90898505D01*
X106488196Y-90922773D01*
X106482235Y-90946572D01*
X106473970Y-90969671D01*
X106463480Y-90991850D01*
X106450868Y-91012893D01*
X106436253Y-91032599D01*
X106419777Y-91050777D01*
X106401599Y-91067253D01*
X106381893Y-91081868D01*
X106360850Y-91094480D01*
X106338671Y-91104970D01*
X106315572Y-91113235D01*
X106291773Y-91119196D01*
X106267505Y-91122796D01*
X106243001Y-91124000D01*
X105592999Y-91124000D01*
X105568495Y-91122796D01*
X105544227Y-91119196D01*
X105520428Y-91113235D01*
X105497329Y-91104970D01*
X105475150Y-91094480D01*
X105454107Y-91081868D01*
X105434401Y-91067253D01*
X105416223Y-91050777D01*
X105399747Y-91032599D01*
X105385132Y-91012893D01*
X105372520Y-90991850D01*
X105362030Y-90969671D01*
X105353765Y-90946572D01*
X105347804Y-90922773D01*
X105344204Y-90898505D01*
X105343000Y-90874001D01*
X105343000Y-89973999D01*
X105344204Y-89949495D01*
X105347804Y-89925227D01*
X105353765Y-89901428D01*
X105362030Y-89878329D01*
X105372520Y-89856150D01*
X105385132Y-89835107D01*
X105399747Y-89815401D01*
X105416223Y-89797223D01*
X105434401Y-89780747D01*
X105454107Y-89766132D01*
X105475150Y-89753520D01*
X105497329Y-89743030D01*
X105520428Y-89734765D01*
X105544227Y-89728804D01*
X105568495Y-89725204D01*
X105592999Y-89724000D01*
X106243001Y-89724000D01*
X106267505Y-89725204D01*
G37*
G36*
X104217505Y-93281204D02*
G01*
X104241773Y-93284804D01*
X104265572Y-93290765D01*
X104288671Y-93299030D01*
X104310850Y-93309520D01*
X104331893Y-93322132D01*
X104351599Y-93336747D01*
X104369777Y-93353223D01*
X104386253Y-93371401D01*
X104400868Y-93391107D01*
X104413480Y-93412150D01*
X104423970Y-93434329D01*
X104432235Y-93457428D01*
X104438196Y-93481227D01*
X104441796Y-93505495D01*
X104443000Y-93529999D01*
X104443000Y-94430001D01*
X104441796Y-94454505D01*
X104438196Y-94478773D01*
X104432235Y-94502572D01*
X104423970Y-94525671D01*
X104413480Y-94547850D01*
X104400868Y-94568893D01*
X104386253Y-94588599D01*
X104369777Y-94606777D01*
X104351599Y-94623253D01*
X104331893Y-94637868D01*
X104310850Y-94650480D01*
X104288671Y-94660970D01*
X104265572Y-94669235D01*
X104241773Y-94675196D01*
X104217505Y-94678796D01*
X104193001Y-94680000D01*
X103542999Y-94680000D01*
X103518495Y-94678796D01*
X103494227Y-94675196D01*
X103470428Y-94669235D01*
X103447329Y-94660970D01*
X103425150Y-94650480D01*
X103404107Y-94637868D01*
X103384401Y-94623253D01*
X103366223Y-94606777D01*
X103349747Y-94588599D01*
X103335132Y-94568893D01*
X103322520Y-94547850D01*
X103312030Y-94525671D01*
X103303765Y-94502572D01*
X103297804Y-94478773D01*
X103294204Y-94454505D01*
X103293000Y-94430001D01*
X103293000Y-93529999D01*
X103294204Y-93505495D01*
X103297804Y-93481227D01*
X103303765Y-93457428D01*
X103312030Y-93434329D01*
X103322520Y-93412150D01*
X103335132Y-93391107D01*
X103349747Y-93371401D01*
X103366223Y-93353223D01*
X103384401Y-93336747D01*
X103404107Y-93322132D01*
X103425150Y-93309520D01*
X103447329Y-93299030D01*
X103470428Y-93290765D01*
X103494227Y-93284804D01*
X103518495Y-93281204D01*
X103542999Y-93280000D01*
X104193001Y-93280000D01*
X104217505Y-93281204D01*
G37*
G36*
X106267505Y-93281204D02*
G01*
X106291773Y-93284804D01*
X106315572Y-93290765D01*
X106338671Y-93299030D01*
X106360850Y-93309520D01*
X106381893Y-93322132D01*
X106401599Y-93336747D01*
X106419777Y-93353223D01*
X106436253Y-93371401D01*
X106450868Y-93391107D01*
X106463480Y-93412150D01*
X106473970Y-93434329D01*
X106482235Y-93457428D01*
X106488196Y-93481227D01*
X106491796Y-93505495D01*
X106493000Y-93529999D01*
X106493000Y-94430001D01*
X106491796Y-94454505D01*
X106488196Y-94478773D01*
X106482235Y-94502572D01*
X106473970Y-94525671D01*
X106463480Y-94547850D01*
X106450868Y-94568893D01*
X106436253Y-94588599D01*
X106419777Y-94606777D01*
X106401599Y-94623253D01*
X106381893Y-94637868D01*
X106360850Y-94650480D01*
X106338671Y-94660970D01*
X106315572Y-94669235D01*
X106291773Y-94675196D01*
X106267505Y-94678796D01*
X106243001Y-94680000D01*
X105592999Y-94680000D01*
X105568495Y-94678796D01*
X105544227Y-94675196D01*
X105520428Y-94669235D01*
X105497329Y-94660970D01*
X105475150Y-94650480D01*
X105454107Y-94637868D01*
X105434401Y-94623253D01*
X105416223Y-94606777D01*
X105399747Y-94588599D01*
X105385132Y-94568893D01*
X105372520Y-94547850D01*
X105362030Y-94525671D01*
X105353765Y-94502572D01*
X105347804Y-94478773D01*
X105344204Y-94454505D01*
X105343000Y-94430001D01*
X105343000Y-93529999D01*
X105344204Y-93505495D01*
X105347804Y-93481227D01*
X105353765Y-93457428D01*
X105362030Y-93434329D01*
X105372520Y-93412150D01*
X105385132Y-93391107D01*
X105399747Y-93371401D01*
X105416223Y-93353223D01*
X105434401Y-93336747D01*
X105454107Y-93322132D01*
X105475150Y-93309520D01*
X105497329Y-93299030D01*
X105520428Y-93290765D01*
X105544227Y-93284804D01*
X105568495Y-93281204D01*
X105592999Y-93280000D01*
X106243001Y-93280000D01*
X106267505Y-93281204D01*
G37*
G36*
X104217505Y-96837204D02*
G01*
X104241773Y-96840804D01*
X104265572Y-96846765D01*
X104288671Y-96855030D01*
X104310850Y-96865520D01*
X104331893Y-96878132D01*
X104351599Y-96892747D01*
X104369777Y-96909223D01*
X104386253Y-96927401D01*
X104400868Y-96947107D01*
X104413480Y-96968150D01*
X104423970Y-96990329D01*
X104432235Y-97013428D01*
X104438196Y-97037227D01*
X104441796Y-97061495D01*
X104443000Y-97085999D01*
X104443000Y-97986001D01*
X104441796Y-98010505D01*
X104438196Y-98034773D01*
X104432235Y-98058572D01*
X104423970Y-98081671D01*
X104413480Y-98103850D01*
X104400868Y-98124893D01*
X104386253Y-98144599D01*
X104369777Y-98162777D01*
X104351599Y-98179253D01*
X104331893Y-98193868D01*
X104310850Y-98206480D01*
X104288671Y-98216970D01*
X104265572Y-98225235D01*
X104241773Y-98231196D01*
X104217505Y-98234796D01*
X104193001Y-98236000D01*
X103542999Y-98236000D01*
X103518495Y-98234796D01*
X103494227Y-98231196D01*
X103470428Y-98225235D01*
X103447329Y-98216970D01*
X103425150Y-98206480D01*
X103404107Y-98193868D01*
X103384401Y-98179253D01*
X103366223Y-98162777D01*
X103349747Y-98144599D01*
X103335132Y-98124893D01*
X103322520Y-98103850D01*
X103312030Y-98081671D01*
X103303765Y-98058572D01*
X103297804Y-98034773D01*
X103294204Y-98010505D01*
X103293000Y-97986001D01*
X103293000Y-97085999D01*
X103294204Y-97061495D01*
X103297804Y-97037227D01*
X103303765Y-97013428D01*
X103312030Y-96990329D01*
X103322520Y-96968150D01*
X103335132Y-96947107D01*
X103349747Y-96927401D01*
X103366223Y-96909223D01*
X103384401Y-96892747D01*
X103404107Y-96878132D01*
X103425150Y-96865520D01*
X103447329Y-96855030D01*
X103470428Y-96846765D01*
X103494227Y-96840804D01*
X103518495Y-96837204D01*
X103542999Y-96836000D01*
X104193001Y-96836000D01*
X104217505Y-96837204D01*
G37*
G36*
X106267505Y-96837204D02*
G01*
X106291773Y-96840804D01*
X106315572Y-96846765D01*
X106338671Y-96855030D01*
X106360850Y-96865520D01*
X106381893Y-96878132D01*
X106401599Y-96892747D01*
X106419777Y-96909223D01*
X106436253Y-96927401D01*
X106450868Y-96947107D01*
X106463480Y-96968150D01*
X106473970Y-96990329D01*
X106482235Y-97013428D01*
X106488196Y-97037227D01*
X106491796Y-97061495D01*
X106493000Y-97085999D01*
X106493000Y-97986001D01*
X106491796Y-98010505D01*
X106488196Y-98034773D01*
X106482235Y-98058572D01*
X106473970Y-98081671D01*
X106463480Y-98103850D01*
X106450868Y-98124893D01*
X106436253Y-98144599D01*
X106419777Y-98162777D01*
X106401599Y-98179253D01*
X106381893Y-98193868D01*
X106360850Y-98206480D01*
X106338671Y-98216970D01*
X106315572Y-98225235D01*
X106291773Y-98231196D01*
X106267505Y-98234796D01*
X106243001Y-98236000D01*
X105592999Y-98236000D01*
X105568495Y-98234796D01*
X105544227Y-98231196D01*
X105520428Y-98225235D01*
X105497329Y-98216970D01*
X105475150Y-98206480D01*
X105454107Y-98193868D01*
X105434401Y-98179253D01*
X105416223Y-98162777D01*
X105399747Y-98144599D01*
X105385132Y-98124893D01*
X105372520Y-98103850D01*
X105362030Y-98081671D01*
X105353765Y-98058572D01*
X105347804Y-98034773D01*
X105344204Y-98010505D01*
X105343000Y-97986001D01*
X105343000Y-97085999D01*
X105344204Y-97061495D01*
X105347804Y-97037227D01*
X105353765Y-97013428D01*
X105362030Y-96990329D01*
X105372520Y-96968150D01*
X105385132Y-96947107D01*
X105399747Y-96927401D01*
X105416223Y-96909223D01*
X105434401Y-96892747D01*
X105454107Y-96878132D01*
X105475150Y-96865520D01*
X105497329Y-96855030D01*
X105520428Y-96846765D01*
X105544227Y-96840804D01*
X105568495Y-96837204D01*
X105592999Y-96836000D01*
X106243001Y-96836000D01*
X106267505Y-96837204D01*
G37*
G36*
X123410505Y-70782204D02*
G01*
X123434773Y-70785804D01*
X123458572Y-70791765D01*
X123481671Y-70800030D01*
X123503850Y-70810520D01*
X123524893Y-70823132D01*
X123544599Y-70837747D01*
X123562777Y-70854223D01*
X123579253Y-70872401D01*
X123593868Y-70892107D01*
X123606480Y-70913150D01*
X123616970Y-70935329D01*
X123625235Y-70958428D01*
X123631196Y-70982227D01*
X123634796Y-71006495D01*
X123636000Y-71030999D01*
X123636000Y-71681001D01*
X123634796Y-71705505D01*
X123631196Y-71729773D01*
X123625235Y-71753572D01*
X123616970Y-71776671D01*
X123606480Y-71798850D01*
X123593868Y-71819893D01*
X123579253Y-71839599D01*
X123562777Y-71857777D01*
X123544599Y-71874253D01*
X123524893Y-71888868D01*
X123503850Y-71901480D01*
X123481671Y-71911970D01*
X123458572Y-71920235D01*
X123434773Y-71926196D01*
X123410505Y-71929796D01*
X123386001Y-71931000D01*
X122485999Y-71931000D01*
X122461495Y-71929796D01*
X122437227Y-71926196D01*
X122413428Y-71920235D01*
X122390329Y-71911970D01*
X122368150Y-71901480D01*
X122347107Y-71888868D01*
X122327401Y-71874253D01*
X122309223Y-71857777D01*
X122292747Y-71839599D01*
X122278132Y-71819893D01*
X122265520Y-71798850D01*
X122255030Y-71776671D01*
X122246765Y-71753572D01*
X122240804Y-71729773D01*
X122237204Y-71705505D01*
X122236000Y-71681001D01*
X122236000Y-71030999D01*
X122237204Y-71006495D01*
X122240804Y-70982227D01*
X122246765Y-70958428D01*
X122255030Y-70935329D01*
X122265520Y-70913150D01*
X122278132Y-70892107D01*
X122292747Y-70872401D01*
X122309223Y-70854223D01*
X122327401Y-70837747D01*
X122347107Y-70823132D01*
X122368150Y-70810520D01*
X122390329Y-70800030D01*
X122413428Y-70791765D01*
X122437227Y-70785804D01*
X122461495Y-70782204D01*
X122485999Y-70781000D01*
X123386001Y-70781000D01*
X123410505Y-70782204D01*
G37*
G36*
X123410505Y-72832204D02*
G01*
X123434773Y-72835804D01*
X123458572Y-72841765D01*
X123481671Y-72850030D01*
X123503850Y-72860520D01*
X123524893Y-72873132D01*
X123544599Y-72887747D01*
X123562777Y-72904223D01*
X123579253Y-72922401D01*
X123593868Y-72942107D01*
X123606480Y-72963150D01*
X123616970Y-72985329D01*
X123625235Y-73008428D01*
X123631196Y-73032227D01*
X123634796Y-73056495D01*
X123636000Y-73080999D01*
X123636000Y-73731001D01*
X123634796Y-73755505D01*
X123631196Y-73779773D01*
X123625235Y-73803572D01*
X123616970Y-73826671D01*
X123606480Y-73848850D01*
X123593868Y-73869893D01*
X123579253Y-73889599D01*
X123562777Y-73907777D01*
X123544599Y-73924253D01*
X123524893Y-73938868D01*
X123503850Y-73951480D01*
X123481671Y-73961970D01*
X123458572Y-73970235D01*
X123434773Y-73976196D01*
X123410505Y-73979796D01*
X123386001Y-73981000D01*
X122485999Y-73981000D01*
X122461495Y-73979796D01*
X122437227Y-73976196D01*
X122413428Y-73970235D01*
X122390329Y-73961970D01*
X122368150Y-73951480D01*
X122347107Y-73938868D01*
X122327401Y-73924253D01*
X122309223Y-73907777D01*
X122292747Y-73889599D01*
X122278132Y-73869893D01*
X122265520Y-73848850D01*
X122255030Y-73826671D01*
X122246765Y-73803572D01*
X122240804Y-73779773D01*
X122237204Y-73755505D01*
X122236000Y-73731001D01*
X122236000Y-73080999D01*
X122237204Y-73056495D01*
X122240804Y-73032227D01*
X122246765Y-73008428D01*
X122255030Y-72985329D01*
X122265520Y-72963150D01*
X122278132Y-72942107D01*
X122292747Y-72922401D01*
X122309223Y-72904223D01*
X122327401Y-72887747D01*
X122347107Y-72873132D01*
X122368150Y-72860520D01*
X122390329Y-72850030D01*
X122413428Y-72841765D01*
X122437227Y-72835804D01*
X122461495Y-72832204D01*
X122485999Y-72831000D01*
X123386001Y-72831000D01*
X123410505Y-72832204D01*
G37*
G36*
X124310505Y-76009204D02*
G01*
X124334773Y-76012804D01*
X124358572Y-76018765D01*
X124381671Y-76027030D01*
X124403850Y-76037520D01*
X124424893Y-76050132D01*
X124444599Y-76064747D01*
X124462777Y-76081223D01*
X124479253Y-76099401D01*
X124493868Y-76119107D01*
X124506480Y-76140150D01*
X124516970Y-76162329D01*
X124525235Y-76185428D01*
X124531196Y-76209227D01*
X124534796Y-76233495D01*
X124536000Y-76257999D01*
X124536000Y-77158001D01*
X124534796Y-77182505D01*
X124531196Y-77206773D01*
X124525235Y-77230572D01*
X124516970Y-77253671D01*
X124506480Y-77275850D01*
X124493868Y-77296893D01*
X124479253Y-77316599D01*
X124462777Y-77334777D01*
X124444599Y-77351253D01*
X124424893Y-77365868D01*
X124403850Y-77378480D01*
X124381671Y-77388970D01*
X124358572Y-77397235D01*
X124334773Y-77403196D01*
X124310505Y-77406796D01*
X124286001Y-77408000D01*
X123635999Y-77408000D01*
X123611495Y-77406796D01*
X123587227Y-77403196D01*
X123563428Y-77397235D01*
X123540329Y-77388970D01*
X123518150Y-77378480D01*
X123497107Y-77365868D01*
X123477401Y-77351253D01*
X123459223Y-77334777D01*
X123442747Y-77316599D01*
X123428132Y-77296893D01*
X123415520Y-77275850D01*
X123405030Y-77253671D01*
X123396765Y-77230572D01*
X123390804Y-77206773D01*
X123387204Y-77182505D01*
X123386000Y-77158001D01*
X123386000Y-76257999D01*
X123387204Y-76233495D01*
X123390804Y-76209227D01*
X123396765Y-76185428D01*
X123405030Y-76162329D01*
X123415520Y-76140150D01*
X123428132Y-76119107D01*
X123442747Y-76099401D01*
X123459223Y-76081223D01*
X123477401Y-76064747D01*
X123497107Y-76050132D01*
X123518150Y-76037520D01*
X123540329Y-76027030D01*
X123563428Y-76018765D01*
X123587227Y-76012804D01*
X123611495Y-76009204D01*
X123635999Y-76008000D01*
X124286001Y-76008000D01*
X124310505Y-76009204D01*
G37*
G36*
X122260505Y-76009204D02*
G01*
X122284773Y-76012804D01*
X122308572Y-76018765D01*
X122331671Y-76027030D01*
X122353850Y-76037520D01*
X122374893Y-76050132D01*
X122394599Y-76064747D01*
X122412777Y-76081223D01*
X122429253Y-76099401D01*
X122443868Y-76119107D01*
X122456480Y-76140150D01*
X122466970Y-76162329D01*
X122475235Y-76185428D01*
X122481196Y-76209227D01*
X122484796Y-76233495D01*
X122486000Y-76257999D01*
X122486000Y-77158001D01*
X122484796Y-77182505D01*
X122481196Y-77206773D01*
X122475235Y-77230572D01*
X122466970Y-77253671D01*
X122456480Y-77275850D01*
X122443868Y-77296893D01*
X122429253Y-77316599D01*
X122412777Y-77334777D01*
X122394599Y-77351253D01*
X122374893Y-77365868D01*
X122353850Y-77378480D01*
X122331671Y-77388970D01*
X122308572Y-77397235D01*
X122284773Y-77403196D01*
X122260505Y-77406796D01*
X122236001Y-77408000D01*
X121585999Y-77408000D01*
X121561495Y-77406796D01*
X121537227Y-77403196D01*
X121513428Y-77397235D01*
X121490329Y-77388970D01*
X121468150Y-77378480D01*
X121447107Y-77365868D01*
X121427401Y-77351253D01*
X121409223Y-77334777D01*
X121392747Y-77316599D01*
X121378132Y-77296893D01*
X121365520Y-77275850D01*
X121355030Y-77253671D01*
X121346765Y-77230572D01*
X121340804Y-77206773D01*
X121337204Y-77182505D01*
X121336000Y-77158001D01*
X121336000Y-76257999D01*
X121337204Y-76233495D01*
X121340804Y-76209227D01*
X121346765Y-76185428D01*
X121355030Y-76162329D01*
X121365520Y-76140150D01*
X121378132Y-76119107D01*
X121392747Y-76099401D01*
X121409223Y-76081223D01*
X121427401Y-76064747D01*
X121447107Y-76050132D01*
X121468150Y-76037520D01*
X121490329Y-76027030D01*
X121513428Y-76018765D01*
X121537227Y-76012804D01*
X121561495Y-76009204D01*
X121585999Y-76008000D01*
X122236001Y-76008000D01*
X122260505Y-76009204D01*
G37*
G36*
X122902505Y-81468204D02*
G01*
X122926773Y-81471804D01*
X122950572Y-81477765D01*
X122973671Y-81486030D01*
X122995850Y-81496520D01*
X123016893Y-81509132D01*
X123036599Y-81523747D01*
X123054777Y-81540223D01*
X123071253Y-81558401D01*
X123085868Y-81578107D01*
X123098480Y-81599150D01*
X123108970Y-81621329D01*
X123117235Y-81644428D01*
X123123196Y-81668227D01*
X123126796Y-81692495D01*
X123128000Y-81716999D01*
X123128000Y-82367001D01*
X123126796Y-82391505D01*
X123123196Y-82415773D01*
X123117235Y-82439572D01*
X123108970Y-82462671D01*
X123098480Y-82484850D01*
X123085868Y-82505893D01*
X123071253Y-82525599D01*
X123054777Y-82543777D01*
X123036599Y-82560253D01*
X123016893Y-82574868D01*
X122995850Y-82587480D01*
X122973671Y-82597970D01*
X122950572Y-82606235D01*
X122926773Y-82612196D01*
X122902505Y-82615796D01*
X122878001Y-82617000D01*
X121977999Y-82617000D01*
X121953495Y-82615796D01*
X121929227Y-82612196D01*
X121905428Y-82606235D01*
X121882329Y-82597970D01*
X121860150Y-82587480D01*
X121839107Y-82574868D01*
X121819401Y-82560253D01*
X121801223Y-82543777D01*
X121784747Y-82525599D01*
X121770132Y-82505893D01*
X121757520Y-82484850D01*
X121747030Y-82462671D01*
X121738765Y-82439572D01*
X121732804Y-82415773D01*
X121729204Y-82391505D01*
X121728000Y-82367001D01*
X121728000Y-81716999D01*
X121729204Y-81692495D01*
X121732804Y-81668227D01*
X121738765Y-81644428D01*
X121747030Y-81621329D01*
X121757520Y-81599150D01*
X121770132Y-81578107D01*
X121784747Y-81558401D01*
X121801223Y-81540223D01*
X121819401Y-81523747D01*
X121839107Y-81509132D01*
X121860150Y-81496520D01*
X121882329Y-81486030D01*
X121905428Y-81477765D01*
X121929227Y-81471804D01*
X121953495Y-81468204D01*
X121977999Y-81467000D01*
X122878001Y-81467000D01*
X122902505Y-81468204D01*
G37*
G36*
X122902505Y-79418204D02*
G01*
X122926773Y-79421804D01*
X122950572Y-79427765D01*
X122973671Y-79436030D01*
X122995850Y-79446520D01*
X123016893Y-79459132D01*
X123036599Y-79473747D01*
X123054777Y-79490223D01*
X123071253Y-79508401D01*
X123085868Y-79528107D01*
X123098480Y-79549150D01*
X123108970Y-79571329D01*
X123117235Y-79594428D01*
X123123196Y-79618227D01*
X123126796Y-79642495D01*
X123128000Y-79666999D01*
X123128000Y-80317001D01*
X123126796Y-80341505D01*
X123123196Y-80365773D01*
X123117235Y-80389572D01*
X123108970Y-80412671D01*
X123098480Y-80434850D01*
X123085868Y-80455893D01*
X123071253Y-80475599D01*
X123054777Y-80493777D01*
X123036599Y-80510253D01*
X123016893Y-80524868D01*
X122995850Y-80537480D01*
X122973671Y-80547970D01*
X122950572Y-80556235D01*
X122926773Y-80562196D01*
X122902505Y-80565796D01*
X122878001Y-80567000D01*
X121977999Y-80567000D01*
X121953495Y-80565796D01*
X121929227Y-80562196D01*
X121905428Y-80556235D01*
X121882329Y-80547970D01*
X121860150Y-80537480D01*
X121839107Y-80524868D01*
X121819401Y-80510253D01*
X121801223Y-80493777D01*
X121784747Y-80475599D01*
X121770132Y-80455893D01*
X121757520Y-80434850D01*
X121747030Y-80412671D01*
X121738765Y-80389572D01*
X121732804Y-80365773D01*
X121729204Y-80341505D01*
X121728000Y-80317001D01*
X121728000Y-79666999D01*
X121729204Y-79642495D01*
X121732804Y-79618227D01*
X121738765Y-79594428D01*
X121747030Y-79571329D01*
X121757520Y-79549150D01*
X121770132Y-79528107D01*
X121784747Y-79508401D01*
X121801223Y-79490223D01*
X121819401Y-79473747D01*
X121839107Y-79459132D01*
X121860150Y-79446520D01*
X121882329Y-79436030D01*
X121905428Y-79427765D01*
X121929227Y-79421804D01*
X121953495Y-79418204D01*
X121977999Y-79417000D01*
X122878001Y-79417000D01*
X122902505Y-79418204D01*
G37*
G36*
X119346505Y-79423504D02*
G01*
X119370773Y-79427104D01*
X119394572Y-79433065D01*
X119417671Y-79441330D01*
X119439850Y-79451820D01*
X119460893Y-79464432D01*
X119480599Y-79479047D01*
X119498777Y-79495523D01*
X119515253Y-79513701D01*
X119529868Y-79533407D01*
X119542480Y-79554450D01*
X119552970Y-79576629D01*
X119561235Y-79599728D01*
X119567196Y-79623527D01*
X119570796Y-79647795D01*
X119572000Y-79672299D01*
X119572000Y-80322301D01*
X119570796Y-80346805D01*
X119567196Y-80371073D01*
X119561235Y-80394872D01*
X119552970Y-80417971D01*
X119542480Y-80440150D01*
X119529868Y-80461193D01*
X119515253Y-80480899D01*
X119498777Y-80499077D01*
X119480599Y-80515553D01*
X119460893Y-80530168D01*
X119439850Y-80542780D01*
X119417671Y-80553270D01*
X119394572Y-80561535D01*
X119370773Y-80567496D01*
X119346505Y-80571096D01*
X119322001Y-80572300D01*
X118421999Y-80572300D01*
X118397495Y-80571096D01*
X118373227Y-80567496D01*
X118349428Y-80561535D01*
X118326329Y-80553270D01*
X118304150Y-80542780D01*
X118283107Y-80530168D01*
X118263401Y-80515553D01*
X118245223Y-80499077D01*
X118228747Y-80480899D01*
X118214132Y-80461193D01*
X118201520Y-80440150D01*
X118191030Y-80417971D01*
X118182765Y-80394872D01*
X118176804Y-80371073D01*
X118173204Y-80346805D01*
X118172000Y-80322301D01*
X118172000Y-79672299D01*
X118173204Y-79647795D01*
X118176804Y-79623527D01*
X118182765Y-79599728D01*
X118191030Y-79576629D01*
X118201520Y-79554450D01*
X118214132Y-79533407D01*
X118228747Y-79513701D01*
X118245223Y-79495523D01*
X118263401Y-79479047D01*
X118283107Y-79464432D01*
X118304150Y-79451820D01*
X118326329Y-79441330D01*
X118349428Y-79433065D01*
X118373227Y-79427104D01*
X118397495Y-79423504D01*
X118421999Y-79422300D01*
X119322001Y-79422300D01*
X119346505Y-79423504D01*
G37*
G36*
X119346505Y-81473504D02*
G01*
X119370773Y-81477104D01*
X119394572Y-81483065D01*
X119417671Y-81491330D01*
X119439850Y-81501820D01*
X119460893Y-81514432D01*
X119480599Y-81529047D01*
X119498777Y-81545523D01*
X119515253Y-81563701D01*
X119529868Y-81583407D01*
X119542480Y-81604450D01*
X119552970Y-81626629D01*
X119561235Y-81649728D01*
X119567196Y-81673527D01*
X119570796Y-81697795D01*
X119572000Y-81722299D01*
X119572000Y-82372301D01*
X119570796Y-82396805D01*
X119567196Y-82421073D01*
X119561235Y-82444872D01*
X119552970Y-82467971D01*
X119542480Y-82490150D01*
X119529868Y-82511193D01*
X119515253Y-82530899D01*
X119498777Y-82549077D01*
X119480599Y-82565553D01*
X119460893Y-82580168D01*
X119439850Y-82592780D01*
X119417671Y-82603270D01*
X119394572Y-82611535D01*
X119370773Y-82617496D01*
X119346505Y-82621096D01*
X119322001Y-82622300D01*
X118421999Y-82622300D01*
X118397495Y-82621096D01*
X118373227Y-82617496D01*
X118349428Y-82611535D01*
X118326329Y-82603270D01*
X118304150Y-82592780D01*
X118283107Y-82580168D01*
X118263401Y-82565553D01*
X118245223Y-82549077D01*
X118228747Y-82530899D01*
X118214132Y-82511193D01*
X118201520Y-82490150D01*
X118191030Y-82467971D01*
X118182765Y-82444872D01*
X118176804Y-82421073D01*
X118173204Y-82396805D01*
X118172000Y-82372301D01*
X118172000Y-81722299D01*
X118173204Y-81697795D01*
X118176804Y-81673527D01*
X118182765Y-81649728D01*
X118191030Y-81626629D01*
X118201520Y-81604450D01*
X118214132Y-81583407D01*
X118228747Y-81563701D01*
X118245223Y-81545523D01*
X118263401Y-81529047D01*
X118283107Y-81514432D01*
X118304150Y-81501820D01*
X118326329Y-81491330D01*
X118349428Y-81483065D01*
X118373227Y-81477104D01*
X118397495Y-81473504D01*
X118421999Y-81472300D01*
X119322001Y-81472300D01*
X119346505Y-81473504D01*
G37*
G36*
X115790505Y-79436204D02*
G01*
X115814773Y-79439804D01*
X115838572Y-79445765D01*
X115861671Y-79454030D01*
X115883850Y-79464520D01*
X115904893Y-79477132D01*
X115924599Y-79491747D01*
X115942777Y-79508223D01*
X115959253Y-79526401D01*
X115973868Y-79546107D01*
X115986480Y-79567150D01*
X115996970Y-79589329D01*
X116005235Y-79612428D01*
X116011196Y-79636227D01*
X116014796Y-79660495D01*
X116016000Y-79684999D01*
X116016000Y-80335001D01*
X116014796Y-80359505D01*
X116011196Y-80383773D01*
X116005235Y-80407572D01*
X115996970Y-80430671D01*
X115986480Y-80452850D01*
X115973868Y-80473893D01*
X115959253Y-80493599D01*
X115942777Y-80511777D01*
X115924599Y-80528253D01*
X115904893Y-80542868D01*
X115883850Y-80555480D01*
X115861671Y-80565970D01*
X115838572Y-80574235D01*
X115814773Y-80580196D01*
X115790505Y-80583796D01*
X115766001Y-80585000D01*
X114865999Y-80585000D01*
X114841495Y-80583796D01*
X114817227Y-80580196D01*
X114793428Y-80574235D01*
X114770329Y-80565970D01*
X114748150Y-80555480D01*
X114727107Y-80542868D01*
X114707401Y-80528253D01*
X114689223Y-80511777D01*
X114672747Y-80493599D01*
X114658132Y-80473893D01*
X114645520Y-80452850D01*
X114635030Y-80430671D01*
X114626765Y-80407572D01*
X114620804Y-80383773D01*
X114617204Y-80359505D01*
X114616000Y-80335001D01*
X114616000Y-79684999D01*
X114617204Y-79660495D01*
X114620804Y-79636227D01*
X114626765Y-79612428D01*
X114635030Y-79589329D01*
X114645520Y-79567150D01*
X114658132Y-79546107D01*
X114672747Y-79526401D01*
X114689223Y-79508223D01*
X114707401Y-79491747D01*
X114727107Y-79477132D01*
X114748150Y-79464520D01*
X114770329Y-79454030D01*
X114793428Y-79445765D01*
X114817227Y-79439804D01*
X114841495Y-79436204D01*
X114865999Y-79435000D01*
X115766001Y-79435000D01*
X115790505Y-79436204D01*
G37*
G36*
X115790505Y-81486204D02*
G01*
X115814773Y-81489804D01*
X115838572Y-81495765D01*
X115861671Y-81504030D01*
X115883850Y-81514520D01*
X115904893Y-81527132D01*
X115924599Y-81541747D01*
X115942777Y-81558223D01*
X115959253Y-81576401D01*
X115973868Y-81596107D01*
X115986480Y-81617150D01*
X115996970Y-81639329D01*
X116005235Y-81662428D01*
X116011196Y-81686227D01*
X116014796Y-81710495D01*
X116016000Y-81734999D01*
X116016000Y-82385001D01*
X116014796Y-82409505D01*
X116011196Y-82433773D01*
X116005235Y-82457572D01*
X115996970Y-82480671D01*
X115986480Y-82502850D01*
X115973868Y-82523893D01*
X115959253Y-82543599D01*
X115942777Y-82561777D01*
X115924599Y-82578253D01*
X115904893Y-82592868D01*
X115883850Y-82605480D01*
X115861671Y-82615970D01*
X115838572Y-82624235D01*
X115814773Y-82630196D01*
X115790505Y-82633796D01*
X115766001Y-82635000D01*
X114865999Y-82635000D01*
X114841495Y-82633796D01*
X114817227Y-82630196D01*
X114793428Y-82624235D01*
X114770329Y-82615970D01*
X114748150Y-82605480D01*
X114727107Y-82592868D01*
X114707401Y-82578253D01*
X114689223Y-82561777D01*
X114672747Y-82543599D01*
X114658132Y-82523893D01*
X114645520Y-82502850D01*
X114635030Y-82480671D01*
X114626765Y-82457572D01*
X114620804Y-82433773D01*
X114617204Y-82409505D01*
X114616000Y-82385001D01*
X114616000Y-81734999D01*
X114617204Y-81710495D01*
X114620804Y-81686227D01*
X114626765Y-81662428D01*
X114635030Y-81639329D01*
X114645520Y-81617150D01*
X114658132Y-81596107D01*
X114672747Y-81576401D01*
X114689223Y-81558223D01*
X114707401Y-81541747D01*
X114727107Y-81527132D01*
X114748150Y-81514520D01*
X114770329Y-81504030D01*
X114793428Y-81495765D01*
X114817227Y-81489804D01*
X114841495Y-81486204D01*
X114865999Y-81485000D01*
X115766001Y-81485000D01*
X115790505Y-81486204D01*
G37*
G36*
X109186505Y-81486204D02*
G01*
X109210773Y-81489804D01*
X109234572Y-81495765D01*
X109257671Y-81504030D01*
X109279850Y-81514520D01*
X109300893Y-81527132D01*
X109320599Y-81541747D01*
X109338777Y-81558223D01*
X109355253Y-81576401D01*
X109369868Y-81596107D01*
X109382480Y-81617150D01*
X109392970Y-81639329D01*
X109401235Y-81662428D01*
X109407196Y-81686227D01*
X109410796Y-81710495D01*
X109412000Y-81734999D01*
X109412000Y-82385001D01*
X109410796Y-82409505D01*
X109407196Y-82433773D01*
X109401235Y-82457572D01*
X109392970Y-82480671D01*
X109382480Y-82502850D01*
X109369868Y-82523893D01*
X109355253Y-82543599D01*
X109338777Y-82561777D01*
X109320599Y-82578253D01*
X109300893Y-82592868D01*
X109279850Y-82605480D01*
X109257671Y-82615970D01*
X109234572Y-82624235D01*
X109210773Y-82630196D01*
X109186505Y-82633796D01*
X109162001Y-82635000D01*
X108261999Y-82635000D01*
X108237495Y-82633796D01*
X108213227Y-82630196D01*
X108189428Y-82624235D01*
X108166329Y-82615970D01*
X108144150Y-82605480D01*
X108123107Y-82592868D01*
X108103401Y-82578253D01*
X108085223Y-82561777D01*
X108068747Y-82543599D01*
X108054132Y-82523893D01*
X108041520Y-82502850D01*
X108031030Y-82480671D01*
X108022765Y-82457572D01*
X108016804Y-82433773D01*
X108013204Y-82409505D01*
X108012000Y-82385001D01*
X108012000Y-81734999D01*
X108013204Y-81710495D01*
X108016804Y-81686227D01*
X108022765Y-81662428D01*
X108031030Y-81639329D01*
X108041520Y-81617150D01*
X108054132Y-81596107D01*
X108068747Y-81576401D01*
X108085223Y-81558223D01*
X108103401Y-81541747D01*
X108123107Y-81527132D01*
X108144150Y-81514520D01*
X108166329Y-81504030D01*
X108189428Y-81495765D01*
X108213227Y-81489804D01*
X108237495Y-81486204D01*
X108261999Y-81485000D01*
X109162001Y-81485000D01*
X109186505Y-81486204D01*
G37*
G36*
X109186505Y-79436204D02*
G01*
X109210773Y-79439804D01*
X109234572Y-79445765D01*
X109257671Y-79454030D01*
X109279850Y-79464520D01*
X109300893Y-79477132D01*
X109320599Y-79491747D01*
X109338777Y-79508223D01*
X109355253Y-79526401D01*
X109369868Y-79546107D01*
X109382480Y-79567150D01*
X109392970Y-79589329D01*
X109401235Y-79612428D01*
X109407196Y-79636227D01*
X109410796Y-79660495D01*
X109412000Y-79684999D01*
X109412000Y-80335001D01*
X109410796Y-80359505D01*
X109407196Y-80383773D01*
X109401235Y-80407572D01*
X109392970Y-80430671D01*
X109382480Y-80452850D01*
X109369868Y-80473893D01*
X109355253Y-80493599D01*
X109338777Y-80511777D01*
X109320599Y-80528253D01*
X109300893Y-80542868D01*
X109279850Y-80555480D01*
X109257671Y-80565970D01*
X109234572Y-80574235D01*
X109210773Y-80580196D01*
X109186505Y-80583796D01*
X109162001Y-80585000D01*
X108261999Y-80585000D01*
X108237495Y-80583796D01*
X108213227Y-80580196D01*
X108189428Y-80574235D01*
X108166329Y-80565970D01*
X108144150Y-80555480D01*
X108123107Y-80542868D01*
X108103401Y-80528253D01*
X108085223Y-80511777D01*
X108068747Y-80493599D01*
X108054132Y-80473893D01*
X108041520Y-80452850D01*
X108031030Y-80430671D01*
X108022765Y-80407572D01*
X108016804Y-80383773D01*
X108013204Y-80359505D01*
X108012000Y-80335001D01*
X108012000Y-79684999D01*
X108013204Y-79660495D01*
X108016804Y-79636227D01*
X108022765Y-79612428D01*
X108031030Y-79589329D01*
X108041520Y-79567150D01*
X108054132Y-79546107D01*
X108068747Y-79526401D01*
X108085223Y-79508223D01*
X108103401Y-79491747D01*
X108123107Y-79477132D01*
X108144150Y-79464520D01*
X108166329Y-79454030D01*
X108189428Y-79445765D01*
X108213227Y-79439804D01*
X108237495Y-79436204D01*
X108261999Y-79435000D01*
X109162001Y-79435000D01*
X109186505Y-79436204D01*
G37*
G36*
X112274779Y-79627144D02*
G01*
X112297834Y-79630563D01*
X112320443Y-79636227D01*
X112342387Y-79644079D01*
X112363457Y-79654044D01*
X112383448Y-79666026D01*
X112402168Y-79679910D01*
X112419438Y-79695562D01*
X112435090Y-79712832D01*
X112448974Y-79731552D01*
X112460956Y-79751543D01*
X112470921Y-79772613D01*
X112478773Y-79794557D01*
X112484437Y-79817166D01*
X112487856Y-79840221D01*
X112489000Y-79863500D01*
X112489000Y-80438500D01*
X112487856Y-80461779D01*
X112484437Y-80484834D01*
X112478773Y-80507443D01*
X112470921Y-80529387D01*
X112460956Y-80550457D01*
X112448974Y-80570448D01*
X112435090Y-80589168D01*
X112419438Y-80606438D01*
X112402168Y-80622090D01*
X112383448Y-80635974D01*
X112363457Y-80647956D01*
X112342387Y-80657921D01*
X112320443Y-80665773D01*
X112297834Y-80671437D01*
X112274779Y-80674856D01*
X112251500Y-80676000D01*
X111776500Y-80676000D01*
X111753221Y-80674856D01*
X111730166Y-80671437D01*
X111707557Y-80665773D01*
X111685613Y-80657921D01*
X111664543Y-80647956D01*
X111644552Y-80635974D01*
X111625832Y-80622090D01*
X111608562Y-80606438D01*
X111592910Y-80589168D01*
X111579026Y-80570448D01*
X111567044Y-80550457D01*
X111557079Y-80529387D01*
X111549227Y-80507443D01*
X111543563Y-80484834D01*
X111540144Y-80461779D01*
X111539000Y-80438500D01*
X111539000Y-79863500D01*
X111540144Y-79840221D01*
X111543563Y-79817166D01*
X111549227Y-79794557D01*
X111557079Y-79772613D01*
X111567044Y-79751543D01*
X111579026Y-79731552D01*
X111592910Y-79712832D01*
X111608562Y-79695562D01*
X111625832Y-79679910D01*
X111644552Y-79666026D01*
X111664543Y-79654044D01*
X111685613Y-79644079D01*
X111707557Y-79636227D01*
X111730166Y-79630563D01*
X111753221Y-79627144D01*
X111776500Y-79626000D01*
X112251500Y-79626000D01*
X112274779Y-79627144D01*
G37*
G36*
X112274779Y-81377144D02*
G01*
X112297834Y-81380563D01*
X112320443Y-81386227D01*
X112342387Y-81394079D01*
X112363457Y-81404044D01*
X112383448Y-81416026D01*
X112402168Y-81429910D01*
X112419438Y-81445562D01*
X112435090Y-81462832D01*
X112448974Y-81481552D01*
X112460956Y-81501543D01*
X112470921Y-81522613D01*
X112478773Y-81544557D01*
X112484437Y-81567166D01*
X112487856Y-81590221D01*
X112489000Y-81613500D01*
X112489000Y-82188500D01*
X112487856Y-82211779D01*
X112484437Y-82234834D01*
X112478773Y-82257443D01*
X112470921Y-82279387D01*
X112460956Y-82300457D01*
X112448974Y-82320448D01*
X112435090Y-82339168D01*
X112419438Y-82356438D01*
X112402168Y-82372090D01*
X112383448Y-82385974D01*
X112363457Y-82397956D01*
X112342387Y-82407921D01*
X112320443Y-82415773D01*
X112297834Y-82421437D01*
X112274779Y-82424856D01*
X112251500Y-82426000D01*
X111776500Y-82426000D01*
X111753221Y-82424856D01*
X111730166Y-82421437D01*
X111707557Y-82415773D01*
X111685613Y-82407921D01*
X111664543Y-82397956D01*
X111644552Y-82385974D01*
X111625832Y-82372090D01*
X111608562Y-82356438D01*
X111592910Y-82339168D01*
X111579026Y-82320448D01*
X111567044Y-82300457D01*
X111557079Y-82279387D01*
X111549227Y-82257443D01*
X111543563Y-82234834D01*
X111540144Y-82211779D01*
X111539000Y-82188500D01*
X111539000Y-81613500D01*
X111540144Y-81590221D01*
X111543563Y-81567166D01*
X111549227Y-81544557D01*
X111557079Y-81522613D01*
X111567044Y-81501543D01*
X111579026Y-81481552D01*
X111592910Y-81462832D01*
X111608562Y-81445562D01*
X111625832Y-81429910D01*
X111644552Y-81416026D01*
X111664543Y-81404044D01*
X111685613Y-81394079D01*
X111707557Y-81386227D01*
X111730166Y-81380563D01*
X111753221Y-81377144D01*
X111776500Y-81376000D01*
X112251500Y-81376000D01*
X112274779Y-81377144D01*
G37*
G36*
X123599105Y-64386804D02*
G01*
X123036350Y-64939821D01*
X122685895Y-64583196D01*
X123248650Y-64030179D01*
X123599105Y-64386804D01*
G37*
G36*
X123087115Y-63916733D02*
G01*
X122506732Y-64511474D01*
X122148885Y-64162267D01*
X122729268Y-63567526D01*
X123087115Y-63916733D01*
G37*
D16*
X122594000Y-64549500D03*
D15*
G36*
X123036350Y-61044179D02*
G01*
X123599105Y-61597196D01*
X123248650Y-61953821D01*
X122685895Y-61400804D01*
X123036350Y-61044179D01*
G37*
G36*
X122506732Y-61472526D02*
G01*
X123087115Y-62067267D01*
X122729268Y-62416474D01*
X122148885Y-61821733D01*
X122506732Y-61472526D01*
G37*
D16*
X122594000Y-61434500D03*
D17*
X123164000Y-62992000D03*
D15*
G36*
X120068732Y-63567526D02*
G01*
X120649115Y-64162267D01*
X120291268Y-64511474D01*
X119710885Y-63916733D01*
X120068732Y-63567526D01*
G37*
D16*
X120204000Y-64549500D03*
D15*
G36*
X119549350Y-64030179D02*
G01*
X120112105Y-64583196D01*
X119761650Y-64939821D01*
X119198895Y-64386804D01*
X119549350Y-64030179D01*
G37*
G36*
X120112105Y-61400804D02*
G01*
X119549350Y-61953821D01*
X119198895Y-61597196D01*
X119761650Y-61044179D01*
X120112105Y-61400804D01*
G37*
G36*
X120649115Y-61821733D02*
G01*
X120068732Y-62416474D01*
X119710885Y-62067267D01*
X120291268Y-61472526D01*
X120649115Y-61821733D01*
G37*
D16*
X120204000Y-61434500D03*
D17*
X119634000Y-62992000D03*
D15*
G36*
X111433105Y-64386804D02*
G01*
X110870350Y-64939821D01*
X110519895Y-64583196D01*
X111082650Y-64030179D01*
X111433105Y-64386804D01*
G37*
G36*
X110921115Y-63916733D02*
G01*
X110340732Y-64511474D01*
X109982885Y-64162267D01*
X110563268Y-63567526D01*
X110921115Y-63916733D01*
G37*
D16*
X110428000Y-64549500D03*
D15*
G36*
X110870350Y-61044179D02*
G01*
X111433105Y-61597196D01*
X111082650Y-61953821D01*
X110519895Y-61400804D01*
X110870350Y-61044179D01*
G37*
G36*
X110340732Y-61472526D02*
G01*
X110921115Y-62067267D01*
X110563268Y-62416474D01*
X109982885Y-61821733D01*
X110340732Y-61472526D01*
G37*
D16*
X110428000Y-61434500D03*
D17*
X110998000Y-62992000D03*
D15*
G36*
X107902732Y-63567526D02*
G01*
X108483115Y-64162267D01*
X108125268Y-64511474D01*
X107544885Y-63916733D01*
X107902732Y-63567526D01*
G37*
D16*
X108038000Y-64549500D03*
D15*
G36*
X107383350Y-64030179D02*
G01*
X107946105Y-64583196D01*
X107595650Y-64939821D01*
X107032895Y-64386804D01*
X107383350Y-64030179D01*
G37*
G36*
X107946105Y-61400804D02*
G01*
X107383350Y-61953821D01*
X107032895Y-61597196D01*
X107595650Y-61044179D01*
X107946105Y-61400804D01*
G37*
G36*
X108483115Y-61821733D02*
G01*
X107902732Y-62416474D01*
X107544885Y-62067267D01*
X108125268Y-61472526D01*
X108483115Y-61821733D01*
G37*
D16*
X108038000Y-61434500D03*
D17*
X107468000Y-62992000D03*
D14*
X133096000Y-81026000D03*
X133096000Y-87122000D03*
X133096000Y-93218000D03*
X121158000Y-88138000D03*
X121158000Y-100330000D03*
X110490000Y-55880000D03*
D18*
X94488000Y-98044000D03*
X94488000Y-95504000D03*
D14*
X94488000Y-92964000D03*
D18*
X94488000Y-85852000D03*
X94488000Y-83312000D03*
D14*
X94488000Y-80772000D03*
D18*
X142748000Y-71882000D03*
D14*
X142748000Y-69342000D03*
D18*
X89916000Y-72136000D03*
D14*
X89916000Y-69596000D03*
D15*
G36*
X108789505Y-89725204D02*
G01*
X108813773Y-89728804D01*
X108837572Y-89734765D01*
X108860671Y-89743030D01*
X108882850Y-89753520D01*
X108903893Y-89766132D01*
X108923599Y-89780747D01*
X108941777Y-89797223D01*
X108958253Y-89815401D01*
X108972868Y-89835107D01*
X108985480Y-89856150D01*
X108995970Y-89878329D01*
X109004235Y-89901428D01*
X109010196Y-89925227D01*
X109013796Y-89949495D01*
X109015000Y-89973999D01*
X109015000Y-90874001D01*
X109013796Y-90898505D01*
X109010196Y-90922773D01*
X109004235Y-90946572D01*
X108995970Y-90969671D01*
X108985480Y-90991850D01*
X108972868Y-91012893D01*
X108958253Y-91032599D01*
X108941777Y-91050777D01*
X108923599Y-91067253D01*
X108903893Y-91081868D01*
X108882850Y-91094480D01*
X108860671Y-91104970D01*
X108837572Y-91113235D01*
X108813773Y-91119196D01*
X108789505Y-91122796D01*
X108765001Y-91124000D01*
X108114999Y-91124000D01*
X108090495Y-91122796D01*
X108066227Y-91119196D01*
X108042428Y-91113235D01*
X108019329Y-91104970D01*
X107997150Y-91094480D01*
X107976107Y-91081868D01*
X107956401Y-91067253D01*
X107938223Y-91050777D01*
X107921747Y-91032599D01*
X107907132Y-91012893D01*
X107894520Y-90991850D01*
X107884030Y-90969671D01*
X107875765Y-90946572D01*
X107869804Y-90922773D01*
X107866204Y-90898505D01*
X107865000Y-90874001D01*
X107865000Y-89973999D01*
X107866204Y-89949495D01*
X107869804Y-89925227D01*
X107875765Y-89901428D01*
X107884030Y-89878329D01*
X107894520Y-89856150D01*
X107907132Y-89835107D01*
X107921747Y-89815401D01*
X107938223Y-89797223D01*
X107956401Y-89780747D01*
X107976107Y-89766132D01*
X107997150Y-89753520D01*
X108019329Y-89743030D01*
X108042428Y-89734765D01*
X108066227Y-89728804D01*
X108090495Y-89725204D01*
X108114999Y-89724000D01*
X108765001Y-89724000D01*
X108789505Y-89725204D01*
G37*
G36*
X110839505Y-89725204D02*
G01*
X110863773Y-89728804D01*
X110887572Y-89734765D01*
X110910671Y-89743030D01*
X110932850Y-89753520D01*
X110953893Y-89766132D01*
X110973599Y-89780747D01*
X110991777Y-89797223D01*
X111008253Y-89815401D01*
X111022868Y-89835107D01*
X111035480Y-89856150D01*
X111045970Y-89878329D01*
X111054235Y-89901428D01*
X111060196Y-89925227D01*
X111063796Y-89949495D01*
X111065000Y-89973999D01*
X111065000Y-90874001D01*
X111063796Y-90898505D01*
X111060196Y-90922773D01*
X111054235Y-90946572D01*
X111045970Y-90969671D01*
X111035480Y-90991850D01*
X111022868Y-91012893D01*
X111008253Y-91032599D01*
X110991777Y-91050777D01*
X110973599Y-91067253D01*
X110953893Y-91081868D01*
X110932850Y-91094480D01*
X110910671Y-91104970D01*
X110887572Y-91113235D01*
X110863773Y-91119196D01*
X110839505Y-91122796D01*
X110815001Y-91124000D01*
X110164999Y-91124000D01*
X110140495Y-91122796D01*
X110116227Y-91119196D01*
X110092428Y-91113235D01*
X110069329Y-91104970D01*
X110047150Y-91094480D01*
X110026107Y-91081868D01*
X110006401Y-91067253D01*
X109988223Y-91050777D01*
X109971747Y-91032599D01*
X109957132Y-91012893D01*
X109944520Y-90991850D01*
X109934030Y-90969671D01*
X109925765Y-90946572D01*
X109919804Y-90922773D01*
X109916204Y-90898505D01*
X109915000Y-90874001D01*
X109915000Y-89973999D01*
X109916204Y-89949495D01*
X109919804Y-89925227D01*
X109925765Y-89901428D01*
X109934030Y-89878329D01*
X109944520Y-89856150D01*
X109957132Y-89835107D01*
X109971747Y-89815401D01*
X109988223Y-89797223D01*
X110006401Y-89780747D01*
X110026107Y-89766132D01*
X110047150Y-89753520D01*
X110069329Y-89743030D01*
X110092428Y-89734765D01*
X110116227Y-89728804D01*
X110140495Y-89725204D01*
X110164999Y-89724000D01*
X110815001Y-89724000D01*
X110839505Y-89725204D01*
G37*
G36*
X108789505Y-93281204D02*
G01*
X108813773Y-93284804D01*
X108837572Y-93290765D01*
X108860671Y-93299030D01*
X108882850Y-93309520D01*
X108903893Y-93322132D01*
X108923599Y-93336747D01*
X108941777Y-93353223D01*
X108958253Y-93371401D01*
X108972868Y-93391107D01*
X108985480Y-93412150D01*
X108995970Y-93434329D01*
X109004235Y-93457428D01*
X109010196Y-93481227D01*
X109013796Y-93505495D01*
X109015000Y-93529999D01*
X109015000Y-94430001D01*
X109013796Y-94454505D01*
X109010196Y-94478773D01*
X109004235Y-94502572D01*
X108995970Y-94525671D01*
X108985480Y-94547850D01*
X108972868Y-94568893D01*
X108958253Y-94588599D01*
X108941777Y-94606777D01*
X108923599Y-94623253D01*
X108903893Y-94637868D01*
X108882850Y-94650480D01*
X108860671Y-94660970D01*
X108837572Y-94669235D01*
X108813773Y-94675196D01*
X108789505Y-94678796D01*
X108765001Y-94680000D01*
X108114999Y-94680000D01*
X108090495Y-94678796D01*
X108066227Y-94675196D01*
X108042428Y-94669235D01*
X108019329Y-94660970D01*
X107997150Y-94650480D01*
X107976107Y-94637868D01*
X107956401Y-94623253D01*
X107938223Y-94606777D01*
X107921747Y-94588599D01*
X107907132Y-94568893D01*
X107894520Y-94547850D01*
X107884030Y-94525671D01*
X107875765Y-94502572D01*
X107869804Y-94478773D01*
X107866204Y-94454505D01*
X107865000Y-94430001D01*
X107865000Y-93529999D01*
X107866204Y-93505495D01*
X107869804Y-93481227D01*
X107875765Y-93457428D01*
X107884030Y-93434329D01*
X107894520Y-93412150D01*
X107907132Y-93391107D01*
X107921747Y-93371401D01*
X107938223Y-93353223D01*
X107956401Y-93336747D01*
X107976107Y-93322132D01*
X107997150Y-93309520D01*
X108019329Y-93299030D01*
X108042428Y-93290765D01*
X108066227Y-93284804D01*
X108090495Y-93281204D01*
X108114999Y-93280000D01*
X108765001Y-93280000D01*
X108789505Y-93281204D01*
G37*
G36*
X110839505Y-93281204D02*
G01*
X110863773Y-93284804D01*
X110887572Y-93290765D01*
X110910671Y-93299030D01*
X110932850Y-93309520D01*
X110953893Y-93322132D01*
X110973599Y-93336747D01*
X110991777Y-93353223D01*
X111008253Y-93371401D01*
X111022868Y-93391107D01*
X111035480Y-93412150D01*
X111045970Y-93434329D01*
X111054235Y-93457428D01*
X111060196Y-93481227D01*
X111063796Y-93505495D01*
X111065000Y-93529999D01*
X111065000Y-94430001D01*
X111063796Y-94454505D01*
X111060196Y-94478773D01*
X111054235Y-94502572D01*
X111045970Y-94525671D01*
X111035480Y-94547850D01*
X111022868Y-94568893D01*
X111008253Y-94588599D01*
X110991777Y-94606777D01*
X110973599Y-94623253D01*
X110953893Y-94637868D01*
X110932850Y-94650480D01*
X110910671Y-94660970D01*
X110887572Y-94669235D01*
X110863773Y-94675196D01*
X110839505Y-94678796D01*
X110815001Y-94680000D01*
X110164999Y-94680000D01*
X110140495Y-94678796D01*
X110116227Y-94675196D01*
X110092428Y-94669235D01*
X110069329Y-94660970D01*
X110047150Y-94650480D01*
X110026107Y-94637868D01*
X110006401Y-94623253D01*
X109988223Y-94606777D01*
X109971747Y-94588599D01*
X109957132Y-94568893D01*
X109944520Y-94547850D01*
X109934030Y-94525671D01*
X109925765Y-94502572D01*
X109919804Y-94478773D01*
X109916204Y-94454505D01*
X109915000Y-94430001D01*
X109915000Y-93529999D01*
X109916204Y-93505495D01*
X109919804Y-93481227D01*
X109925765Y-93457428D01*
X109934030Y-93434329D01*
X109944520Y-93412150D01*
X109957132Y-93391107D01*
X109971747Y-93371401D01*
X109988223Y-93353223D01*
X110006401Y-93336747D01*
X110026107Y-93322132D01*
X110047150Y-93309520D01*
X110069329Y-93299030D01*
X110092428Y-93290765D01*
X110116227Y-93284804D01*
X110140495Y-93281204D01*
X110164999Y-93280000D01*
X110815001Y-93280000D01*
X110839505Y-93281204D01*
G37*
G36*
X108789505Y-96837204D02*
G01*
X108813773Y-96840804D01*
X108837572Y-96846765D01*
X108860671Y-96855030D01*
X108882850Y-96865520D01*
X108903893Y-96878132D01*
X108923599Y-96892747D01*
X108941777Y-96909223D01*
X108958253Y-96927401D01*
X108972868Y-96947107D01*
X108985480Y-96968150D01*
X108995970Y-96990329D01*
X109004235Y-97013428D01*
X109010196Y-97037227D01*
X109013796Y-97061495D01*
X109015000Y-97085999D01*
X109015000Y-97986001D01*
X109013796Y-98010505D01*
X109010196Y-98034773D01*
X109004235Y-98058572D01*
X108995970Y-98081671D01*
X108985480Y-98103850D01*
X108972868Y-98124893D01*
X108958253Y-98144599D01*
X108941777Y-98162777D01*
X108923599Y-98179253D01*
X108903893Y-98193868D01*
X108882850Y-98206480D01*
X108860671Y-98216970D01*
X108837572Y-98225235D01*
X108813773Y-98231196D01*
X108789505Y-98234796D01*
X108765001Y-98236000D01*
X108114999Y-98236000D01*
X108090495Y-98234796D01*
X108066227Y-98231196D01*
X108042428Y-98225235D01*
X108019329Y-98216970D01*
X107997150Y-98206480D01*
X107976107Y-98193868D01*
X107956401Y-98179253D01*
X107938223Y-98162777D01*
X107921747Y-98144599D01*
X107907132Y-98124893D01*
X107894520Y-98103850D01*
X107884030Y-98081671D01*
X107875765Y-98058572D01*
X107869804Y-98034773D01*
X107866204Y-98010505D01*
X107865000Y-97986001D01*
X107865000Y-97085999D01*
X107866204Y-97061495D01*
X107869804Y-97037227D01*
X107875765Y-97013428D01*
X107884030Y-96990329D01*
X107894520Y-96968150D01*
X107907132Y-96947107D01*
X107921747Y-96927401D01*
X107938223Y-96909223D01*
X107956401Y-96892747D01*
X107976107Y-96878132D01*
X107997150Y-96865520D01*
X108019329Y-96855030D01*
X108042428Y-96846765D01*
X108066227Y-96840804D01*
X108090495Y-96837204D01*
X108114999Y-96836000D01*
X108765001Y-96836000D01*
X108789505Y-96837204D01*
G37*
G36*
X110839505Y-96837204D02*
G01*
X110863773Y-96840804D01*
X110887572Y-96846765D01*
X110910671Y-96855030D01*
X110932850Y-96865520D01*
X110953893Y-96878132D01*
X110973599Y-96892747D01*
X110991777Y-96909223D01*
X111008253Y-96927401D01*
X111022868Y-96947107D01*
X111035480Y-96968150D01*
X111045970Y-96990329D01*
X111054235Y-97013428D01*
X111060196Y-97037227D01*
X111063796Y-97061495D01*
X111065000Y-97085999D01*
X111065000Y-97986001D01*
X111063796Y-98010505D01*
X111060196Y-98034773D01*
X111054235Y-98058572D01*
X111045970Y-98081671D01*
X111035480Y-98103850D01*
X111022868Y-98124893D01*
X111008253Y-98144599D01*
X110991777Y-98162777D01*
X110973599Y-98179253D01*
X110953893Y-98193868D01*
X110932850Y-98206480D01*
X110910671Y-98216970D01*
X110887572Y-98225235D01*
X110863773Y-98231196D01*
X110839505Y-98234796D01*
X110815001Y-98236000D01*
X110164999Y-98236000D01*
X110140495Y-98234796D01*
X110116227Y-98231196D01*
X110092428Y-98225235D01*
X110069329Y-98216970D01*
X110047150Y-98206480D01*
X110026107Y-98193868D01*
X110006401Y-98179253D01*
X109988223Y-98162777D01*
X109971747Y-98144599D01*
X109957132Y-98124893D01*
X109944520Y-98103850D01*
X109934030Y-98081671D01*
X109925765Y-98058572D01*
X109919804Y-98034773D01*
X109916204Y-98010505D01*
X109915000Y-97986001D01*
X109915000Y-97085999D01*
X109916204Y-97061495D01*
X109919804Y-97037227D01*
X109925765Y-97013428D01*
X109934030Y-96990329D01*
X109944520Y-96968150D01*
X109957132Y-96947107D01*
X109971747Y-96927401D01*
X109988223Y-96909223D01*
X110006401Y-96892747D01*
X110026107Y-96878132D01*
X110047150Y-96865520D01*
X110069329Y-96855030D01*
X110092428Y-96846765D01*
X110116227Y-96840804D01*
X110140495Y-96837204D01*
X110164999Y-96836000D01*
X110815001Y-96836000D01*
X110839505Y-96837204D01*
G37*
G36*
X123581305Y-67119204D02*
G01*
X123605573Y-67122804D01*
X123629372Y-67128765D01*
X123652471Y-67137030D01*
X123674650Y-67147520D01*
X123695693Y-67160132D01*
X123715399Y-67174747D01*
X123733577Y-67191223D01*
X123750053Y-67209401D01*
X123764668Y-67229107D01*
X123777280Y-67250150D01*
X123787770Y-67272329D01*
X123796035Y-67295428D01*
X123801996Y-67319227D01*
X123805596Y-67343495D01*
X123806800Y-67367999D01*
X123806800Y-68268001D01*
X123805596Y-68292505D01*
X123801996Y-68316773D01*
X123796035Y-68340572D01*
X123787770Y-68363671D01*
X123777280Y-68385850D01*
X123764668Y-68406893D01*
X123750053Y-68426599D01*
X123733577Y-68444777D01*
X123715399Y-68461253D01*
X123695693Y-68475868D01*
X123674650Y-68488480D01*
X123652471Y-68498970D01*
X123629372Y-68507235D01*
X123605573Y-68513196D01*
X123581305Y-68516796D01*
X123556801Y-68518000D01*
X122906799Y-68518000D01*
X122882295Y-68516796D01*
X122858027Y-68513196D01*
X122834228Y-68507235D01*
X122811129Y-68498970D01*
X122788950Y-68488480D01*
X122767907Y-68475868D01*
X122748201Y-68461253D01*
X122730023Y-68444777D01*
X122713547Y-68426599D01*
X122698932Y-68406893D01*
X122686320Y-68385850D01*
X122675830Y-68363671D01*
X122667565Y-68340572D01*
X122661604Y-68316773D01*
X122658004Y-68292505D01*
X122656800Y-68268001D01*
X122656800Y-67367999D01*
X122658004Y-67343495D01*
X122661604Y-67319227D01*
X122667565Y-67295428D01*
X122675830Y-67272329D01*
X122686320Y-67250150D01*
X122698932Y-67229107D01*
X122713547Y-67209401D01*
X122730023Y-67191223D01*
X122748201Y-67174747D01*
X122767907Y-67160132D01*
X122788950Y-67147520D01*
X122811129Y-67137030D01*
X122834228Y-67128765D01*
X122858027Y-67122804D01*
X122882295Y-67119204D01*
X122906799Y-67118000D01*
X123556801Y-67118000D01*
X123581305Y-67119204D01*
G37*
G36*
X125631305Y-67119204D02*
G01*
X125655573Y-67122804D01*
X125679372Y-67128765D01*
X125702471Y-67137030D01*
X125724650Y-67147520D01*
X125745693Y-67160132D01*
X125765399Y-67174747D01*
X125783577Y-67191223D01*
X125800053Y-67209401D01*
X125814668Y-67229107D01*
X125827280Y-67250150D01*
X125837770Y-67272329D01*
X125846035Y-67295428D01*
X125851996Y-67319227D01*
X125855596Y-67343495D01*
X125856800Y-67367999D01*
X125856800Y-68268001D01*
X125855596Y-68292505D01*
X125851996Y-68316773D01*
X125846035Y-68340572D01*
X125837770Y-68363671D01*
X125827280Y-68385850D01*
X125814668Y-68406893D01*
X125800053Y-68426599D01*
X125783577Y-68444777D01*
X125765399Y-68461253D01*
X125745693Y-68475868D01*
X125724650Y-68488480D01*
X125702471Y-68498970D01*
X125679372Y-68507235D01*
X125655573Y-68513196D01*
X125631305Y-68516796D01*
X125606801Y-68518000D01*
X124956799Y-68518000D01*
X124932295Y-68516796D01*
X124908027Y-68513196D01*
X124884228Y-68507235D01*
X124861129Y-68498970D01*
X124838950Y-68488480D01*
X124817907Y-68475868D01*
X124798201Y-68461253D01*
X124780023Y-68444777D01*
X124763547Y-68426599D01*
X124748932Y-68406893D01*
X124736320Y-68385850D01*
X124725830Y-68363671D01*
X124717565Y-68340572D01*
X124711604Y-68316773D01*
X124708004Y-68292505D01*
X124706800Y-68268001D01*
X124706800Y-67367999D01*
X124708004Y-67343495D01*
X124711604Y-67319227D01*
X124717565Y-67295428D01*
X124725830Y-67272329D01*
X124736320Y-67250150D01*
X124748932Y-67229107D01*
X124763547Y-67209401D01*
X124780023Y-67191223D01*
X124798201Y-67174747D01*
X124817907Y-67160132D01*
X124838950Y-67147520D01*
X124861129Y-67137030D01*
X124884228Y-67128765D01*
X124908027Y-67122804D01*
X124932295Y-67119204D01*
X124956799Y-67118000D01*
X125606801Y-67118000D01*
X125631305Y-67119204D01*
G37*
G36*
X116690505Y-64071204D02*
G01*
X116714773Y-64074804D01*
X116738572Y-64080765D01*
X116761671Y-64089030D01*
X116783850Y-64099520D01*
X116804893Y-64112132D01*
X116824599Y-64126747D01*
X116842777Y-64143223D01*
X116859253Y-64161401D01*
X116873868Y-64181107D01*
X116886480Y-64202150D01*
X116896970Y-64224329D01*
X116905235Y-64247428D01*
X116911196Y-64271227D01*
X116914796Y-64295495D01*
X116916000Y-64319999D01*
X116916000Y-65220001D01*
X116914796Y-65244505D01*
X116911196Y-65268773D01*
X116905235Y-65292572D01*
X116896970Y-65315671D01*
X116886480Y-65337850D01*
X116873868Y-65358893D01*
X116859253Y-65378599D01*
X116842777Y-65396777D01*
X116824599Y-65413253D01*
X116804893Y-65427868D01*
X116783850Y-65440480D01*
X116761671Y-65450970D01*
X116738572Y-65459235D01*
X116714773Y-65465196D01*
X116690505Y-65468796D01*
X116666001Y-65470000D01*
X116015999Y-65470000D01*
X115991495Y-65468796D01*
X115967227Y-65465196D01*
X115943428Y-65459235D01*
X115920329Y-65450970D01*
X115898150Y-65440480D01*
X115877107Y-65427868D01*
X115857401Y-65413253D01*
X115839223Y-65396777D01*
X115822747Y-65378599D01*
X115808132Y-65358893D01*
X115795520Y-65337850D01*
X115785030Y-65315671D01*
X115776765Y-65292572D01*
X115770804Y-65268773D01*
X115767204Y-65244505D01*
X115766000Y-65220001D01*
X115766000Y-64319999D01*
X115767204Y-64295495D01*
X115770804Y-64271227D01*
X115776765Y-64247428D01*
X115785030Y-64224329D01*
X115795520Y-64202150D01*
X115808132Y-64181107D01*
X115822747Y-64161401D01*
X115839223Y-64143223D01*
X115857401Y-64126747D01*
X115877107Y-64112132D01*
X115898150Y-64099520D01*
X115920329Y-64089030D01*
X115943428Y-64080765D01*
X115967227Y-64074804D01*
X115991495Y-64071204D01*
X116015999Y-64070000D01*
X116666001Y-64070000D01*
X116690505Y-64071204D01*
G37*
G36*
X114640505Y-64071204D02*
G01*
X114664773Y-64074804D01*
X114688572Y-64080765D01*
X114711671Y-64089030D01*
X114733850Y-64099520D01*
X114754893Y-64112132D01*
X114774599Y-64126747D01*
X114792777Y-64143223D01*
X114809253Y-64161401D01*
X114823868Y-64181107D01*
X114836480Y-64202150D01*
X114846970Y-64224329D01*
X114855235Y-64247428D01*
X114861196Y-64271227D01*
X114864796Y-64295495D01*
X114866000Y-64319999D01*
X114866000Y-65220001D01*
X114864796Y-65244505D01*
X114861196Y-65268773D01*
X114855235Y-65292572D01*
X114846970Y-65315671D01*
X114836480Y-65337850D01*
X114823868Y-65358893D01*
X114809253Y-65378599D01*
X114792777Y-65396777D01*
X114774599Y-65413253D01*
X114754893Y-65427868D01*
X114733850Y-65440480D01*
X114711671Y-65450970D01*
X114688572Y-65459235D01*
X114664773Y-65465196D01*
X114640505Y-65468796D01*
X114616001Y-65470000D01*
X113965999Y-65470000D01*
X113941495Y-65468796D01*
X113917227Y-65465196D01*
X113893428Y-65459235D01*
X113870329Y-65450970D01*
X113848150Y-65440480D01*
X113827107Y-65427868D01*
X113807401Y-65413253D01*
X113789223Y-65396777D01*
X113772747Y-65378599D01*
X113758132Y-65358893D01*
X113745520Y-65337850D01*
X113735030Y-65315671D01*
X113726765Y-65292572D01*
X113720804Y-65268773D01*
X113717204Y-65244505D01*
X113716000Y-65220001D01*
X113716000Y-64319999D01*
X113717204Y-64295495D01*
X113720804Y-64271227D01*
X113726765Y-64247428D01*
X113735030Y-64224329D01*
X113745520Y-64202150D01*
X113758132Y-64181107D01*
X113772747Y-64161401D01*
X113789223Y-64143223D01*
X113807401Y-64126747D01*
X113827107Y-64112132D01*
X113848150Y-64099520D01*
X113870329Y-64089030D01*
X113893428Y-64080765D01*
X113917227Y-64074804D01*
X113941495Y-64071204D01*
X113965999Y-64070000D01*
X114616001Y-64070000D01*
X114640505Y-64071204D01*
G37*
G36*
X116699505Y-60515204D02*
G01*
X116723773Y-60518804D01*
X116747572Y-60524765D01*
X116770671Y-60533030D01*
X116792850Y-60543520D01*
X116813893Y-60556132D01*
X116833599Y-60570747D01*
X116851777Y-60587223D01*
X116868253Y-60605401D01*
X116882868Y-60625107D01*
X116895480Y-60646150D01*
X116905970Y-60668329D01*
X116914235Y-60691428D01*
X116920196Y-60715227D01*
X116923796Y-60739495D01*
X116925000Y-60763999D01*
X116925000Y-61664001D01*
X116923796Y-61688505D01*
X116920196Y-61712773D01*
X116914235Y-61736572D01*
X116905970Y-61759671D01*
X116895480Y-61781850D01*
X116882868Y-61802893D01*
X116868253Y-61822599D01*
X116851777Y-61840777D01*
X116833599Y-61857253D01*
X116813893Y-61871868D01*
X116792850Y-61884480D01*
X116770671Y-61894970D01*
X116747572Y-61903235D01*
X116723773Y-61909196D01*
X116699505Y-61912796D01*
X116675001Y-61914000D01*
X116024999Y-61914000D01*
X116000495Y-61912796D01*
X115976227Y-61909196D01*
X115952428Y-61903235D01*
X115929329Y-61894970D01*
X115907150Y-61884480D01*
X115886107Y-61871868D01*
X115866401Y-61857253D01*
X115848223Y-61840777D01*
X115831747Y-61822599D01*
X115817132Y-61802893D01*
X115804520Y-61781850D01*
X115794030Y-61759671D01*
X115785765Y-61736572D01*
X115779804Y-61712773D01*
X115776204Y-61688505D01*
X115775000Y-61664001D01*
X115775000Y-60763999D01*
X115776204Y-60739495D01*
X115779804Y-60715227D01*
X115785765Y-60691428D01*
X115794030Y-60668329D01*
X115804520Y-60646150D01*
X115817132Y-60625107D01*
X115831747Y-60605401D01*
X115848223Y-60587223D01*
X115866401Y-60570747D01*
X115886107Y-60556132D01*
X115907150Y-60543520D01*
X115929329Y-60533030D01*
X115952428Y-60524765D01*
X115976227Y-60518804D01*
X116000495Y-60515204D01*
X116024999Y-60514000D01*
X116675001Y-60514000D01*
X116699505Y-60515204D01*
G37*
G36*
X114649505Y-60515204D02*
G01*
X114673773Y-60518804D01*
X114697572Y-60524765D01*
X114720671Y-60533030D01*
X114742850Y-60543520D01*
X114763893Y-60556132D01*
X114783599Y-60570747D01*
X114801777Y-60587223D01*
X114818253Y-60605401D01*
X114832868Y-60625107D01*
X114845480Y-60646150D01*
X114855970Y-60668329D01*
X114864235Y-60691428D01*
X114870196Y-60715227D01*
X114873796Y-60739495D01*
X114875000Y-60763999D01*
X114875000Y-61664001D01*
X114873796Y-61688505D01*
X114870196Y-61712773D01*
X114864235Y-61736572D01*
X114855970Y-61759671D01*
X114845480Y-61781850D01*
X114832868Y-61802893D01*
X114818253Y-61822599D01*
X114801777Y-61840777D01*
X114783599Y-61857253D01*
X114763893Y-61871868D01*
X114742850Y-61884480D01*
X114720671Y-61894970D01*
X114697572Y-61903235D01*
X114673773Y-61909196D01*
X114649505Y-61912796D01*
X114625001Y-61914000D01*
X113974999Y-61914000D01*
X113950495Y-61912796D01*
X113926227Y-61909196D01*
X113902428Y-61903235D01*
X113879329Y-61894970D01*
X113857150Y-61884480D01*
X113836107Y-61871868D01*
X113816401Y-61857253D01*
X113798223Y-61840777D01*
X113781747Y-61822599D01*
X113767132Y-61802893D01*
X113754520Y-61781850D01*
X113744030Y-61759671D01*
X113735765Y-61736572D01*
X113729804Y-61712773D01*
X113726204Y-61688505D01*
X113725000Y-61664001D01*
X113725000Y-60763999D01*
X113726204Y-60739495D01*
X113729804Y-60715227D01*
X113735765Y-60691428D01*
X113744030Y-60668329D01*
X113754520Y-60646150D01*
X113767132Y-60625107D01*
X113781747Y-60605401D01*
X113798223Y-60587223D01*
X113816401Y-60570747D01*
X113836107Y-60556132D01*
X113857150Y-60543520D01*
X113879329Y-60533030D01*
X113902428Y-60524765D01*
X113926227Y-60518804D01*
X113950495Y-60515204D01*
X113974999Y-60514000D01*
X114625001Y-60514000D01*
X114649505Y-60515204D01*
G37*
G36*
X105630505Y-81477204D02*
G01*
X105654773Y-81480804D01*
X105678572Y-81486765D01*
X105701671Y-81495030D01*
X105723850Y-81505520D01*
X105744893Y-81518132D01*
X105764599Y-81532747D01*
X105782777Y-81549223D01*
X105799253Y-81567401D01*
X105813868Y-81587107D01*
X105826480Y-81608150D01*
X105836970Y-81630329D01*
X105845235Y-81653428D01*
X105851196Y-81677227D01*
X105854796Y-81701495D01*
X105856000Y-81725999D01*
X105856000Y-82376001D01*
X105854796Y-82400505D01*
X105851196Y-82424773D01*
X105845235Y-82448572D01*
X105836970Y-82471671D01*
X105826480Y-82493850D01*
X105813868Y-82514893D01*
X105799253Y-82534599D01*
X105782777Y-82552777D01*
X105764599Y-82569253D01*
X105744893Y-82583868D01*
X105723850Y-82596480D01*
X105701671Y-82606970D01*
X105678572Y-82615235D01*
X105654773Y-82621196D01*
X105630505Y-82624796D01*
X105606001Y-82626000D01*
X104705999Y-82626000D01*
X104681495Y-82624796D01*
X104657227Y-82621196D01*
X104633428Y-82615235D01*
X104610329Y-82606970D01*
X104588150Y-82596480D01*
X104567107Y-82583868D01*
X104547401Y-82569253D01*
X104529223Y-82552777D01*
X104512747Y-82534599D01*
X104498132Y-82514893D01*
X104485520Y-82493850D01*
X104475030Y-82471671D01*
X104466765Y-82448572D01*
X104460804Y-82424773D01*
X104457204Y-82400505D01*
X104456000Y-82376001D01*
X104456000Y-81725999D01*
X104457204Y-81701495D01*
X104460804Y-81677227D01*
X104466765Y-81653428D01*
X104475030Y-81630329D01*
X104485520Y-81608150D01*
X104498132Y-81587107D01*
X104512747Y-81567401D01*
X104529223Y-81549223D01*
X104547401Y-81532747D01*
X104567107Y-81518132D01*
X104588150Y-81505520D01*
X104610329Y-81495030D01*
X104633428Y-81486765D01*
X104657227Y-81480804D01*
X104681495Y-81477204D01*
X104705999Y-81476000D01*
X105606001Y-81476000D01*
X105630505Y-81477204D01*
G37*
G36*
X105630505Y-79427204D02*
G01*
X105654773Y-79430804D01*
X105678572Y-79436765D01*
X105701671Y-79445030D01*
X105723850Y-79455520D01*
X105744893Y-79468132D01*
X105764599Y-79482747D01*
X105782777Y-79499223D01*
X105799253Y-79517401D01*
X105813868Y-79537107D01*
X105826480Y-79558150D01*
X105836970Y-79580329D01*
X105845235Y-79603428D01*
X105851196Y-79627227D01*
X105854796Y-79651495D01*
X105856000Y-79675999D01*
X105856000Y-80326001D01*
X105854796Y-80350505D01*
X105851196Y-80374773D01*
X105845235Y-80398572D01*
X105836970Y-80421671D01*
X105826480Y-80443850D01*
X105813868Y-80464893D01*
X105799253Y-80484599D01*
X105782777Y-80502777D01*
X105764599Y-80519253D01*
X105744893Y-80533868D01*
X105723850Y-80546480D01*
X105701671Y-80556970D01*
X105678572Y-80565235D01*
X105654773Y-80571196D01*
X105630505Y-80574796D01*
X105606001Y-80576000D01*
X104705999Y-80576000D01*
X104681495Y-80574796D01*
X104657227Y-80571196D01*
X104633428Y-80565235D01*
X104610329Y-80556970D01*
X104588150Y-80546480D01*
X104567107Y-80533868D01*
X104547401Y-80519253D01*
X104529223Y-80502777D01*
X104512747Y-80484599D01*
X104498132Y-80464893D01*
X104485520Y-80443850D01*
X104475030Y-80421671D01*
X104466765Y-80398572D01*
X104460804Y-80374773D01*
X104457204Y-80350505D01*
X104456000Y-80326001D01*
X104456000Y-79675999D01*
X104457204Y-79651495D01*
X104460804Y-79627227D01*
X104466765Y-79603428D01*
X104475030Y-79580329D01*
X104485520Y-79558150D01*
X104498132Y-79537107D01*
X104512747Y-79517401D01*
X104529223Y-79499223D01*
X104547401Y-79482747D01*
X104567107Y-79468132D01*
X104588150Y-79455520D01*
X104610329Y-79445030D01*
X104633428Y-79436765D01*
X104657227Y-79430804D01*
X104681495Y-79427204D01*
X104705999Y-79426000D01*
X105606001Y-79426000D01*
X105630505Y-79427204D01*
G37*
G36*
X108424505Y-71571204D02*
G01*
X108448773Y-71574804D01*
X108472572Y-71580765D01*
X108495671Y-71589030D01*
X108517850Y-71599520D01*
X108538893Y-71612132D01*
X108558599Y-71626747D01*
X108576777Y-71643223D01*
X108593253Y-71661401D01*
X108607868Y-71681107D01*
X108620480Y-71702150D01*
X108630970Y-71724329D01*
X108639235Y-71747428D01*
X108645196Y-71771227D01*
X108648796Y-71795495D01*
X108650000Y-71819999D01*
X108650000Y-72470001D01*
X108648796Y-72494505D01*
X108645196Y-72518773D01*
X108639235Y-72542572D01*
X108630970Y-72565671D01*
X108620480Y-72587850D01*
X108607868Y-72608893D01*
X108593253Y-72628599D01*
X108576777Y-72646777D01*
X108558599Y-72663253D01*
X108538893Y-72677868D01*
X108517850Y-72690480D01*
X108495671Y-72700970D01*
X108472572Y-72709235D01*
X108448773Y-72715196D01*
X108424505Y-72718796D01*
X108400001Y-72720000D01*
X107499999Y-72720000D01*
X107475495Y-72718796D01*
X107451227Y-72715196D01*
X107427428Y-72709235D01*
X107404329Y-72700970D01*
X107382150Y-72690480D01*
X107361107Y-72677868D01*
X107341401Y-72663253D01*
X107323223Y-72646777D01*
X107306747Y-72628599D01*
X107292132Y-72608893D01*
X107279520Y-72587850D01*
X107269030Y-72565671D01*
X107260765Y-72542572D01*
X107254804Y-72518773D01*
X107251204Y-72494505D01*
X107250000Y-72470001D01*
X107250000Y-71819999D01*
X107251204Y-71795495D01*
X107254804Y-71771227D01*
X107260765Y-71747428D01*
X107269030Y-71724329D01*
X107279520Y-71702150D01*
X107292132Y-71681107D01*
X107306747Y-71661401D01*
X107323223Y-71643223D01*
X107341401Y-71626747D01*
X107361107Y-71612132D01*
X107382150Y-71599520D01*
X107404329Y-71589030D01*
X107427428Y-71580765D01*
X107451227Y-71574804D01*
X107475495Y-71571204D01*
X107499999Y-71570000D01*
X108400001Y-71570000D01*
X108424505Y-71571204D01*
G37*
G36*
X108424505Y-69521204D02*
G01*
X108448773Y-69524804D01*
X108472572Y-69530765D01*
X108495671Y-69539030D01*
X108517850Y-69549520D01*
X108538893Y-69562132D01*
X108558599Y-69576747D01*
X108576777Y-69593223D01*
X108593253Y-69611401D01*
X108607868Y-69631107D01*
X108620480Y-69652150D01*
X108630970Y-69674329D01*
X108639235Y-69697428D01*
X108645196Y-69721227D01*
X108648796Y-69745495D01*
X108650000Y-69769999D01*
X108650000Y-70420001D01*
X108648796Y-70444505D01*
X108645196Y-70468773D01*
X108639235Y-70492572D01*
X108630970Y-70515671D01*
X108620480Y-70537850D01*
X108607868Y-70558893D01*
X108593253Y-70578599D01*
X108576777Y-70596777D01*
X108558599Y-70613253D01*
X108538893Y-70627868D01*
X108517850Y-70640480D01*
X108495671Y-70650970D01*
X108472572Y-70659235D01*
X108448773Y-70665196D01*
X108424505Y-70668796D01*
X108400001Y-70670000D01*
X107499999Y-70670000D01*
X107475495Y-70668796D01*
X107451227Y-70665196D01*
X107427428Y-70659235D01*
X107404329Y-70650970D01*
X107382150Y-70640480D01*
X107361107Y-70627868D01*
X107341401Y-70613253D01*
X107323223Y-70596777D01*
X107306747Y-70578599D01*
X107292132Y-70558893D01*
X107279520Y-70537850D01*
X107269030Y-70515671D01*
X107260765Y-70492572D01*
X107254804Y-70468773D01*
X107251204Y-70444505D01*
X107250000Y-70420001D01*
X107250000Y-69769999D01*
X107251204Y-69745495D01*
X107254804Y-69721227D01*
X107260765Y-69697428D01*
X107269030Y-69674329D01*
X107279520Y-69652150D01*
X107292132Y-69631107D01*
X107306747Y-69611401D01*
X107323223Y-69593223D01*
X107341401Y-69576747D01*
X107361107Y-69562132D01*
X107382150Y-69549520D01*
X107404329Y-69539030D01*
X107427428Y-69530765D01*
X107451227Y-69524804D01*
X107475495Y-69521204D01*
X107499999Y-69520000D01*
X108400001Y-69520000D01*
X108424505Y-69521204D01*
G37*
D14*
X119285200Y-46939200D03*
D19*
X113785200Y-46939200D03*
M02*
