G04 #@! TF.GenerationSoftware,KiCad,Pcbnew,(5.1.5)-3*
G04 #@! TF.CreationDate,2020-01-20T14:19:25+01:00*
G04 #@! TF.ProjectId,bq25570,62713235-3537-4302-9e6b-696361645f70,rev?*
G04 #@! TF.SameCoordinates,Original*
G04 #@! TF.FileFunction,Soldermask,Top*
G04 #@! TF.FilePolarity,Negative*
%FSLAX46Y46*%
G04 Gerber Fmt 4.6, Leading zero omitted, Abs format (unit mm)*
G04 Created by KiCad (PCBNEW (5.1.5)-3) date 2020-01-20 14:19:25*
%MOMM*%
%LPD*%
G04 APERTURE LIST*
%ADD10C,0.100000*%
G04 APERTURE END LIST*
D10*
G36*
X122059000Y-101231000D02*
G01*
X120257000Y-101231000D01*
X120257000Y-99429000D01*
X122059000Y-99429000D01*
X122059000Y-101231000D01*
G37*
G36*
X94601512Y-97147927D02*
G01*
X94750812Y-97177624D01*
X94914784Y-97245544D01*
X95062354Y-97344147D01*
X95187853Y-97469646D01*
X95286456Y-97617216D01*
X95354376Y-97781188D01*
X95389000Y-97955259D01*
X95389000Y-98132741D01*
X95354376Y-98306812D01*
X95286456Y-98470784D01*
X95187853Y-98618354D01*
X95062354Y-98743853D01*
X94914784Y-98842456D01*
X94750812Y-98910376D01*
X94601512Y-98940073D01*
X94576742Y-98945000D01*
X94399258Y-98945000D01*
X94374488Y-98940073D01*
X94225188Y-98910376D01*
X94061216Y-98842456D01*
X93913646Y-98743853D01*
X93788147Y-98618354D01*
X93689544Y-98470784D01*
X93621624Y-98306812D01*
X93587000Y-98132741D01*
X93587000Y-97955259D01*
X93621624Y-97781188D01*
X93689544Y-97617216D01*
X93788147Y-97469646D01*
X93913646Y-97344147D01*
X94061216Y-97245544D01*
X94225188Y-97177624D01*
X94374488Y-97147927D01*
X94399258Y-97143000D01*
X94576742Y-97143000D01*
X94601512Y-97147927D01*
G37*
G36*
X108903674Y-96789465D02*
G01*
X108941367Y-96800899D01*
X108976103Y-96819466D01*
X109006548Y-96844452D01*
X109031534Y-96874897D01*
X109050101Y-96909633D01*
X109061535Y-96947326D01*
X109066000Y-96992661D01*
X109066000Y-98079339D01*
X109061535Y-98124674D01*
X109050101Y-98162367D01*
X109031534Y-98197103D01*
X109006548Y-98227548D01*
X108976103Y-98252534D01*
X108941367Y-98271101D01*
X108903674Y-98282535D01*
X108858339Y-98287000D01*
X108021661Y-98287000D01*
X107976326Y-98282535D01*
X107938633Y-98271101D01*
X107903897Y-98252534D01*
X107873452Y-98227548D01*
X107848466Y-98197103D01*
X107829899Y-98162367D01*
X107818465Y-98124674D01*
X107814000Y-98079339D01*
X107814000Y-96992661D01*
X107818465Y-96947326D01*
X107829899Y-96909633D01*
X107848466Y-96874897D01*
X107873452Y-96844452D01*
X107903897Y-96819466D01*
X107938633Y-96800899D01*
X107976326Y-96789465D01*
X108021661Y-96785000D01*
X108858339Y-96785000D01*
X108903674Y-96789465D01*
G37*
G36*
X104331674Y-96789465D02*
G01*
X104369367Y-96800899D01*
X104404103Y-96819466D01*
X104434548Y-96844452D01*
X104459534Y-96874897D01*
X104478101Y-96909633D01*
X104489535Y-96947326D01*
X104494000Y-96992661D01*
X104494000Y-98079339D01*
X104489535Y-98124674D01*
X104478101Y-98162367D01*
X104459534Y-98197103D01*
X104434548Y-98227548D01*
X104404103Y-98252534D01*
X104369367Y-98271101D01*
X104331674Y-98282535D01*
X104286339Y-98287000D01*
X103449661Y-98287000D01*
X103404326Y-98282535D01*
X103366633Y-98271101D01*
X103331897Y-98252534D01*
X103301452Y-98227548D01*
X103276466Y-98197103D01*
X103257899Y-98162367D01*
X103246465Y-98124674D01*
X103242000Y-98079339D01*
X103242000Y-96992661D01*
X103246465Y-96947326D01*
X103257899Y-96909633D01*
X103276466Y-96874897D01*
X103301452Y-96844452D01*
X103331897Y-96819466D01*
X103366633Y-96800899D01*
X103404326Y-96789465D01*
X103449661Y-96785000D01*
X104286339Y-96785000D01*
X104331674Y-96789465D01*
G37*
G36*
X106381674Y-96789465D02*
G01*
X106419367Y-96800899D01*
X106454103Y-96819466D01*
X106484548Y-96844452D01*
X106509534Y-96874897D01*
X106528101Y-96909633D01*
X106539535Y-96947326D01*
X106544000Y-96992661D01*
X106544000Y-98079339D01*
X106539535Y-98124674D01*
X106528101Y-98162367D01*
X106509534Y-98197103D01*
X106484548Y-98227548D01*
X106454103Y-98252534D01*
X106419367Y-98271101D01*
X106381674Y-98282535D01*
X106336339Y-98287000D01*
X105499661Y-98287000D01*
X105454326Y-98282535D01*
X105416633Y-98271101D01*
X105381897Y-98252534D01*
X105351452Y-98227548D01*
X105326466Y-98197103D01*
X105307899Y-98162367D01*
X105296465Y-98124674D01*
X105292000Y-98079339D01*
X105292000Y-96992661D01*
X105296465Y-96947326D01*
X105307899Y-96909633D01*
X105326466Y-96874897D01*
X105351452Y-96844452D01*
X105381897Y-96819466D01*
X105416633Y-96800899D01*
X105454326Y-96789465D01*
X105499661Y-96785000D01*
X106336339Y-96785000D01*
X106381674Y-96789465D01*
G37*
G36*
X110953674Y-96789465D02*
G01*
X110991367Y-96800899D01*
X111026103Y-96819466D01*
X111056548Y-96844452D01*
X111081534Y-96874897D01*
X111100101Y-96909633D01*
X111111535Y-96947326D01*
X111116000Y-96992661D01*
X111116000Y-98079339D01*
X111111535Y-98124674D01*
X111100101Y-98162367D01*
X111081534Y-98197103D01*
X111056548Y-98227548D01*
X111026103Y-98252534D01*
X110991367Y-98271101D01*
X110953674Y-98282535D01*
X110908339Y-98287000D01*
X110071661Y-98287000D01*
X110026326Y-98282535D01*
X109988633Y-98271101D01*
X109953897Y-98252534D01*
X109923452Y-98227548D01*
X109898466Y-98197103D01*
X109879899Y-98162367D01*
X109868465Y-98124674D01*
X109864000Y-98079339D01*
X109864000Y-96992661D01*
X109868465Y-96947326D01*
X109879899Y-96909633D01*
X109898466Y-96874897D01*
X109923452Y-96844452D01*
X109953897Y-96819466D01*
X109988633Y-96800899D01*
X110026326Y-96789465D01*
X110071661Y-96785000D01*
X110908339Y-96785000D01*
X110953674Y-96789465D01*
G37*
G36*
X94601512Y-94607927D02*
G01*
X94750812Y-94637624D01*
X94914784Y-94705544D01*
X95062354Y-94804147D01*
X95187853Y-94929646D01*
X95286456Y-95077216D01*
X95354376Y-95241188D01*
X95389000Y-95415259D01*
X95389000Y-95592741D01*
X95354376Y-95766812D01*
X95286456Y-95930784D01*
X95187853Y-96078354D01*
X95062354Y-96203853D01*
X94914784Y-96302456D01*
X94750812Y-96370376D01*
X94601512Y-96400073D01*
X94576742Y-96405000D01*
X94399258Y-96405000D01*
X94374488Y-96400073D01*
X94225188Y-96370376D01*
X94061216Y-96302456D01*
X93913646Y-96203853D01*
X93788147Y-96078354D01*
X93689544Y-95930784D01*
X93621624Y-95766812D01*
X93587000Y-95592741D01*
X93587000Y-95415259D01*
X93621624Y-95241188D01*
X93689544Y-95077216D01*
X93788147Y-94929646D01*
X93913646Y-94804147D01*
X94061216Y-94705544D01*
X94225188Y-94637624D01*
X94374488Y-94607927D01*
X94399258Y-94603000D01*
X94576742Y-94603000D01*
X94601512Y-94607927D01*
G37*
G36*
X122059000Y-95135000D02*
G01*
X120257000Y-95135000D01*
X120257000Y-93333000D01*
X122059000Y-93333000D01*
X122059000Y-95135000D01*
G37*
G36*
X108903674Y-93233465D02*
G01*
X108941367Y-93244899D01*
X108976103Y-93263466D01*
X109006548Y-93288452D01*
X109031534Y-93318897D01*
X109050101Y-93353633D01*
X109061535Y-93391326D01*
X109066000Y-93436661D01*
X109066000Y-94523339D01*
X109061535Y-94568674D01*
X109050101Y-94606367D01*
X109031534Y-94641103D01*
X109006548Y-94671548D01*
X108976103Y-94696534D01*
X108941367Y-94715101D01*
X108903674Y-94726535D01*
X108858339Y-94731000D01*
X108021661Y-94731000D01*
X107976326Y-94726535D01*
X107938633Y-94715101D01*
X107903897Y-94696534D01*
X107873452Y-94671548D01*
X107848466Y-94641103D01*
X107829899Y-94606367D01*
X107818465Y-94568674D01*
X107814000Y-94523339D01*
X107814000Y-93436661D01*
X107818465Y-93391326D01*
X107829899Y-93353633D01*
X107848466Y-93318897D01*
X107873452Y-93288452D01*
X107903897Y-93263466D01*
X107938633Y-93244899D01*
X107976326Y-93233465D01*
X108021661Y-93229000D01*
X108858339Y-93229000D01*
X108903674Y-93233465D01*
G37*
G36*
X110953674Y-93233465D02*
G01*
X110991367Y-93244899D01*
X111026103Y-93263466D01*
X111056548Y-93288452D01*
X111081534Y-93318897D01*
X111100101Y-93353633D01*
X111111535Y-93391326D01*
X111116000Y-93436661D01*
X111116000Y-94523339D01*
X111111535Y-94568674D01*
X111100101Y-94606367D01*
X111081534Y-94641103D01*
X111056548Y-94671548D01*
X111026103Y-94696534D01*
X110991367Y-94715101D01*
X110953674Y-94726535D01*
X110908339Y-94731000D01*
X110071661Y-94731000D01*
X110026326Y-94726535D01*
X109988633Y-94715101D01*
X109953897Y-94696534D01*
X109923452Y-94671548D01*
X109898466Y-94641103D01*
X109879899Y-94606367D01*
X109868465Y-94568674D01*
X109864000Y-94523339D01*
X109864000Y-93436661D01*
X109868465Y-93391326D01*
X109879899Y-93353633D01*
X109898466Y-93318897D01*
X109923452Y-93288452D01*
X109953897Y-93263466D01*
X109988633Y-93244899D01*
X110026326Y-93233465D01*
X110071661Y-93229000D01*
X110908339Y-93229000D01*
X110953674Y-93233465D01*
G37*
G36*
X106381674Y-93233465D02*
G01*
X106419367Y-93244899D01*
X106454103Y-93263466D01*
X106484548Y-93288452D01*
X106509534Y-93318897D01*
X106528101Y-93353633D01*
X106539535Y-93391326D01*
X106544000Y-93436661D01*
X106544000Y-94523339D01*
X106539535Y-94568674D01*
X106528101Y-94606367D01*
X106509534Y-94641103D01*
X106484548Y-94671548D01*
X106454103Y-94696534D01*
X106419367Y-94715101D01*
X106381674Y-94726535D01*
X106336339Y-94731000D01*
X105499661Y-94731000D01*
X105454326Y-94726535D01*
X105416633Y-94715101D01*
X105381897Y-94696534D01*
X105351452Y-94671548D01*
X105326466Y-94641103D01*
X105307899Y-94606367D01*
X105296465Y-94568674D01*
X105292000Y-94523339D01*
X105292000Y-93436661D01*
X105296465Y-93391326D01*
X105307899Y-93353633D01*
X105326466Y-93318897D01*
X105351452Y-93288452D01*
X105381897Y-93263466D01*
X105416633Y-93244899D01*
X105454326Y-93233465D01*
X105499661Y-93229000D01*
X106336339Y-93229000D01*
X106381674Y-93233465D01*
G37*
G36*
X104331674Y-93233465D02*
G01*
X104369367Y-93244899D01*
X104404103Y-93263466D01*
X104434548Y-93288452D01*
X104459534Y-93318897D01*
X104478101Y-93353633D01*
X104489535Y-93391326D01*
X104494000Y-93436661D01*
X104494000Y-94523339D01*
X104489535Y-94568674D01*
X104478101Y-94606367D01*
X104459534Y-94641103D01*
X104434548Y-94671548D01*
X104404103Y-94696534D01*
X104369367Y-94715101D01*
X104331674Y-94726535D01*
X104286339Y-94731000D01*
X103449661Y-94731000D01*
X103404326Y-94726535D01*
X103366633Y-94715101D01*
X103331897Y-94696534D01*
X103301452Y-94671548D01*
X103276466Y-94641103D01*
X103257899Y-94606367D01*
X103246465Y-94568674D01*
X103242000Y-94523339D01*
X103242000Y-93436661D01*
X103246465Y-93391326D01*
X103257899Y-93353633D01*
X103276466Y-93318897D01*
X103301452Y-93288452D01*
X103331897Y-93263466D01*
X103366633Y-93244899D01*
X103404326Y-93233465D01*
X103449661Y-93229000D01*
X104286339Y-93229000D01*
X104331674Y-93233465D01*
G37*
G36*
X133997000Y-94119000D02*
G01*
X132195000Y-94119000D01*
X132195000Y-92317000D01*
X133997000Y-92317000D01*
X133997000Y-94119000D01*
G37*
G36*
X95389000Y-93865000D02*
G01*
X93587000Y-93865000D01*
X93587000Y-92063000D01*
X95389000Y-92063000D01*
X95389000Y-93865000D01*
G37*
G36*
X106381674Y-89677465D02*
G01*
X106419367Y-89688899D01*
X106454103Y-89707466D01*
X106484548Y-89732452D01*
X106509534Y-89762897D01*
X106528101Y-89797633D01*
X106539535Y-89835326D01*
X106544000Y-89880661D01*
X106544000Y-90967339D01*
X106539535Y-91012674D01*
X106528101Y-91050367D01*
X106509534Y-91085103D01*
X106484548Y-91115548D01*
X106454103Y-91140534D01*
X106419367Y-91159101D01*
X106381674Y-91170535D01*
X106336339Y-91175000D01*
X105499661Y-91175000D01*
X105454326Y-91170535D01*
X105416633Y-91159101D01*
X105381897Y-91140534D01*
X105351452Y-91115548D01*
X105326466Y-91085103D01*
X105307899Y-91050367D01*
X105296465Y-91012674D01*
X105292000Y-90967339D01*
X105292000Y-89880661D01*
X105296465Y-89835326D01*
X105307899Y-89797633D01*
X105326466Y-89762897D01*
X105351452Y-89732452D01*
X105381897Y-89707466D01*
X105416633Y-89688899D01*
X105454326Y-89677465D01*
X105499661Y-89673000D01*
X106336339Y-89673000D01*
X106381674Y-89677465D01*
G37*
G36*
X110953674Y-89677465D02*
G01*
X110991367Y-89688899D01*
X111026103Y-89707466D01*
X111056548Y-89732452D01*
X111081534Y-89762897D01*
X111100101Y-89797633D01*
X111111535Y-89835326D01*
X111116000Y-89880661D01*
X111116000Y-90967339D01*
X111111535Y-91012674D01*
X111100101Y-91050367D01*
X111081534Y-91085103D01*
X111056548Y-91115548D01*
X111026103Y-91140534D01*
X110991367Y-91159101D01*
X110953674Y-91170535D01*
X110908339Y-91175000D01*
X110071661Y-91175000D01*
X110026326Y-91170535D01*
X109988633Y-91159101D01*
X109953897Y-91140534D01*
X109923452Y-91115548D01*
X109898466Y-91085103D01*
X109879899Y-91050367D01*
X109868465Y-91012674D01*
X109864000Y-90967339D01*
X109864000Y-89880661D01*
X109868465Y-89835326D01*
X109879899Y-89797633D01*
X109898466Y-89762897D01*
X109923452Y-89732452D01*
X109953897Y-89707466D01*
X109988633Y-89688899D01*
X110026326Y-89677465D01*
X110071661Y-89673000D01*
X110908339Y-89673000D01*
X110953674Y-89677465D01*
G37*
G36*
X108903674Y-89677465D02*
G01*
X108941367Y-89688899D01*
X108976103Y-89707466D01*
X109006548Y-89732452D01*
X109031534Y-89762897D01*
X109050101Y-89797633D01*
X109061535Y-89835326D01*
X109066000Y-89880661D01*
X109066000Y-90967339D01*
X109061535Y-91012674D01*
X109050101Y-91050367D01*
X109031534Y-91085103D01*
X109006548Y-91115548D01*
X108976103Y-91140534D01*
X108941367Y-91159101D01*
X108903674Y-91170535D01*
X108858339Y-91175000D01*
X108021661Y-91175000D01*
X107976326Y-91170535D01*
X107938633Y-91159101D01*
X107903897Y-91140534D01*
X107873452Y-91115548D01*
X107848466Y-91085103D01*
X107829899Y-91050367D01*
X107818465Y-91012674D01*
X107814000Y-90967339D01*
X107814000Y-89880661D01*
X107818465Y-89835326D01*
X107829899Y-89797633D01*
X107848466Y-89762897D01*
X107873452Y-89732452D01*
X107903897Y-89707466D01*
X107938633Y-89688899D01*
X107976326Y-89677465D01*
X108021661Y-89673000D01*
X108858339Y-89673000D01*
X108903674Y-89677465D01*
G37*
G36*
X104331674Y-89677465D02*
G01*
X104369367Y-89688899D01*
X104404103Y-89707466D01*
X104434548Y-89732452D01*
X104459534Y-89762897D01*
X104478101Y-89797633D01*
X104489535Y-89835326D01*
X104494000Y-89880661D01*
X104494000Y-90967339D01*
X104489535Y-91012674D01*
X104478101Y-91050367D01*
X104459534Y-91085103D01*
X104434548Y-91115548D01*
X104404103Y-91140534D01*
X104369367Y-91159101D01*
X104331674Y-91170535D01*
X104286339Y-91175000D01*
X103449661Y-91175000D01*
X103404326Y-91170535D01*
X103366633Y-91159101D01*
X103331897Y-91140534D01*
X103301452Y-91115548D01*
X103276466Y-91085103D01*
X103257899Y-91050367D01*
X103246465Y-91012674D01*
X103242000Y-90967339D01*
X103242000Y-89880661D01*
X103246465Y-89835326D01*
X103257899Y-89797633D01*
X103276466Y-89762897D01*
X103301452Y-89732452D01*
X103331897Y-89707466D01*
X103366633Y-89688899D01*
X103404326Y-89677465D01*
X103449661Y-89673000D01*
X104286339Y-89673000D01*
X104331674Y-89677465D01*
G37*
G36*
X122059000Y-89039000D02*
G01*
X120257000Y-89039000D01*
X120257000Y-87237000D01*
X122059000Y-87237000D01*
X122059000Y-89039000D01*
G37*
G36*
X133997000Y-88023000D02*
G01*
X132195000Y-88023000D01*
X132195000Y-86221000D01*
X133997000Y-86221000D01*
X133997000Y-88023000D01*
G37*
G36*
X94601512Y-84955927D02*
G01*
X94750812Y-84985624D01*
X94914784Y-85053544D01*
X95062354Y-85152147D01*
X95187853Y-85277646D01*
X95286456Y-85425216D01*
X95354376Y-85589188D01*
X95389000Y-85763259D01*
X95389000Y-85940741D01*
X95354376Y-86114812D01*
X95286456Y-86278784D01*
X95187853Y-86426354D01*
X95062354Y-86551853D01*
X94914784Y-86650456D01*
X94750812Y-86718376D01*
X94601512Y-86748073D01*
X94576742Y-86753000D01*
X94399258Y-86753000D01*
X94374488Y-86748073D01*
X94225188Y-86718376D01*
X94061216Y-86650456D01*
X93913646Y-86551853D01*
X93788147Y-86426354D01*
X93689544Y-86278784D01*
X93621624Y-86114812D01*
X93587000Y-85940741D01*
X93587000Y-85763259D01*
X93621624Y-85589188D01*
X93689544Y-85425216D01*
X93788147Y-85277646D01*
X93913646Y-85152147D01*
X94061216Y-85053544D01*
X94225188Y-84985624D01*
X94374488Y-84955927D01*
X94399258Y-84951000D01*
X94576742Y-84951000D01*
X94601512Y-84955927D01*
G37*
G36*
X94590954Y-82413827D02*
G01*
X94750812Y-82445624D01*
X94914784Y-82513544D01*
X95062354Y-82612147D01*
X95187853Y-82737646D01*
X95286456Y-82885216D01*
X95354376Y-83049188D01*
X95389000Y-83223259D01*
X95389000Y-83400741D01*
X95354376Y-83574812D01*
X95286456Y-83738784D01*
X95187853Y-83886354D01*
X95062354Y-84011853D01*
X94914784Y-84110456D01*
X94750812Y-84178376D01*
X94601512Y-84208073D01*
X94576742Y-84213000D01*
X94399258Y-84213000D01*
X94374488Y-84208073D01*
X94225188Y-84178376D01*
X94061216Y-84110456D01*
X93913646Y-84011853D01*
X93788147Y-83886354D01*
X93689544Y-83738784D01*
X93621624Y-83574812D01*
X93587000Y-83400741D01*
X93587000Y-83223259D01*
X93621624Y-83049188D01*
X93689544Y-82885216D01*
X93788147Y-82737646D01*
X93913646Y-82612147D01*
X94061216Y-82513544D01*
X94225188Y-82445624D01*
X94385046Y-82413827D01*
X94399258Y-82411000D01*
X94576742Y-82411000D01*
X94590954Y-82413827D01*
G37*
G36*
X109300674Y-81438465D02*
G01*
X109338367Y-81449899D01*
X109373103Y-81468466D01*
X109403548Y-81493452D01*
X109428534Y-81523897D01*
X109447101Y-81558633D01*
X109458535Y-81596326D01*
X109463000Y-81641661D01*
X109463000Y-82478339D01*
X109458535Y-82523674D01*
X109447101Y-82561367D01*
X109428534Y-82596103D01*
X109403548Y-82626548D01*
X109373103Y-82651534D01*
X109338367Y-82670101D01*
X109300674Y-82681535D01*
X109255339Y-82686000D01*
X108168661Y-82686000D01*
X108123326Y-82681535D01*
X108085633Y-82670101D01*
X108050897Y-82651534D01*
X108020452Y-82626548D01*
X107995466Y-82596103D01*
X107976899Y-82561367D01*
X107965465Y-82523674D01*
X107961000Y-82478339D01*
X107961000Y-81641661D01*
X107965465Y-81596326D01*
X107976899Y-81558633D01*
X107995466Y-81523897D01*
X108020452Y-81493452D01*
X108050897Y-81468466D01*
X108085633Y-81449899D01*
X108123326Y-81438465D01*
X108168661Y-81434000D01*
X109255339Y-81434000D01*
X109300674Y-81438465D01*
G37*
G36*
X115904674Y-81438465D02*
G01*
X115942367Y-81449899D01*
X115977103Y-81468466D01*
X116007548Y-81493452D01*
X116032534Y-81523897D01*
X116051101Y-81558633D01*
X116062535Y-81596326D01*
X116067000Y-81641661D01*
X116067000Y-82478339D01*
X116062535Y-82523674D01*
X116051101Y-82561367D01*
X116032534Y-82596103D01*
X116007548Y-82626548D01*
X115977103Y-82651534D01*
X115942367Y-82670101D01*
X115904674Y-82681535D01*
X115859339Y-82686000D01*
X114772661Y-82686000D01*
X114727326Y-82681535D01*
X114689633Y-82670101D01*
X114654897Y-82651534D01*
X114624452Y-82626548D01*
X114599466Y-82596103D01*
X114580899Y-82561367D01*
X114569465Y-82523674D01*
X114565000Y-82478339D01*
X114565000Y-81641661D01*
X114569465Y-81596326D01*
X114580899Y-81558633D01*
X114599466Y-81523897D01*
X114624452Y-81493452D01*
X114654897Y-81468466D01*
X114689633Y-81449899D01*
X114727326Y-81438465D01*
X114772661Y-81434000D01*
X115859339Y-81434000D01*
X115904674Y-81438465D01*
G37*
G36*
X105744674Y-81429465D02*
G01*
X105782367Y-81440899D01*
X105817103Y-81459466D01*
X105847548Y-81484452D01*
X105872534Y-81514897D01*
X105891101Y-81549633D01*
X105902535Y-81587326D01*
X105907000Y-81632661D01*
X105907000Y-82469339D01*
X105902535Y-82514674D01*
X105891101Y-82552367D01*
X105872534Y-82587103D01*
X105847548Y-82617548D01*
X105817103Y-82642534D01*
X105782367Y-82661101D01*
X105744674Y-82672535D01*
X105699339Y-82677000D01*
X104612661Y-82677000D01*
X104567326Y-82672535D01*
X104529633Y-82661101D01*
X104494897Y-82642534D01*
X104464452Y-82617548D01*
X104439466Y-82587103D01*
X104420899Y-82552367D01*
X104409465Y-82514674D01*
X104405000Y-82469339D01*
X104405000Y-81632661D01*
X104409465Y-81587326D01*
X104420899Y-81549633D01*
X104439466Y-81514897D01*
X104464452Y-81484452D01*
X104494897Y-81459466D01*
X104529633Y-81440899D01*
X104567326Y-81429465D01*
X104612661Y-81425000D01*
X105699339Y-81425000D01*
X105744674Y-81429465D01*
G37*
G36*
X119460674Y-81425765D02*
G01*
X119498367Y-81437199D01*
X119533103Y-81455766D01*
X119563548Y-81480752D01*
X119588534Y-81511197D01*
X119607101Y-81545933D01*
X119618535Y-81583626D01*
X119623000Y-81628961D01*
X119623000Y-82465639D01*
X119618535Y-82510974D01*
X119607101Y-82548667D01*
X119588534Y-82583403D01*
X119563548Y-82613848D01*
X119533103Y-82638834D01*
X119498367Y-82657401D01*
X119460674Y-82668835D01*
X119415339Y-82673300D01*
X118328661Y-82673300D01*
X118283326Y-82668835D01*
X118245633Y-82657401D01*
X118210897Y-82638834D01*
X118180452Y-82613848D01*
X118155466Y-82583403D01*
X118136899Y-82548667D01*
X118125465Y-82510974D01*
X118121000Y-82465639D01*
X118121000Y-81628961D01*
X118125465Y-81583626D01*
X118136899Y-81545933D01*
X118155466Y-81511197D01*
X118180452Y-81480752D01*
X118210897Y-81455766D01*
X118245633Y-81437199D01*
X118283326Y-81425765D01*
X118328661Y-81421300D01*
X119415339Y-81421300D01*
X119460674Y-81425765D01*
G37*
G36*
X123016674Y-81420465D02*
G01*
X123054367Y-81431899D01*
X123089103Y-81450466D01*
X123119548Y-81475452D01*
X123144534Y-81505897D01*
X123163101Y-81540633D01*
X123174535Y-81578326D01*
X123179000Y-81623661D01*
X123179000Y-82460339D01*
X123174535Y-82505674D01*
X123163101Y-82543367D01*
X123144534Y-82578103D01*
X123119548Y-82608548D01*
X123089103Y-82633534D01*
X123054367Y-82652101D01*
X123016674Y-82663535D01*
X122971339Y-82668000D01*
X121884661Y-82668000D01*
X121839326Y-82663535D01*
X121801633Y-82652101D01*
X121766897Y-82633534D01*
X121736452Y-82608548D01*
X121711466Y-82578103D01*
X121692899Y-82543367D01*
X121681465Y-82505674D01*
X121677000Y-82460339D01*
X121677000Y-81623661D01*
X121681465Y-81578326D01*
X121692899Y-81540633D01*
X121711466Y-81505897D01*
X121736452Y-81475452D01*
X121766897Y-81450466D01*
X121801633Y-81431899D01*
X121839326Y-81420465D01*
X121884661Y-81416000D01*
X122971339Y-81416000D01*
X123016674Y-81420465D01*
G37*
G36*
X112378499Y-81329445D02*
G01*
X112415995Y-81340820D01*
X112450554Y-81359292D01*
X112480847Y-81384153D01*
X112505708Y-81414446D01*
X112524180Y-81449005D01*
X112535555Y-81486501D01*
X112540000Y-81531638D01*
X112540000Y-82270362D01*
X112535555Y-82315499D01*
X112524180Y-82352995D01*
X112505708Y-82387554D01*
X112480847Y-82417847D01*
X112450554Y-82442708D01*
X112415995Y-82461180D01*
X112378499Y-82472555D01*
X112333362Y-82477000D01*
X111694638Y-82477000D01*
X111649501Y-82472555D01*
X111612005Y-82461180D01*
X111577446Y-82442708D01*
X111547153Y-82417847D01*
X111522292Y-82387554D01*
X111503820Y-82352995D01*
X111492445Y-82315499D01*
X111488000Y-82270362D01*
X111488000Y-81531638D01*
X111492445Y-81486501D01*
X111503820Y-81449005D01*
X111522292Y-81414446D01*
X111547153Y-81384153D01*
X111577446Y-81359292D01*
X111612005Y-81340820D01*
X111649501Y-81329445D01*
X111694638Y-81325000D01*
X112333362Y-81325000D01*
X112378499Y-81329445D01*
G37*
G36*
X133997000Y-81927000D02*
G01*
X132195000Y-81927000D01*
X132195000Y-80125000D01*
X133997000Y-80125000D01*
X133997000Y-81927000D01*
G37*
G36*
X95389000Y-81673000D02*
G01*
X93587000Y-81673000D01*
X93587000Y-79871000D01*
X95389000Y-79871000D01*
X95389000Y-81673000D01*
G37*
G36*
X112378499Y-79579445D02*
G01*
X112415995Y-79590820D01*
X112450554Y-79609292D01*
X112480847Y-79634153D01*
X112505708Y-79664446D01*
X112524180Y-79699005D01*
X112535555Y-79736501D01*
X112540000Y-79781638D01*
X112540000Y-80520362D01*
X112535555Y-80565499D01*
X112524180Y-80602995D01*
X112505708Y-80637554D01*
X112480847Y-80667847D01*
X112450554Y-80692708D01*
X112415995Y-80711180D01*
X112378499Y-80722555D01*
X112333362Y-80727000D01*
X111694638Y-80727000D01*
X111649501Y-80722555D01*
X111612005Y-80711180D01*
X111577446Y-80692708D01*
X111547153Y-80667847D01*
X111522292Y-80637554D01*
X111503820Y-80602995D01*
X111492445Y-80565499D01*
X111488000Y-80520362D01*
X111488000Y-79781638D01*
X111492445Y-79736501D01*
X111503820Y-79699005D01*
X111522292Y-79664446D01*
X111547153Y-79634153D01*
X111577446Y-79609292D01*
X111612005Y-79590820D01*
X111649501Y-79579445D01*
X111694638Y-79575000D01*
X112333362Y-79575000D01*
X112378499Y-79579445D01*
G37*
G36*
X109300674Y-79388465D02*
G01*
X109338367Y-79399899D01*
X109373103Y-79418466D01*
X109403548Y-79443452D01*
X109428534Y-79473897D01*
X109447101Y-79508633D01*
X109458535Y-79546326D01*
X109463000Y-79591661D01*
X109463000Y-80428339D01*
X109458535Y-80473674D01*
X109447101Y-80511367D01*
X109428534Y-80546103D01*
X109403548Y-80576548D01*
X109373103Y-80601534D01*
X109338367Y-80620101D01*
X109300674Y-80631535D01*
X109255339Y-80636000D01*
X108168661Y-80636000D01*
X108123326Y-80631535D01*
X108085633Y-80620101D01*
X108050897Y-80601534D01*
X108020452Y-80576548D01*
X107995466Y-80546103D01*
X107976899Y-80511367D01*
X107965465Y-80473674D01*
X107961000Y-80428339D01*
X107961000Y-79591661D01*
X107965465Y-79546326D01*
X107976899Y-79508633D01*
X107995466Y-79473897D01*
X108020452Y-79443452D01*
X108050897Y-79418466D01*
X108085633Y-79399899D01*
X108123326Y-79388465D01*
X108168661Y-79384000D01*
X109255339Y-79384000D01*
X109300674Y-79388465D01*
G37*
G36*
X115904674Y-79388465D02*
G01*
X115942367Y-79399899D01*
X115977103Y-79418466D01*
X116007548Y-79443452D01*
X116032534Y-79473897D01*
X116051101Y-79508633D01*
X116062535Y-79546326D01*
X116067000Y-79591661D01*
X116067000Y-80428339D01*
X116062535Y-80473674D01*
X116051101Y-80511367D01*
X116032534Y-80546103D01*
X116007548Y-80576548D01*
X115977103Y-80601534D01*
X115942367Y-80620101D01*
X115904674Y-80631535D01*
X115859339Y-80636000D01*
X114772661Y-80636000D01*
X114727326Y-80631535D01*
X114689633Y-80620101D01*
X114654897Y-80601534D01*
X114624452Y-80576548D01*
X114599466Y-80546103D01*
X114580899Y-80511367D01*
X114569465Y-80473674D01*
X114565000Y-80428339D01*
X114565000Y-79591661D01*
X114569465Y-79546326D01*
X114580899Y-79508633D01*
X114599466Y-79473897D01*
X114624452Y-79443452D01*
X114654897Y-79418466D01*
X114689633Y-79399899D01*
X114727326Y-79388465D01*
X114772661Y-79384000D01*
X115859339Y-79384000D01*
X115904674Y-79388465D01*
G37*
G36*
X105744674Y-79379465D02*
G01*
X105782367Y-79390899D01*
X105817103Y-79409466D01*
X105847548Y-79434452D01*
X105872534Y-79464897D01*
X105891101Y-79499633D01*
X105902535Y-79537326D01*
X105907000Y-79582661D01*
X105907000Y-80419339D01*
X105902535Y-80464674D01*
X105891101Y-80502367D01*
X105872534Y-80537103D01*
X105847548Y-80567548D01*
X105817103Y-80592534D01*
X105782367Y-80611101D01*
X105744674Y-80622535D01*
X105699339Y-80627000D01*
X104612661Y-80627000D01*
X104567326Y-80622535D01*
X104529633Y-80611101D01*
X104494897Y-80592534D01*
X104464452Y-80567548D01*
X104439466Y-80537103D01*
X104420899Y-80502367D01*
X104409465Y-80464674D01*
X104405000Y-80419339D01*
X104405000Y-79582661D01*
X104409465Y-79537326D01*
X104420899Y-79499633D01*
X104439466Y-79464897D01*
X104464452Y-79434452D01*
X104494897Y-79409466D01*
X104529633Y-79390899D01*
X104567326Y-79379465D01*
X104612661Y-79375000D01*
X105699339Y-79375000D01*
X105744674Y-79379465D01*
G37*
G36*
X119460674Y-79375765D02*
G01*
X119498367Y-79387199D01*
X119533103Y-79405766D01*
X119563548Y-79430752D01*
X119588534Y-79461197D01*
X119607101Y-79495933D01*
X119618535Y-79533626D01*
X119623000Y-79578961D01*
X119623000Y-80415639D01*
X119618535Y-80460974D01*
X119607101Y-80498667D01*
X119588534Y-80533403D01*
X119563548Y-80563848D01*
X119533103Y-80588834D01*
X119498367Y-80607401D01*
X119460674Y-80618835D01*
X119415339Y-80623300D01*
X118328661Y-80623300D01*
X118283326Y-80618835D01*
X118245633Y-80607401D01*
X118210897Y-80588834D01*
X118180452Y-80563848D01*
X118155466Y-80533403D01*
X118136899Y-80498667D01*
X118125465Y-80460974D01*
X118121000Y-80415639D01*
X118121000Y-79578961D01*
X118125465Y-79533626D01*
X118136899Y-79495933D01*
X118155466Y-79461197D01*
X118180452Y-79430752D01*
X118210897Y-79405766D01*
X118245633Y-79387199D01*
X118283326Y-79375765D01*
X118328661Y-79371300D01*
X119415339Y-79371300D01*
X119460674Y-79375765D01*
G37*
G36*
X123016674Y-79370465D02*
G01*
X123054367Y-79381899D01*
X123089103Y-79400466D01*
X123119548Y-79425452D01*
X123144534Y-79455897D01*
X123163101Y-79490633D01*
X123174535Y-79528326D01*
X123179000Y-79573661D01*
X123179000Y-80410339D01*
X123174535Y-80455674D01*
X123163101Y-80493367D01*
X123144534Y-80528103D01*
X123119548Y-80558548D01*
X123089103Y-80583534D01*
X123054367Y-80602101D01*
X123016674Y-80613535D01*
X122971339Y-80618000D01*
X121884661Y-80618000D01*
X121839326Y-80613535D01*
X121801633Y-80602101D01*
X121766897Y-80583534D01*
X121736452Y-80558548D01*
X121711466Y-80528103D01*
X121692899Y-80493367D01*
X121681465Y-80455674D01*
X121677000Y-80410339D01*
X121677000Y-79573661D01*
X121681465Y-79528326D01*
X121692899Y-79490633D01*
X121711466Y-79455897D01*
X121736452Y-79425452D01*
X121766897Y-79400466D01*
X121801633Y-79381899D01*
X121839326Y-79370465D01*
X121884661Y-79366000D01*
X122971339Y-79366000D01*
X123016674Y-79370465D01*
G37*
G36*
X122374674Y-75961465D02*
G01*
X122412367Y-75972899D01*
X122447103Y-75991466D01*
X122477548Y-76016452D01*
X122502534Y-76046897D01*
X122521101Y-76081633D01*
X122532535Y-76119326D01*
X122537000Y-76164661D01*
X122537000Y-77251339D01*
X122532535Y-77296674D01*
X122521101Y-77334367D01*
X122502534Y-77369103D01*
X122477548Y-77399548D01*
X122447103Y-77424534D01*
X122412367Y-77443101D01*
X122374674Y-77454535D01*
X122329339Y-77459000D01*
X121492661Y-77459000D01*
X121447326Y-77454535D01*
X121409633Y-77443101D01*
X121374897Y-77424534D01*
X121344452Y-77399548D01*
X121319466Y-77369103D01*
X121300899Y-77334367D01*
X121289465Y-77296674D01*
X121285000Y-77251339D01*
X121285000Y-76164661D01*
X121289465Y-76119326D01*
X121300899Y-76081633D01*
X121319466Y-76046897D01*
X121344452Y-76016452D01*
X121374897Y-75991466D01*
X121409633Y-75972899D01*
X121447326Y-75961465D01*
X121492661Y-75957000D01*
X122329339Y-75957000D01*
X122374674Y-75961465D01*
G37*
G36*
X124424674Y-75961465D02*
G01*
X124462367Y-75972899D01*
X124497103Y-75991466D01*
X124527548Y-76016452D01*
X124552534Y-76046897D01*
X124571101Y-76081633D01*
X124582535Y-76119326D01*
X124587000Y-76164661D01*
X124587000Y-77251339D01*
X124582535Y-77296674D01*
X124571101Y-77334367D01*
X124552534Y-77369103D01*
X124527548Y-77399548D01*
X124497103Y-77424534D01*
X124462367Y-77443101D01*
X124424674Y-77454535D01*
X124379339Y-77459000D01*
X123542661Y-77459000D01*
X123497326Y-77454535D01*
X123459633Y-77443101D01*
X123424897Y-77424534D01*
X123394452Y-77399548D01*
X123369466Y-77369103D01*
X123350899Y-77334367D01*
X123339465Y-77296674D01*
X123335000Y-77251339D01*
X123335000Y-76164661D01*
X123339465Y-76119326D01*
X123350899Y-76081633D01*
X123369466Y-76046897D01*
X123394452Y-76016452D01*
X123424897Y-75991466D01*
X123459633Y-75972899D01*
X123497326Y-75961465D01*
X123542661Y-75957000D01*
X124379339Y-75957000D01*
X124424674Y-75961465D01*
G37*
G36*
X123524674Y-72784465D02*
G01*
X123562367Y-72795899D01*
X123597103Y-72814466D01*
X123627548Y-72839452D01*
X123652534Y-72869897D01*
X123671101Y-72904633D01*
X123682535Y-72942326D01*
X123687000Y-72987661D01*
X123687000Y-73824339D01*
X123682535Y-73869674D01*
X123671101Y-73907367D01*
X123652534Y-73942103D01*
X123627548Y-73972548D01*
X123597103Y-73997534D01*
X123562367Y-74016101D01*
X123524674Y-74027535D01*
X123479339Y-74032000D01*
X122392661Y-74032000D01*
X122347326Y-74027535D01*
X122309633Y-74016101D01*
X122274897Y-73997534D01*
X122244452Y-73972548D01*
X122219466Y-73942103D01*
X122200899Y-73907367D01*
X122189465Y-73869674D01*
X122185000Y-73824339D01*
X122185000Y-72987661D01*
X122189465Y-72942326D01*
X122200899Y-72904633D01*
X122219466Y-72869897D01*
X122244452Y-72839452D01*
X122274897Y-72814466D01*
X122309633Y-72795899D01*
X122347326Y-72784465D01*
X122392661Y-72780000D01*
X123479339Y-72780000D01*
X123524674Y-72784465D01*
G37*
G36*
X115649863Y-69391584D02*
G01*
X115685866Y-69402505D01*
X115719047Y-69420241D01*
X115748131Y-69444109D01*
X115771999Y-69473193D01*
X115789735Y-69506374D01*
X115800656Y-69542377D01*
X115803420Y-69570439D01*
X115803420Y-70159201D01*
X115800656Y-70187263D01*
X115789735Y-70223266D01*
X115777220Y-70246679D01*
X115772422Y-70255655D01*
X115763044Y-70278294D01*
X115758264Y-70302327D01*
X115758264Y-70326831D01*
X115763044Y-70350864D01*
X115772422Y-70373503D01*
X115786035Y-70393878D01*
X115803362Y-70411205D01*
X115823737Y-70424818D01*
X115846376Y-70434196D01*
X115870409Y-70438976D01*
X115894913Y-70438976D01*
X115918946Y-70434196D01*
X115941582Y-70424819D01*
X115973974Y-70407505D01*
X116009977Y-70396584D01*
X116038039Y-70393820D01*
X116626801Y-70393820D01*
X116654863Y-70396584D01*
X116690866Y-70407505D01*
X116724047Y-70425241D01*
X116753131Y-70449109D01*
X116776999Y-70478193D01*
X116794735Y-70511374D01*
X116805656Y-70547377D01*
X116809344Y-70584820D01*
X116805656Y-70622263D01*
X116794735Y-70658266D01*
X116776999Y-70691447D01*
X116753131Y-70720531D01*
X116731597Y-70738203D01*
X116714278Y-70755524D01*
X116700664Y-70775898D01*
X116691288Y-70798537D01*
X116686508Y-70822571D01*
X116686508Y-70847075D01*
X116691289Y-70871108D01*
X116700667Y-70893747D01*
X116714281Y-70914121D01*
X116731597Y-70931437D01*
X116753131Y-70949109D01*
X116776999Y-70978193D01*
X116794735Y-71011374D01*
X116805656Y-71047377D01*
X116809344Y-71084820D01*
X116805656Y-71122263D01*
X116794735Y-71158266D01*
X116776999Y-71191447D01*
X116753131Y-71220531D01*
X116731597Y-71238203D01*
X116714278Y-71255524D01*
X116700664Y-71275898D01*
X116691288Y-71298537D01*
X116686508Y-71322571D01*
X116686508Y-71347075D01*
X116691289Y-71371108D01*
X116700667Y-71393747D01*
X116714281Y-71414121D01*
X116731597Y-71431437D01*
X116753131Y-71449109D01*
X116776999Y-71478193D01*
X116794735Y-71511374D01*
X116805656Y-71547377D01*
X116809344Y-71584820D01*
X116805656Y-71622263D01*
X116794735Y-71658266D01*
X116776999Y-71691447D01*
X116753131Y-71720531D01*
X116731597Y-71738203D01*
X116714278Y-71755524D01*
X116700664Y-71775898D01*
X116691288Y-71798537D01*
X116686508Y-71822571D01*
X116686508Y-71847075D01*
X116691289Y-71871108D01*
X116700667Y-71893747D01*
X116714281Y-71914121D01*
X116731597Y-71931437D01*
X116753131Y-71949109D01*
X116776999Y-71978193D01*
X116794735Y-72011374D01*
X116805656Y-72047377D01*
X116809344Y-72084820D01*
X116805656Y-72122263D01*
X116794735Y-72158266D01*
X116776999Y-72191447D01*
X116753131Y-72220531D01*
X116731597Y-72238203D01*
X116714278Y-72255524D01*
X116700664Y-72275898D01*
X116691288Y-72298537D01*
X116686508Y-72322571D01*
X116686508Y-72347075D01*
X116691289Y-72371108D01*
X116700667Y-72393747D01*
X116714281Y-72414121D01*
X116731597Y-72431437D01*
X116753131Y-72449109D01*
X116776999Y-72478193D01*
X116794735Y-72511374D01*
X116805656Y-72547377D01*
X116809344Y-72584820D01*
X116805656Y-72622263D01*
X116794735Y-72658266D01*
X116776999Y-72691447D01*
X116753131Y-72720531D01*
X116724047Y-72744399D01*
X116690866Y-72762135D01*
X116654863Y-72773056D01*
X116626801Y-72775820D01*
X116038039Y-72775820D01*
X116009977Y-72773056D01*
X115973974Y-72762135D01*
X115941582Y-72744821D01*
X115918946Y-72735444D01*
X115894913Y-72730664D01*
X115870409Y-72730664D01*
X115846376Y-72735444D01*
X115823737Y-72744822D01*
X115803362Y-72758435D01*
X115786035Y-72775762D01*
X115772422Y-72796137D01*
X115763044Y-72818776D01*
X115758264Y-72842809D01*
X115758264Y-72867313D01*
X115763044Y-72891346D01*
X115772421Y-72913982D01*
X115789735Y-72946374D01*
X115800656Y-72982377D01*
X115803420Y-73010439D01*
X115803420Y-73599201D01*
X115800656Y-73627263D01*
X115789735Y-73663266D01*
X115771999Y-73696447D01*
X115748131Y-73725531D01*
X115719046Y-73749399D01*
X115685865Y-73767135D01*
X115649862Y-73778056D01*
X115612420Y-73781744D01*
X115574977Y-73778056D01*
X115538974Y-73767135D01*
X115505793Y-73749399D01*
X115476709Y-73725531D01*
X115459040Y-73704000D01*
X115441718Y-73686678D01*
X115421343Y-73673064D01*
X115398705Y-73663687D01*
X115374671Y-73658907D01*
X115350167Y-73658907D01*
X115326134Y-73663688D01*
X115303495Y-73673065D01*
X115283121Y-73686679D01*
X115265803Y-73703997D01*
X115248131Y-73725531D01*
X115219047Y-73749399D01*
X115185866Y-73767135D01*
X115149863Y-73778056D01*
X115112420Y-73781744D01*
X115074978Y-73778056D01*
X115038975Y-73767135D01*
X115005794Y-73749399D01*
X114976710Y-73725531D01*
X114959038Y-73703997D01*
X114941719Y-73686678D01*
X114921344Y-73673064D01*
X114898706Y-73663687D01*
X114874672Y-73658907D01*
X114850168Y-73658907D01*
X114826135Y-73663688D01*
X114803496Y-73673065D01*
X114783122Y-73686679D01*
X114765803Y-73703997D01*
X114748131Y-73725531D01*
X114719047Y-73749399D01*
X114685866Y-73767135D01*
X114649863Y-73778056D01*
X114612420Y-73781744D01*
X114574978Y-73778056D01*
X114538975Y-73767135D01*
X114505794Y-73749399D01*
X114476710Y-73725531D01*
X114459038Y-73703997D01*
X114441719Y-73686678D01*
X114421344Y-73673064D01*
X114398706Y-73663687D01*
X114374672Y-73658907D01*
X114350168Y-73658907D01*
X114326135Y-73663688D01*
X114303496Y-73673065D01*
X114283122Y-73686679D01*
X114265803Y-73703997D01*
X114248131Y-73725531D01*
X114219047Y-73749399D01*
X114185866Y-73767135D01*
X114149863Y-73778056D01*
X114112420Y-73781744D01*
X114074978Y-73778056D01*
X114038975Y-73767135D01*
X114005794Y-73749399D01*
X113976710Y-73725531D01*
X113959038Y-73703997D01*
X113941719Y-73686678D01*
X113921344Y-73673064D01*
X113898706Y-73663687D01*
X113874672Y-73658907D01*
X113850168Y-73658907D01*
X113826135Y-73663688D01*
X113803496Y-73673065D01*
X113783122Y-73686679D01*
X113765803Y-73703997D01*
X113748131Y-73725531D01*
X113719047Y-73749399D01*
X113685866Y-73767135D01*
X113649863Y-73778056D01*
X113612420Y-73781744D01*
X113574978Y-73778056D01*
X113538975Y-73767135D01*
X113505794Y-73749399D01*
X113476710Y-73725531D01*
X113452842Y-73696447D01*
X113435106Y-73663266D01*
X113424185Y-73627263D01*
X113421421Y-73599201D01*
X113421420Y-73010440D01*
X113424184Y-72982378D01*
X113435105Y-72946375D01*
X113452424Y-72913975D01*
X113461796Y-72891347D01*
X113466577Y-72867314D01*
X113466577Y-72842810D01*
X113461797Y-72818777D01*
X113452420Y-72796138D01*
X113445526Y-72785819D01*
X113700400Y-72785819D01*
X113702802Y-72810205D01*
X113709915Y-72833654D01*
X113721466Y-72855265D01*
X113746090Y-72882434D01*
X113748131Y-72884109D01*
X113765803Y-72905643D01*
X113783122Y-72922962D01*
X113803497Y-72936576D01*
X113826135Y-72945953D01*
X113850169Y-72950733D01*
X113874673Y-72950733D01*
X113898706Y-72945952D01*
X113921345Y-72936575D01*
X113941719Y-72922961D01*
X113959040Y-72905640D01*
X113976709Y-72884109D01*
X113978755Y-72882430D01*
X113996068Y-72865115D01*
X114009682Y-72844741D01*
X114019058Y-72822102D01*
X114023838Y-72798068D01*
X114023838Y-72785819D01*
X114200400Y-72785819D01*
X114202802Y-72810205D01*
X114209915Y-72833654D01*
X114221466Y-72855265D01*
X114246090Y-72882434D01*
X114248131Y-72884109D01*
X114265803Y-72905643D01*
X114283122Y-72922962D01*
X114303497Y-72936576D01*
X114326135Y-72945953D01*
X114350169Y-72950733D01*
X114374673Y-72950733D01*
X114398706Y-72945952D01*
X114421345Y-72936575D01*
X114441719Y-72922961D01*
X114459040Y-72905640D01*
X114476709Y-72884109D01*
X114478755Y-72882430D01*
X114496068Y-72865115D01*
X114509682Y-72844741D01*
X114519058Y-72822102D01*
X114523838Y-72798068D01*
X114523838Y-72785819D01*
X114700400Y-72785819D01*
X114702802Y-72810205D01*
X114709915Y-72833654D01*
X114721466Y-72855265D01*
X114746090Y-72882434D01*
X114748131Y-72884109D01*
X114765803Y-72905643D01*
X114783122Y-72922962D01*
X114803497Y-72936576D01*
X114826135Y-72945953D01*
X114850169Y-72950733D01*
X114874673Y-72950733D01*
X114898706Y-72945952D01*
X114921345Y-72936575D01*
X114941719Y-72922961D01*
X114959040Y-72905640D01*
X114976709Y-72884109D01*
X114978755Y-72882430D01*
X114996068Y-72865115D01*
X115009682Y-72844741D01*
X115019058Y-72822102D01*
X115023838Y-72798068D01*
X115023838Y-72785819D01*
X115200400Y-72785819D01*
X115202802Y-72810205D01*
X115209915Y-72833654D01*
X115221466Y-72855265D01*
X115246090Y-72882434D01*
X115248131Y-72884109D01*
X115265803Y-72905643D01*
X115283125Y-72922964D01*
X115303500Y-72936577D01*
X115326139Y-72945953D01*
X115350172Y-72950733D01*
X115374676Y-72950733D01*
X115398709Y-72945952D01*
X115421348Y-72936574D01*
X115441722Y-72922960D01*
X115459038Y-72905643D01*
X115476710Y-72884109D01*
X115478756Y-72882430D01*
X115496069Y-72865115D01*
X115509683Y-72844741D01*
X115519059Y-72822102D01*
X115523839Y-72798068D01*
X115523839Y-72773564D01*
X115519058Y-72749531D01*
X115509680Y-72726892D01*
X115496066Y-72706518D01*
X115478738Y-72689192D01*
X115458364Y-72675578D01*
X115435725Y-72666202D01*
X115399442Y-72660820D01*
X115325399Y-72660820D01*
X115301013Y-72663222D01*
X115277564Y-72670335D01*
X115255953Y-72681886D01*
X115237011Y-72697431D01*
X115221466Y-72716373D01*
X115209915Y-72737984D01*
X115202802Y-72761433D01*
X115200400Y-72785819D01*
X115023838Y-72785819D01*
X115023838Y-72773564D01*
X115019057Y-72749531D01*
X115009679Y-72726892D01*
X114996065Y-72706518D01*
X114978737Y-72689192D01*
X114958363Y-72675578D01*
X114935724Y-72666202D01*
X114899441Y-72660820D01*
X114825399Y-72660820D01*
X114801013Y-72663222D01*
X114777564Y-72670335D01*
X114755953Y-72681886D01*
X114737011Y-72697431D01*
X114721466Y-72716373D01*
X114709915Y-72737984D01*
X114702802Y-72761433D01*
X114700400Y-72785819D01*
X114523838Y-72785819D01*
X114523838Y-72773564D01*
X114519057Y-72749531D01*
X114509679Y-72726892D01*
X114496065Y-72706518D01*
X114478737Y-72689192D01*
X114458363Y-72675578D01*
X114435724Y-72666202D01*
X114399441Y-72660820D01*
X114325399Y-72660820D01*
X114301013Y-72663222D01*
X114277564Y-72670335D01*
X114255953Y-72681886D01*
X114237011Y-72697431D01*
X114221466Y-72716373D01*
X114209915Y-72737984D01*
X114202802Y-72761433D01*
X114200400Y-72785819D01*
X114023838Y-72785819D01*
X114023838Y-72773564D01*
X114019057Y-72749531D01*
X114009679Y-72726892D01*
X113996065Y-72706518D01*
X113978737Y-72689192D01*
X113958363Y-72675578D01*
X113935724Y-72666202D01*
X113899441Y-72660820D01*
X113825399Y-72660820D01*
X113801013Y-72663222D01*
X113777564Y-72670335D01*
X113755953Y-72681886D01*
X113737011Y-72697431D01*
X113721466Y-72716373D01*
X113709915Y-72737984D01*
X113702802Y-72761433D01*
X113700400Y-72785819D01*
X113445526Y-72785819D01*
X113438806Y-72775763D01*
X113421479Y-72758436D01*
X113401105Y-72744822D01*
X113378466Y-72735445D01*
X113354433Y-72730664D01*
X113329929Y-72730664D01*
X113305896Y-72735444D01*
X113283259Y-72744820D01*
X113250866Y-72762135D01*
X113214863Y-72773056D01*
X113186801Y-72775820D01*
X112598039Y-72775820D01*
X112569977Y-72773056D01*
X112533974Y-72762135D01*
X112500793Y-72744399D01*
X112471709Y-72720531D01*
X112447841Y-72691447D01*
X112430105Y-72658266D01*
X112419184Y-72622263D01*
X112415496Y-72584820D01*
X112419184Y-72547377D01*
X112430105Y-72511374D01*
X112447841Y-72478193D01*
X112471709Y-72449109D01*
X112493243Y-72431437D01*
X112510562Y-72414116D01*
X112524176Y-72393742D01*
X112533552Y-72371103D01*
X112538332Y-72347069D01*
X112538332Y-72322571D01*
X113246508Y-72322571D01*
X113246508Y-72347075D01*
X113251289Y-72371108D01*
X113260667Y-72393747D01*
X113274281Y-72414121D01*
X113291597Y-72431437D01*
X113313131Y-72449109D01*
X113314810Y-72451155D01*
X113332125Y-72468468D01*
X113352499Y-72482082D01*
X113375138Y-72491458D01*
X113399172Y-72496238D01*
X113423676Y-72496238D01*
X113447709Y-72491457D01*
X113470348Y-72482079D01*
X113490722Y-72468465D01*
X113508048Y-72451137D01*
X113521662Y-72430763D01*
X113531038Y-72408124D01*
X113536420Y-72371841D01*
X113536420Y-72297799D01*
X115688420Y-72297799D01*
X115688420Y-72371841D01*
X115690822Y-72396227D01*
X115697935Y-72419676D01*
X115709486Y-72441287D01*
X115725031Y-72460229D01*
X115743973Y-72475774D01*
X115765584Y-72487325D01*
X115789033Y-72494438D01*
X115813419Y-72496840D01*
X115837805Y-72494438D01*
X115861254Y-72487325D01*
X115882865Y-72475774D01*
X115910034Y-72451150D01*
X115911709Y-72449109D01*
X115933243Y-72431437D01*
X115950562Y-72414116D01*
X115964176Y-72393742D01*
X115973552Y-72371103D01*
X115978332Y-72347069D01*
X115978332Y-72322565D01*
X115973551Y-72298532D01*
X115964173Y-72275893D01*
X115950559Y-72255519D01*
X115933243Y-72238203D01*
X115911709Y-72220531D01*
X115910030Y-72218485D01*
X115892715Y-72201172D01*
X115872341Y-72187558D01*
X115849702Y-72178182D01*
X115825668Y-72173402D01*
X115801164Y-72173402D01*
X115777131Y-72178183D01*
X115754492Y-72187561D01*
X115734118Y-72201175D01*
X115716792Y-72218503D01*
X115703178Y-72238877D01*
X115693802Y-72261516D01*
X115688420Y-72297799D01*
X113536420Y-72297799D01*
X113534018Y-72273413D01*
X113526905Y-72249964D01*
X113515354Y-72228353D01*
X113499809Y-72209411D01*
X113480867Y-72193866D01*
X113459256Y-72182315D01*
X113435807Y-72175202D01*
X113411421Y-72172800D01*
X113387035Y-72175202D01*
X113363586Y-72182315D01*
X113341975Y-72193866D01*
X113314806Y-72218490D01*
X113313131Y-72220531D01*
X113291597Y-72238203D01*
X113274278Y-72255524D01*
X113260664Y-72275898D01*
X113251288Y-72298537D01*
X113246508Y-72322571D01*
X112538332Y-72322571D01*
X112538332Y-72322565D01*
X112533551Y-72298532D01*
X112524173Y-72275893D01*
X112510559Y-72255519D01*
X112493243Y-72238203D01*
X112471709Y-72220531D01*
X112447841Y-72191447D01*
X112430105Y-72158266D01*
X112419184Y-72122263D01*
X112415496Y-72084820D01*
X112419184Y-72047377D01*
X112430105Y-72011374D01*
X112447841Y-71978193D01*
X112471709Y-71949109D01*
X112493243Y-71931437D01*
X112510562Y-71914116D01*
X112524176Y-71893742D01*
X112533552Y-71871103D01*
X112538332Y-71847069D01*
X112538332Y-71822571D01*
X113246508Y-71822571D01*
X113246508Y-71847075D01*
X113251289Y-71871108D01*
X113260667Y-71893747D01*
X113274281Y-71914121D01*
X113291597Y-71931437D01*
X113313131Y-71949109D01*
X113314810Y-71951155D01*
X113332125Y-71968468D01*
X113352499Y-71982082D01*
X113375138Y-71991458D01*
X113399172Y-71996238D01*
X113423676Y-71996238D01*
X113447709Y-71991457D01*
X113470348Y-71982079D01*
X113490722Y-71968465D01*
X113508048Y-71951137D01*
X113521662Y-71930763D01*
X113531038Y-71908124D01*
X113536420Y-71871841D01*
X113536420Y-71797799D01*
X115688420Y-71797799D01*
X115688420Y-71871841D01*
X115690822Y-71896227D01*
X115697935Y-71919676D01*
X115709486Y-71941287D01*
X115725031Y-71960229D01*
X115743973Y-71975774D01*
X115765584Y-71987325D01*
X115789033Y-71994438D01*
X115813419Y-71996840D01*
X115837805Y-71994438D01*
X115861254Y-71987325D01*
X115882865Y-71975774D01*
X115910034Y-71951150D01*
X115911709Y-71949109D01*
X115933243Y-71931437D01*
X115950562Y-71914116D01*
X115964176Y-71893742D01*
X115973552Y-71871103D01*
X115978332Y-71847069D01*
X115978332Y-71822565D01*
X115973551Y-71798532D01*
X115964173Y-71775893D01*
X115950559Y-71755519D01*
X115933243Y-71738203D01*
X115911709Y-71720531D01*
X115910030Y-71718485D01*
X115892715Y-71701172D01*
X115872341Y-71687558D01*
X115849702Y-71678182D01*
X115825668Y-71673402D01*
X115801164Y-71673402D01*
X115777131Y-71678183D01*
X115754492Y-71687561D01*
X115734118Y-71701175D01*
X115716792Y-71718503D01*
X115703178Y-71738877D01*
X115693802Y-71761516D01*
X115688420Y-71797799D01*
X113536420Y-71797799D01*
X113534018Y-71773413D01*
X113526905Y-71749964D01*
X113515354Y-71728353D01*
X113499809Y-71709411D01*
X113480867Y-71693866D01*
X113459256Y-71682315D01*
X113435807Y-71675202D01*
X113411421Y-71672800D01*
X113387035Y-71675202D01*
X113363586Y-71682315D01*
X113341975Y-71693866D01*
X113314806Y-71718490D01*
X113313131Y-71720531D01*
X113291597Y-71738203D01*
X113274278Y-71755524D01*
X113260664Y-71775898D01*
X113251288Y-71798537D01*
X113246508Y-71822571D01*
X112538332Y-71822571D01*
X112538332Y-71822565D01*
X112533551Y-71798532D01*
X112524173Y-71775893D01*
X112510559Y-71755519D01*
X112493243Y-71738203D01*
X112471709Y-71720531D01*
X112447841Y-71691447D01*
X112430105Y-71658266D01*
X112419184Y-71622263D01*
X112415496Y-71584820D01*
X112419184Y-71547377D01*
X112430105Y-71511374D01*
X112447841Y-71478193D01*
X112471709Y-71449109D01*
X112493243Y-71431437D01*
X112510562Y-71414116D01*
X112524176Y-71393742D01*
X112533552Y-71371103D01*
X112538332Y-71347069D01*
X112538332Y-71322571D01*
X113246508Y-71322571D01*
X113246508Y-71347075D01*
X113251289Y-71371108D01*
X113260667Y-71393747D01*
X113274281Y-71414121D01*
X113291597Y-71431437D01*
X113313131Y-71449109D01*
X113314810Y-71451155D01*
X113332125Y-71468468D01*
X113352499Y-71482082D01*
X113375138Y-71491458D01*
X113399172Y-71496238D01*
X113423676Y-71496238D01*
X113447709Y-71491457D01*
X113470348Y-71482079D01*
X113490722Y-71468465D01*
X113508048Y-71451137D01*
X113521662Y-71430763D01*
X113531038Y-71408124D01*
X113536420Y-71371841D01*
X113536420Y-71297799D01*
X115688420Y-71297799D01*
X115688420Y-71371841D01*
X115690822Y-71396227D01*
X115697935Y-71419676D01*
X115709486Y-71441287D01*
X115725031Y-71460229D01*
X115743973Y-71475774D01*
X115765584Y-71487325D01*
X115789033Y-71494438D01*
X115813419Y-71496840D01*
X115837805Y-71494438D01*
X115861254Y-71487325D01*
X115882865Y-71475774D01*
X115910034Y-71451150D01*
X115911709Y-71449109D01*
X115933243Y-71431437D01*
X115950562Y-71414116D01*
X115964176Y-71393742D01*
X115973552Y-71371103D01*
X115978332Y-71347069D01*
X115978332Y-71322565D01*
X115973551Y-71298532D01*
X115964173Y-71275893D01*
X115950559Y-71255519D01*
X115933243Y-71238203D01*
X115911709Y-71220531D01*
X115910030Y-71218485D01*
X115892715Y-71201172D01*
X115872341Y-71187558D01*
X115849702Y-71178182D01*
X115825668Y-71173402D01*
X115801164Y-71173402D01*
X115777131Y-71178183D01*
X115754492Y-71187561D01*
X115734118Y-71201175D01*
X115716792Y-71218503D01*
X115703178Y-71238877D01*
X115693802Y-71261516D01*
X115688420Y-71297799D01*
X113536420Y-71297799D01*
X113534018Y-71273413D01*
X113526905Y-71249964D01*
X113515354Y-71228353D01*
X113499809Y-71209411D01*
X113480867Y-71193866D01*
X113459256Y-71182315D01*
X113435807Y-71175202D01*
X113411421Y-71172800D01*
X113387035Y-71175202D01*
X113363586Y-71182315D01*
X113341975Y-71193866D01*
X113314806Y-71218490D01*
X113313131Y-71220531D01*
X113291597Y-71238203D01*
X113274278Y-71255524D01*
X113260664Y-71275898D01*
X113251288Y-71298537D01*
X113246508Y-71322571D01*
X112538332Y-71322571D01*
X112538332Y-71322565D01*
X112533551Y-71298532D01*
X112524173Y-71275893D01*
X112510559Y-71255519D01*
X112493243Y-71238203D01*
X112471709Y-71220531D01*
X112447841Y-71191447D01*
X112430105Y-71158266D01*
X112419184Y-71122263D01*
X112415496Y-71084820D01*
X112419184Y-71047377D01*
X112430105Y-71011374D01*
X112447841Y-70978193D01*
X112471709Y-70949109D01*
X112493243Y-70931437D01*
X112510562Y-70914116D01*
X112524176Y-70893742D01*
X112533552Y-70871103D01*
X112538332Y-70847069D01*
X112538332Y-70822571D01*
X113246508Y-70822571D01*
X113246508Y-70847075D01*
X113251289Y-70871108D01*
X113260667Y-70893747D01*
X113274281Y-70914121D01*
X113291597Y-70931437D01*
X113313131Y-70949109D01*
X113314810Y-70951155D01*
X113332125Y-70968468D01*
X113352499Y-70982082D01*
X113375138Y-70991458D01*
X113399172Y-70996238D01*
X113423676Y-70996238D01*
X113447709Y-70991457D01*
X113470348Y-70982079D01*
X113490722Y-70968465D01*
X113508048Y-70951137D01*
X113521662Y-70930763D01*
X113531038Y-70908124D01*
X113536420Y-70871841D01*
X113536420Y-70797799D01*
X115688420Y-70797799D01*
X115688420Y-70871841D01*
X115690822Y-70896227D01*
X115697935Y-70919676D01*
X115709486Y-70941287D01*
X115725031Y-70960229D01*
X115743973Y-70975774D01*
X115765584Y-70987325D01*
X115789033Y-70994438D01*
X115813419Y-70996840D01*
X115837805Y-70994438D01*
X115861254Y-70987325D01*
X115882865Y-70975774D01*
X115910034Y-70951150D01*
X115911709Y-70949109D01*
X115933243Y-70931437D01*
X115950562Y-70914116D01*
X115964176Y-70893742D01*
X115973552Y-70871103D01*
X115978332Y-70847069D01*
X115978332Y-70822565D01*
X115973551Y-70798532D01*
X115964173Y-70775893D01*
X115950559Y-70755519D01*
X115933243Y-70738203D01*
X115911709Y-70720531D01*
X115910030Y-70718485D01*
X115892715Y-70701172D01*
X115872341Y-70687558D01*
X115849702Y-70678182D01*
X115825668Y-70673402D01*
X115801164Y-70673402D01*
X115777131Y-70678183D01*
X115754492Y-70687561D01*
X115734118Y-70701175D01*
X115716792Y-70718503D01*
X115703178Y-70738877D01*
X115693802Y-70761516D01*
X115688420Y-70797799D01*
X113536420Y-70797799D01*
X113534018Y-70773413D01*
X113526905Y-70749964D01*
X113515354Y-70728353D01*
X113499809Y-70709411D01*
X113480867Y-70693866D01*
X113459256Y-70682315D01*
X113435807Y-70675202D01*
X113411421Y-70672800D01*
X113387035Y-70675202D01*
X113363586Y-70682315D01*
X113341975Y-70693866D01*
X113314806Y-70718490D01*
X113313131Y-70720531D01*
X113291597Y-70738203D01*
X113274278Y-70755524D01*
X113260664Y-70775898D01*
X113251288Y-70798537D01*
X113246508Y-70822571D01*
X112538332Y-70822571D01*
X112538332Y-70822565D01*
X112533551Y-70798532D01*
X112524173Y-70775893D01*
X112510559Y-70755519D01*
X112493243Y-70738203D01*
X112471709Y-70720531D01*
X112447841Y-70691447D01*
X112430105Y-70658266D01*
X112419184Y-70622263D01*
X112415496Y-70584820D01*
X112419184Y-70547377D01*
X112430105Y-70511374D01*
X112447841Y-70478193D01*
X112471709Y-70449109D01*
X112500793Y-70425241D01*
X112533974Y-70407505D01*
X112569977Y-70396584D01*
X112598039Y-70393820D01*
X113186801Y-70393820D01*
X113214863Y-70396584D01*
X113250866Y-70407505D01*
X113283266Y-70424824D01*
X113305894Y-70434196D01*
X113329927Y-70438977D01*
X113354431Y-70438977D01*
X113378464Y-70434197D01*
X113401103Y-70424820D01*
X113421478Y-70411206D01*
X113438805Y-70393879D01*
X113452419Y-70373505D01*
X113453219Y-70371572D01*
X113701002Y-70371572D01*
X113701002Y-70396076D01*
X113705783Y-70420109D01*
X113715161Y-70442748D01*
X113728775Y-70463122D01*
X113746103Y-70480448D01*
X113766477Y-70494062D01*
X113789116Y-70503438D01*
X113825399Y-70508820D01*
X113899441Y-70508820D01*
X113923827Y-70506418D01*
X113947276Y-70499305D01*
X113968887Y-70487754D01*
X113987829Y-70472209D01*
X114003374Y-70453267D01*
X114014925Y-70431656D01*
X114022038Y-70408207D01*
X114024440Y-70383821D01*
X114023234Y-70371572D01*
X114201002Y-70371572D01*
X114201002Y-70396076D01*
X114205783Y-70420109D01*
X114215161Y-70442748D01*
X114228775Y-70463122D01*
X114246103Y-70480448D01*
X114266477Y-70494062D01*
X114289116Y-70503438D01*
X114325399Y-70508820D01*
X114399441Y-70508820D01*
X114423827Y-70506418D01*
X114447276Y-70499305D01*
X114468887Y-70487754D01*
X114487829Y-70472209D01*
X114503374Y-70453267D01*
X114514925Y-70431656D01*
X114522038Y-70408207D01*
X114524440Y-70383821D01*
X114523234Y-70371572D01*
X114701002Y-70371572D01*
X114701002Y-70396076D01*
X114705783Y-70420109D01*
X114715161Y-70442748D01*
X114728775Y-70463122D01*
X114746103Y-70480448D01*
X114766477Y-70494062D01*
X114789116Y-70503438D01*
X114825399Y-70508820D01*
X114899441Y-70508820D01*
X114923827Y-70506418D01*
X114947276Y-70499305D01*
X114968887Y-70487754D01*
X114987829Y-70472209D01*
X115003374Y-70453267D01*
X115014925Y-70431656D01*
X115022038Y-70408207D01*
X115024440Y-70383821D01*
X115023234Y-70371572D01*
X115201002Y-70371572D01*
X115201002Y-70396076D01*
X115205783Y-70420109D01*
X115215161Y-70442748D01*
X115228775Y-70463122D01*
X115246103Y-70480448D01*
X115266477Y-70494062D01*
X115289116Y-70503438D01*
X115325399Y-70508820D01*
X115399441Y-70508820D01*
X115423827Y-70506418D01*
X115447276Y-70499305D01*
X115468887Y-70487754D01*
X115487829Y-70472209D01*
X115503374Y-70453267D01*
X115514925Y-70431656D01*
X115522038Y-70408207D01*
X115524440Y-70383821D01*
X115522038Y-70359435D01*
X115514925Y-70335986D01*
X115503374Y-70314375D01*
X115478750Y-70287206D01*
X115476709Y-70285531D01*
X115459040Y-70264000D01*
X115441718Y-70246678D01*
X115421343Y-70233064D01*
X115398705Y-70223687D01*
X115374671Y-70218907D01*
X115350167Y-70218907D01*
X115326134Y-70223688D01*
X115303495Y-70233065D01*
X115283121Y-70246679D01*
X115265803Y-70263997D01*
X115248131Y-70285531D01*
X115246085Y-70287210D01*
X115228772Y-70304525D01*
X115215158Y-70324899D01*
X115205782Y-70347538D01*
X115201002Y-70371572D01*
X115023234Y-70371572D01*
X115022038Y-70359435D01*
X115014925Y-70335986D01*
X115003374Y-70314375D01*
X114978750Y-70287206D01*
X114976709Y-70285531D01*
X114959040Y-70264000D01*
X114941718Y-70246678D01*
X114921343Y-70233064D01*
X114898705Y-70223687D01*
X114874671Y-70218907D01*
X114850167Y-70218907D01*
X114826134Y-70223688D01*
X114803495Y-70233065D01*
X114783121Y-70246679D01*
X114765803Y-70263997D01*
X114748131Y-70285531D01*
X114746085Y-70287210D01*
X114728772Y-70304525D01*
X114715158Y-70324899D01*
X114705782Y-70347538D01*
X114701002Y-70371572D01*
X114523234Y-70371572D01*
X114522038Y-70359435D01*
X114514925Y-70335986D01*
X114503374Y-70314375D01*
X114478750Y-70287206D01*
X114476709Y-70285531D01*
X114459040Y-70264000D01*
X114441718Y-70246678D01*
X114421343Y-70233064D01*
X114398705Y-70223687D01*
X114374671Y-70218907D01*
X114350167Y-70218907D01*
X114326134Y-70223688D01*
X114303495Y-70233065D01*
X114283121Y-70246679D01*
X114265803Y-70263997D01*
X114248131Y-70285531D01*
X114246085Y-70287210D01*
X114228772Y-70304525D01*
X114215158Y-70324899D01*
X114205782Y-70347538D01*
X114201002Y-70371572D01*
X114023234Y-70371572D01*
X114022038Y-70359435D01*
X114014925Y-70335986D01*
X114003374Y-70314375D01*
X113978750Y-70287206D01*
X113976709Y-70285531D01*
X113959040Y-70264000D01*
X113941718Y-70246678D01*
X113921343Y-70233064D01*
X113898705Y-70223687D01*
X113874671Y-70218907D01*
X113850167Y-70218907D01*
X113826134Y-70223688D01*
X113803495Y-70233065D01*
X113783121Y-70246679D01*
X113765803Y-70263997D01*
X113748131Y-70285531D01*
X113746085Y-70287210D01*
X113728772Y-70304525D01*
X113715158Y-70324899D01*
X113705782Y-70347538D01*
X113701002Y-70371572D01*
X113453219Y-70371572D01*
X113461796Y-70350866D01*
X113466577Y-70326833D01*
X113466577Y-70302329D01*
X113461797Y-70278296D01*
X113452420Y-70255657D01*
X113447621Y-70246679D01*
X113435106Y-70223266D01*
X113424185Y-70187263D01*
X113421421Y-70159201D01*
X113421420Y-69570440D01*
X113424184Y-69542378D01*
X113435105Y-69506375D01*
X113452841Y-69473194D01*
X113476709Y-69444109D01*
X113505793Y-69420241D01*
X113538974Y-69402505D01*
X113574977Y-69391584D01*
X113612420Y-69387896D01*
X113649862Y-69391584D01*
X113685865Y-69402505D01*
X113719046Y-69420241D01*
X113748131Y-69444109D01*
X113765803Y-69465643D01*
X113783125Y-69482964D01*
X113803500Y-69496577D01*
X113826139Y-69505953D01*
X113850172Y-69510733D01*
X113874676Y-69510733D01*
X113898709Y-69505952D01*
X113921348Y-69496574D01*
X113941722Y-69482960D01*
X113959038Y-69465643D01*
X113976710Y-69444109D01*
X114005794Y-69420241D01*
X114038975Y-69402505D01*
X114074978Y-69391584D01*
X114112420Y-69387896D01*
X114149863Y-69391584D01*
X114185866Y-69402505D01*
X114219047Y-69420241D01*
X114248131Y-69444109D01*
X114265803Y-69465643D01*
X114283125Y-69482964D01*
X114303500Y-69496577D01*
X114326139Y-69505953D01*
X114350172Y-69510733D01*
X114374676Y-69510733D01*
X114398709Y-69505952D01*
X114421348Y-69496574D01*
X114441722Y-69482960D01*
X114459038Y-69465643D01*
X114476710Y-69444109D01*
X114505794Y-69420241D01*
X114538975Y-69402505D01*
X114574978Y-69391584D01*
X114612420Y-69387896D01*
X114649863Y-69391584D01*
X114685866Y-69402505D01*
X114719047Y-69420241D01*
X114748131Y-69444109D01*
X114765803Y-69465643D01*
X114783125Y-69482964D01*
X114803500Y-69496577D01*
X114826139Y-69505953D01*
X114850172Y-69510733D01*
X114874676Y-69510733D01*
X114898709Y-69505952D01*
X114921348Y-69496574D01*
X114941722Y-69482960D01*
X114959038Y-69465643D01*
X114976710Y-69444109D01*
X115005794Y-69420241D01*
X115038975Y-69402505D01*
X115074978Y-69391584D01*
X115112420Y-69387896D01*
X115149863Y-69391584D01*
X115185866Y-69402505D01*
X115219047Y-69420241D01*
X115248131Y-69444109D01*
X115265803Y-69465643D01*
X115283125Y-69482964D01*
X115303500Y-69496577D01*
X115326139Y-69505953D01*
X115350172Y-69510733D01*
X115374676Y-69510733D01*
X115398709Y-69505952D01*
X115421348Y-69496574D01*
X115441722Y-69482960D01*
X115459038Y-69465643D01*
X115476710Y-69444109D01*
X115505794Y-69420241D01*
X115538975Y-69402505D01*
X115574978Y-69391584D01*
X115612420Y-69387896D01*
X115649863Y-69391584D01*
G37*
G36*
X90029512Y-71239927D02*
G01*
X90178812Y-71269624D01*
X90342784Y-71337544D01*
X90490354Y-71436147D01*
X90615853Y-71561646D01*
X90714456Y-71709216D01*
X90782376Y-71873188D01*
X90817000Y-72047259D01*
X90817000Y-72224741D01*
X90782376Y-72398812D01*
X90714456Y-72562784D01*
X90615853Y-72710354D01*
X90490354Y-72835853D01*
X90342784Y-72934456D01*
X90178812Y-73002376D01*
X90029512Y-73032073D01*
X90004742Y-73037000D01*
X89827258Y-73037000D01*
X89802488Y-73032073D01*
X89653188Y-73002376D01*
X89489216Y-72934456D01*
X89341646Y-72835853D01*
X89216147Y-72710354D01*
X89117544Y-72562784D01*
X89049624Y-72398812D01*
X89015000Y-72224741D01*
X89015000Y-72047259D01*
X89049624Y-71873188D01*
X89117544Y-71709216D01*
X89216147Y-71561646D01*
X89341646Y-71436147D01*
X89489216Y-71337544D01*
X89653188Y-71269624D01*
X89802488Y-71239927D01*
X89827258Y-71235000D01*
X90004742Y-71235000D01*
X90029512Y-71239927D01*
G37*
G36*
X142842166Y-70982079D02*
G01*
X143010812Y-71015624D01*
X143174784Y-71083544D01*
X143322354Y-71182147D01*
X143447853Y-71307646D01*
X143546456Y-71455216D01*
X143614376Y-71619188D01*
X143638183Y-71738877D01*
X143649000Y-71793258D01*
X143649000Y-71970742D01*
X143644073Y-71995512D01*
X143614376Y-72144812D01*
X143546456Y-72308784D01*
X143447853Y-72456354D01*
X143322354Y-72581853D01*
X143174784Y-72680456D01*
X143010812Y-72748376D01*
X142872838Y-72775820D01*
X142836742Y-72783000D01*
X142659258Y-72783000D01*
X142623162Y-72775820D01*
X142485188Y-72748376D01*
X142321216Y-72680456D01*
X142173646Y-72581853D01*
X142048147Y-72456354D01*
X141949544Y-72308784D01*
X141881624Y-72144812D01*
X141851927Y-71995512D01*
X141847000Y-71970742D01*
X141847000Y-71793258D01*
X141857817Y-71738877D01*
X141881624Y-71619188D01*
X141949544Y-71455216D01*
X142048147Y-71307646D01*
X142173646Y-71182147D01*
X142321216Y-71083544D01*
X142485188Y-71015624D01*
X142653834Y-70982079D01*
X142659258Y-70981000D01*
X142836742Y-70981000D01*
X142842166Y-70982079D01*
G37*
G36*
X108538674Y-71523465D02*
G01*
X108576367Y-71534899D01*
X108611103Y-71553466D01*
X108641548Y-71578452D01*
X108666534Y-71608897D01*
X108685101Y-71643633D01*
X108696535Y-71681326D01*
X108701000Y-71726661D01*
X108701000Y-72563339D01*
X108696535Y-72608674D01*
X108685101Y-72646367D01*
X108666534Y-72681103D01*
X108641548Y-72711548D01*
X108611103Y-72736534D01*
X108576367Y-72755101D01*
X108538674Y-72766535D01*
X108493339Y-72771000D01*
X107406661Y-72771000D01*
X107361326Y-72766535D01*
X107323633Y-72755101D01*
X107288897Y-72736534D01*
X107258452Y-72711548D01*
X107233466Y-72681103D01*
X107214899Y-72646367D01*
X107203465Y-72608674D01*
X107199000Y-72563339D01*
X107199000Y-71726661D01*
X107203465Y-71681326D01*
X107214899Y-71643633D01*
X107233466Y-71608897D01*
X107258452Y-71578452D01*
X107288897Y-71553466D01*
X107323633Y-71534899D01*
X107361326Y-71523465D01*
X107406661Y-71519000D01*
X108493339Y-71519000D01*
X108538674Y-71523465D01*
G37*
G36*
X123524674Y-70734465D02*
G01*
X123562367Y-70745899D01*
X123597103Y-70764466D01*
X123627548Y-70789452D01*
X123652534Y-70819897D01*
X123671101Y-70854633D01*
X123682535Y-70892326D01*
X123687000Y-70937661D01*
X123687000Y-71774339D01*
X123682535Y-71819674D01*
X123671101Y-71857367D01*
X123652534Y-71892103D01*
X123627548Y-71922548D01*
X123597103Y-71947534D01*
X123562367Y-71966101D01*
X123524674Y-71977535D01*
X123479339Y-71982000D01*
X122392661Y-71982000D01*
X122347326Y-71977535D01*
X122309633Y-71966101D01*
X122274897Y-71947534D01*
X122244452Y-71922548D01*
X122219466Y-71892103D01*
X122200899Y-71857367D01*
X122189465Y-71819674D01*
X122185000Y-71774339D01*
X122185000Y-70937661D01*
X122189465Y-70892326D01*
X122200899Y-70854633D01*
X122219466Y-70819897D01*
X122244452Y-70789452D01*
X122274897Y-70764466D01*
X122309633Y-70745899D01*
X122347326Y-70734465D01*
X122392661Y-70730000D01*
X123479339Y-70730000D01*
X123524674Y-70734465D01*
G37*
G36*
X108538674Y-69473465D02*
G01*
X108576367Y-69484899D01*
X108611103Y-69503466D01*
X108641548Y-69528452D01*
X108666534Y-69558897D01*
X108685101Y-69593633D01*
X108696535Y-69631326D01*
X108701000Y-69676661D01*
X108701000Y-70513339D01*
X108696535Y-70558674D01*
X108685101Y-70596367D01*
X108666534Y-70631103D01*
X108641548Y-70661548D01*
X108611103Y-70686534D01*
X108576367Y-70705101D01*
X108538674Y-70716535D01*
X108493339Y-70721000D01*
X107406661Y-70721000D01*
X107361326Y-70716535D01*
X107323633Y-70705101D01*
X107288897Y-70686534D01*
X107258452Y-70661548D01*
X107233466Y-70631103D01*
X107214899Y-70596367D01*
X107203465Y-70558674D01*
X107199000Y-70513339D01*
X107199000Y-69676661D01*
X107203465Y-69631326D01*
X107214899Y-69593633D01*
X107233466Y-69558897D01*
X107258452Y-69528452D01*
X107288897Y-69503466D01*
X107323633Y-69484899D01*
X107361326Y-69473465D01*
X107406661Y-69469000D01*
X108493339Y-69469000D01*
X108538674Y-69473465D01*
G37*
G36*
X90817000Y-70497000D02*
G01*
X89015000Y-70497000D01*
X89015000Y-68695000D01*
X90817000Y-68695000D01*
X90817000Y-70497000D01*
G37*
G36*
X143649000Y-70243000D02*
G01*
X141847000Y-70243000D01*
X141847000Y-68441000D01*
X143649000Y-68441000D01*
X143649000Y-70243000D01*
G37*
G36*
X125745474Y-67071465D02*
G01*
X125783167Y-67082899D01*
X125817903Y-67101466D01*
X125848348Y-67126452D01*
X125873334Y-67156897D01*
X125891901Y-67191633D01*
X125903335Y-67229326D01*
X125907800Y-67274661D01*
X125907800Y-68361339D01*
X125903335Y-68406674D01*
X125891901Y-68444367D01*
X125873334Y-68479103D01*
X125848348Y-68509548D01*
X125817903Y-68534534D01*
X125783167Y-68553101D01*
X125745474Y-68564535D01*
X125700139Y-68569000D01*
X124863461Y-68569000D01*
X124818126Y-68564535D01*
X124780433Y-68553101D01*
X124745697Y-68534534D01*
X124715252Y-68509548D01*
X124690266Y-68479103D01*
X124671699Y-68444367D01*
X124660265Y-68406674D01*
X124655800Y-68361339D01*
X124655800Y-67274661D01*
X124660265Y-67229326D01*
X124671699Y-67191633D01*
X124690266Y-67156897D01*
X124715252Y-67126452D01*
X124745697Y-67101466D01*
X124780433Y-67082899D01*
X124818126Y-67071465D01*
X124863461Y-67067000D01*
X125700139Y-67067000D01*
X125745474Y-67071465D01*
G37*
G36*
X123695474Y-67071465D02*
G01*
X123733167Y-67082899D01*
X123767903Y-67101466D01*
X123798348Y-67126452D01*
X123823334Y-67156897D01*
X123841901Y-67191633D01*
X123853335Y-67229326D01*
X123857800Y-67274661D01*
X123857800Y-68361339D01*
X123853335Y-68406674D01*
X123841901Y-68444367D01*
X123823334Y-68479103D01*
X123798348Y-68509548D01*
X123767903Y-68534534D01*
X123733167Y-68553101D01*
X123695474Y-68564535D01*
X123650139Y-68569000D01*
X122813461Y-68569000D01*
X122768126Y-68564535D01*
X122730433Y-68553101D01*
X122695697Y-68534534D01*
X122665252Y-68509548D01*
X122640266Y-68479103D01*
X122621699Y-68444367D01*
X122610265Y-68406674D01*
X122605800Y-68361339D01*
X122605800Y-67274661D01*
X122610265Y-67229326D01*
X122621699Y-67191633D01*
X122640266Y-67156897D01*
X122665252Y-67126452D01*
X122695697Y-67101466D01*
X122730433Y-67082899D01*
X122768126Y-67071465D01*
X122813461Y-67067000D01*
X123650139Y-67067000D01*
X123695474Y-67071465D01*
G37*
G36*
X116804674Y-64023465D02*
G01*
X116842367Y-64034899D01*
X116877103Y-64053466D01*
X116907548Y-64078452D01*
X116932534Y-64108897D01*
X116951101Y-64143633D01*
X116962535Y-64181326D01*
X116967000Y-64226661D01*
X116967000Y-65313339D01*
X116962535Y-65358674D01*
X116951101Y-65396367D01*
X116932534Y-65431103D01*
X116907548Y-65461548D01*
X116877103Y-65486534D01*
X116842367Y-65505101D01*
X116804674Y-65516535D01*
X116759339Y-65521000D01*
X115922661Y-65521000D01*
X115877326Y-65516535D01*
X115839633Y-65505101D01*
X115804897Y-65486534D01*
X115774452Y-65461548D01*
X115749466Y-65431103D01*
X115730899Y-65396367D01*
X115719465Y-65358674D01*
X115715000Y-65313339D01*
X115715000Y-64226661D01*
X115719465Y-64181326D01*
X115730899Y-64143633D01*
X115749466Y-64108897D01*
X115774452Y-64078452D01*
X115804897Y-64053466D01*
X115839633Y-64034899D01*
X115877326Y-64023465D01*
X115922661Y-64019000D01*
X116759339Y-64019000D01*
X116804674Y-64023465D01*
G37*
G36*
X114754674Y-64023465D02*
G01*
X114792367Y-64034899D01*
X114827103Y-64053466D01*
X114857548Y-64078452D01*
X114882534Y-64108897D01*
X114901101Y-64143633D01*
X114912535Y-64181326D01*
X114917000Y-64226661D01*
X114917000Y-65313339D01*
X114912535Y-65358674D01*
X114901101Y-65396367D01*
X114882534Y-65431103D01*
X114857548Y-65461548D01*
X114827103Y-65486534D01*
X114792367Y-65505101D01*
X114754674Y-65516535D01*
X114709339Y-65521000D01*
X113872661Y-65521000D01*
X113827326Y-65516535D01*
X113789633Y-65505101D01*
X113754897Y-65486534D01*
X113724452Y-65461548D01*
X113699466Y-65431103D01*
X113680899Y-65396367D01*
X113669465Y-65358674D01*
X113665000Y-65313339D01*
X113665000Y-64226661D01*
X113669465Y-64181326D01*
X113680899Y-64143633D01*
X113699466Y-64108897D01*
X113724452Y-64078452D01*
X113754897Y-64053466D01*
X113789633Y-64034899D01*
X113827326Y-64023465D01*
X113872661Y-64019000D01*
X114709339Y-64019000D01*
X114754674Y-64023465D01*
G37*
G36*
X119767875Y-60974324D02*
G01*
X119789384Y-60986063D01*
X119812770Y-60993381D01*
X119838225Y-60996000D01*
X120700000Y-60996000D01*
X120700000Y-61747458D01*
X120702402Y-61771844D01*
X120709515Y-61795293D01*
X120721066Y-61816904D01*
X120724071Y-61820520D01*
X120720225Y-61825325D01*
X120708939Y-61847076D01*
X120702113Y-61870610D01*
X120701698Y-61875100D01*
X120698633Y-61875402D01*
X120675184Y-61882515D01*
X120653573Y-61894066D01*
X120633558Y-61910698D01*
X120155538Y-62400543D01*
X120140225Y-62419673D01*
X120128939Y-62441423D01*
X120122113Y-62464957D01*
X120120000Y-62487844D01*
X120120000Y-63496156D01*
X120122402Y-63520542D01*
X120129515Y-63543991D01*
X120141066Y-63565602D01*
X120155538Y-63583457D01*
X120633558Y-64073302D01*
X120652309Y-64089078D01*
X120673777Y-64100892D01*
X120697137Y-64108291D01*
X120701800Y-64108779D01*
X120702402Y-64114890D01*
X120709515Y-64138339D01*
X120721066Y-64159950D01*
X120723914Y-64163464D01*
X120721922Y-64165832D01*
X120710108Y-64187300D01*
X120702709Y-64210660D01*
X120700000Y-64236542D01*
X120700000Y-64988000D01*
X119838225Y-64988000D01*
X119813839Y-64990402D01*
X119790390Y-64997515D01*
X119768779Y-65009066D01*
X119762504Y-65014262D01*
X119755312Y-65008464D01*
X119733602Y-64997102D01*
X119710091Y-64990194D01*
X119705910Y-64989801D01*
X119705598Y-64986634D01*
X119698485Y-64963185D01*
X119686934Y-64941574D01*
X119670614Y-64921864D01*
X119325343Y-64582567D01*
X119214702Y-64473841D01*
X119195628Y-64458464D01*
X119173918Y-64447102D01*
X119150407Y-64440194D01*
X119145938Y-64439773D01*
X119145598Y-64436323D01*
X119138485Y-64412874D01*
X119126934Y-64391263D01*
X119123958Y-64387669D01*
X119127536Y-64383231D01*
X119138898Y-64361521D01*
X119145806Y-64338011D01*
X119148000Y-64314695D01*
X119148000Y-61669305D01*
X119145598Y-61644919D01*
X119138485Y-61621470D01*
X119126934Y-61599859D01*
X119124070Y-61596339D01*
X119126324Y-61593641D01*
X119138063Y-61572132D01*
X119145381Y-61548746D01*
X119145854Y-61544152D01*
X119151478Y-61543598D01*
X119174927Y-61536485D01*
X119196538Y-61524934D01*
X119214702Y-61510160D01*
X119670614Y-61062136D01*
X119686324Y-61043330D01*
X119698063Y-61021821D01*
X119705381Y-60998435D01*
X119705825Y-60994124D01*
X119711162Y-60993598D01*
X119734611Y-60986485D01*
X119756222Y-60974934D01*
X119762496Y-60969831D01*
X119767875Y-60974324D01*
G37*
G36*
X107601875Y-60974324D02*
G01*
X107623384Y-60986063D01*
X107646770Y-60993381D01*
X107672225Y-60996000D01*
X108534000Y-60996000D01*
X108534000Y-61747458D01*
X108536402Y-61771844D01*
X108543515Y-61795293D01*
X108555066Y-61816904D01*
X108558071Y-61820520D01*
X108554225Y-61825325D01*
X108542939Y-61847076D01*
X108536113Y-61870610D01*
X108535698Y-61875100D01*
X108532633Y-61875402D01*
X108509184Y-61882515D01*
X108487573Y-61894066D01*
X108467558Y-61910698D01*
X107989538Y-62400543D01*
X107974225Y-62419673D01*
X107962939Y-62441423D01*
X107956113Y-62464957D01*
X107954000Y-62487844D01*
X107954000Y-63496156D01*
X107956402Y-63520542D01*
X107963515Y-63543991D01*
X107975066Y-63565602D01*
X107989538Y-63583457D01*
X108467558Y-64073302D01*
X108486309Y-64089078D01*
X108507777Y-64100892D01*
X108531137Y-64108291D01*
X108535800Y-64108779D01*
X108536402Y-64114890D01*
X108543515Y-64138339D01*
X108555066Y-64159950D01*
X108557914Y-64163464D01*
X108555922Y-64165832D01*
X108544108Y-64187300D01*
X108536709Y-64210660D01*
X108534000Y-64236542D01*
X108534000Y-64988000D01*
X107672225Y-64988000D01*
X107647839Y-64990402D01*
X107624390Y-64997515D01*
X107602779Y-65009066D01*
X107596504Y-65014262D01*
X107589312Y-65008464D01*
X107567602Y-64997102D01*
X107544091Y-64990194D01*
X107539910Y-64989801D01*
X107539598Y-64986634D01*
X107532485Y-64963185D01*
X107520934Y-64941574D01*
X107504614Y-64921864D01*
X107159343Y-64582567D01*
X107048702Y-64473841D01*
X107029628Y-64458464D01*
X107007918Y-64447102D01*
X106984407Y-64440194D01*
X106979938Y-64439773D01*
X106979598Y-64436323D01*
X106972485Y-64412874D01*
X106960934Y-64391263D01*
X106957958Y-64387669D01*
X106961536Y-64383231D01*
X106972898Y-64361521D01*
X106979806Y-64338011D01*
X106982000Y-64314695D01*
X106982000Y-61669305D01*
X106979598Y-61644919D01*
X106972485Y-61621470D01*
X106960934Y-61599859D01*
X106958070Y-61596339D01*
X106960324Y-61593641D01*
X106972063Y-61572132D01*
X106979381Y-61548746D01*
X106979854Y-61544152D01*
X106985478Y-61543598D01*
X107008927Y-61536485D01*
X107030538Y-61524934D01*
X107048702Y-61510160D01*
X107504614Y-61062136D01*
X107520324Y-61043330D01*
X107532063Y-61021821D01*
X107539381Y-60998435D01*
X107539825Y-60994124D01*
X107545162Y-60993598D01*
X107568611Y-60986485D01*
X107590222Y-60974934D01*
X107596496Y-60969831D01*
X107601875Y-60974324D01*
G37*
G36*
X123042688Y-60975536D02*
G01*
X123064398Y-60986898D01*
X123087909Y-60993806D01*
X123092090Y-60994199D01*
X123092402Y-60997366D01*
X123099515Y-61020815D01*
X123111066Y-61042426D01*
X123127386Y-61062136D01*
X123583298Y-61510159D01*
X123602372Y-61525536D01*
X123624082Y-61536898D01*
X123647593Y-61543806D01*
X123652062Y-61544227D01*
X123652402Y-61547677D01*
X123659515Y-61571126D01*
X123671066Y-61592737D01*
X123674042Y-61596331D01*
X123670464Y-61600769D01*
X123659102Y-61622479D01*
X123652194Y-61645989D01*
X123650000Y-61669305D01*
X123650000Y-64314695D01*
X123652402Y-64339081D01*
X123659515Y-64362530D01*
X123671066Y-64384141D01*
X123673930Y-64387661D01*
X123671676Y-64390359D01*
X123659937Y-64411868D01*
X123652619Y-64435254D01*
X123652146Y-64439848D01*
X123646522Y-64440402D01*
X123623073Y-64447515D01*
X123601462Y-64459066D01*
X123583298Y-64473840D01*
X123472657Y-64582567D01*
X123127386Y-64921864D01*
X123111676Y-64940670D01*
X123099937Y-64962179D01*
X123092619Y-64985565D01*
X123092175Y-64989876D01*
X123086838Y-64990402D01*
X123063389Y-64997515D01*
X123041778Y-65009066D01*
X123035504Y-65014169D01*
X123030125Y-65009676D01*
X123008616Y-64997937D01*
X122985230Y-64990619D01*
X122959775Y-64988000D01*
X122098000Y-64988000D01*
X122098000Y-64236542D01*
X122095598Y-64212156D01*
X122088485Y-64188707D01*
X122076934Y-64167096D01*
X122073929Y-64163480D01*
X122077775Y-64158675D01*
X122089061Y-64136924D01*
X122095887Y-64113390D01*
X122096302Y-64108900D01*
X122099367Y-64108598D01*
X122122816Y-64101485D01*
X122144427Y-64089934D01*
X122164442Y-64073302D01*
X122642462Y-63583457D01*
X122657775Y-63564327D01*
X122669061Y-63542577D01*
X122675887Y-63519043D01*
X122678000Y-63496156D01*
X122678000Y-62487844D01*
X122675598Y-62463458D01*
X122668485Y-62440009D01*
X122656934Y-62418398D01*
X122642462Y-62400543D01*
X122164442Y-61910698D01*
X122145691Y-61894922D01*
X122124223Y-61883108D01*
X122100863Y-61875709D01*
X122096200Y-61875221D01*
X122095598Y-61869110D01*
X122088485Y-61845661D01*
X122076934Y-61824050D01*
X122074086Y-61820536D01*
X122076078Y-61818168D01*
X122087892Y-61796700D01*
X122095291Y-61773340D01*
X122098000Y-61747458D01*
X122098000Y-60996000D01*
X122959775Y-60996000D01*
X122984161Y-60993598D01*
X123007610Y-60986485D01*
X123029221Y-60974934D01*
X123035496Y-60969738D01*
X123042688Y-60975536D01*
G37*
G36*
X110876688Y-60975536D02*
G01*
X110898398Y-60986898D01*
X110921909Y-60993806D01*
X110926090Y-60994199D01*
X110926402Y-60997366D01*
X110933515Y-61020815D01*
X110945066Y-61042426D01*
X110961386Y-61062136D01*
X111417298Y-61510159D01*
X111436372Y-61525536D01*
X111458082Y-61536898D01*
X111481593Y-61543806D01*
X111486062Y-61544227D01*
X111486402Y-61547677D01*
X111493515Y-61571126D01*
X111505066Y-61592737D01*
X111508042Y-61596331D01*
X111504464Y-61600769D01*
X111493102Y-61622479D01*
X111486194Y-61645989D01*
X111484000Y-61669305D01*
X111484000Y-64314695D01*
X111486402Y-64339081D01*
X111493515Y-64362530D01*
X111505066Y-64384141D01*
X111507930Y-64387661D01*
X111505676Y-64390359D01*
X111493937Y-64411868D01*
X111486619Y-64435254D01*
X111486146Y-64439848D01*
X111480522Y-64440402D01*
X111457073Y-64447515D01*
X111435462Y-64459066D01*
X111417298Y-64473840D01*
X111306657Y-64582567D01*
X110961386Y-64921864D01*
X110945676Y-64940670D01*
X110933937Y-64962179D01*
X110926619Y-64985565D01*
X110926175Y-64989876D01*
X110920838Y-64990402D01*
X110897389Y-64997515D01*
X110875778Y-65009066D01*
X110869504Y-65014169D01*
X110864125Y-65009676D01*
X110842616Y-64997937D01*
X110819230Y-64990619D01*
X110793775Y-64988000D01*
X109932000Y-64988000D01*
X109932000Y-64236542D01*
X109929598Y-64212156D01*
X109922485Y-64188707D01*
X109910934Y-64167096D01*
X109907929Y-64163480D01*
X109911775Y-64158675D01*
X109923061Y-64136924D01*
X109929887Y-64113390D01*
X109930302Y-64108900D01*
X109933367Y-64108598D01*
X109956816Y-64101485D01*
X109978427Y-64089934D01*
X109998442Y-64073302D01*
X110476462Y-63583457D01*
X110491775Y-63564327D01*
X110503061Y-63542577D01*
X110509887Y-63519043D01*
X110512000Y-63496156D01*
X110512000Y-62487844D01*
X110509598Y-62463458D01*
X110502485Y-62440009D01*
X110490934Y-62418398D01*
X110476462Y-62400543D01*
X109998442Y-61910698D01*
X109979691Y-61894922D01*
X109958223Y-61883108D01*
X109934863Y-61875709D01*
X109930200Y-61875221D01*
X109929598Y-61869110D01*
X109922485Y-61845661D01*
X109910934Y-61824050D01*
X109908086Y-61820536D01*
X109910078Y-61818168D01*
X109921892Y-61796700D01*
X109929291Y-61773340D01*
X109932000Y-61747458D01*
X109932000Y-60996000D01*
X110793775Y-60996000D01*
X110818161Y-60993598D01*
X110841610Y-60986485D01*
X110863221Y-60974934D01*
X110869496Y-60969738D01*
X110876688Y-60975536D01*
G37*
G36*
X114763674Y-60467465D02*
G01*
X114801367Y-60478899D01*
X114836103Y-60497466D01*
X114866548Y-60522452D01*
X114891534Y-60552897D01*
X114910101Y-60587633D01*
X114921535Y-60625326D01*
X114926000Y-60670661D01*
X114926000Y-61757339D01*
X114921535Y-61802674D01*
X114910101Y-61840367D01*
X114891534Y-61875103D01*
X114866548Y-61905548D01*
X114836103Y-61930534D01*
X114801367Y-61949101D01*
X114763674Y-61960535D01*
X114718339Y-61965000D01*
X113881661Y-61965000D01*
X113836326Y-61960535D01*
X113798633Y-61949101D01*
X113763897Y-61930534D01*
X113733452Y-61905548D01*
X113708466Y-61875103D01*
X113689899Y-61840367D01*
X113678465Y-61802674D01*
X113674000Y-61757339D01*
X113674000Y-60670661D01*
X113678465Y-60625326D01*
X113689899Y-60587633D01*
X113708466Y-60552897D01*
X113733452Y-60522452D01*
X113763897Y-60497466D01*
X113798633Y-60478899D01*
X113836326Y-60467465D01*
X113881661Y-60463000D01*
X114718339Y-60463000D01*
X114763674Y-60467465D01*
G37*
G36*
X116813674Y-60467465D02*
G01*
X116851367Y-60478899D01*
X116886103Y-60497466D01*
X116916548Y-60522452D01*
X116941534Y-60552897D01*
X116960101Y-60587633D01*
X116971535Y-60625326D01*
X116976000Y-60670661D01*
X116976000Y-61757339D01*
X116971535Y-61802674D01*
X116960101Y-61840367D01*
X116941534Y-61875103D01*
X116916548Y-61905548D01*
X116886103Y-61930534D01*
X116851367Y-61949101D01*
X116813674Y-61960535D01*
X116768339Y-61965000D01*
X115931661Y-61965000D01*
X115886326Y-61960535D01*
X115848633Y-61949101D01*
X115813897Y-61930534D01*
X115783452Y-61905548D01*
X115758466Y-61875103D01*
X115739899Y-61840367D01*
X115728465Y-61802674D01*
X115724000Y-61757339D01*
X115724000Y-60670661D01*
X115728465Y-60625326D01*
X115739899Y-60587633D01*
X115758466Y-60552897D01*
X115783452Y-60522452D01*
X115813897Y-60497466D01*
X115848633Y-60478899D01*
X115886326Y-60467465D01*
X115931661Y-60463000D01*
X116768339Y-60463000D01*
X116813674Y-60467465D01*
G37*
G36*
X111391000Y-56781000D02*
G01*
X109589000Y-56781000D01*
X109589000Y-54979000D01*
X111391000Y-54979000D01*
X111391000Y-56781000D01*
G37*
G36*
X113898712Y-46043127D02*
G01*
X114048012Y-46072824D01*
X114211984Y-46140744D01*
X114359554Y-46239347D01*
X114485053Y-46364846D01*
X114583656Y-46512416D01*
X114651576Y-46676388D01*
X114686200Y-46850459D01*
X114686200Y-47027941D01*
X114651576Y-47202012D01*
X114583656Y-47365984D01*
X114485053Y-47513554D01*
X114359554Y-47639053D01*
X114211984Y-47737656D01*
X114048012Y-47805576D01*
X113898712Y-47835273D01*
X113873942Y-47840200D01*
X113696458Y-47840200D01*
X113671688Y-47835273D01*
X113522388Y-47805576D01*
X113358416Y-47737656D01*
X113210846Y-47639053D01*
X113085347Y-47513554D01*
X112986744Y-47365984D01*
X112918824Y-47202012D01*
X112884200Y-47027941D01*
X112884200Y-46850459D01*
X112918824Y-46676388D01*
X112986744Y-46512416D01*
X113085347Y-46364846D01*
X113210846Y-46239347D01*
X113358416Y-46140744D01*
X113522388Y-46072824D01*
X113671688Y-46043127D01*
X113696458Y-46038200D01*
X113873942Y-46038200D01*
X113898712Y-46043127D01*
G37*
G36*
X120186200Y-47840200D02*
G01*
X118384200Y-47840200D01*
X118384200Y-46038200D01*
X120186200Y-46038200D01*
X120186200Y-47840200D01*
G37*
M02*
