M48
; DRILL file {KiCad (5.1.5)-3} date 20/02/2020 10:14:48
; FORMAT={2:4/ absolute / inch / suppress leading zeros}
; #@! TF.CreationDate,2020-02-20T10:14:48+01:00
; #@! TF.GenerationSoftware,Kicad,Pcbnew,(5.1.5)-3
FMAT,2
INCH,TZ
T1C0.0079
T2C0.0157
T3C0.0394
%
G90
G05
T1
X44926Y-27986
X44926Y-28183
X44926Y-28380
X45123Y-27986
X45123Y-28183
X45123Y-28380
X45320Y-27986
X45320Y-28183
X45320Y-28380
T2
X41520Y-30160
X42520Y-26800
X42580Y-30160
X43380Y-30160
X43500Y-37700
X43700Y-27720
X44106Y-29946
X44680Y-32244
X45123Y-29757
X46780Y-28420
X46920Y-30200
X47200Y-27986
X47220Y-32980
X47514Y-27986
X48800Y-30960
X48880Y-31480
X49300Y-27680
X49620Y-27680
T3
X47700Y-34700
X43500Y-22000
X47700Y-37100
X37200Y-31800
X37200Y-32800
X37200Y-33800
X52400Y-31900
X35400Y-27400
X35400Y-28400
X52400Y-36700
X47700Y-39500
X44797Y-18480
X46963Y-18480
X37200Y-36600
X37200Y-37600
X37200Y-38600
X56200Y-27300
X56200Y-28300
X52400Y-34300
T0
M30
