G04 #@! TF.GenerationSoftware,KiCad,Pcbnew,(5.1.5)-3*
G04 #@! TF.CreationDate,2020-01-20T14:19:25+01:00*
G04 #@! TF.ProjectId,bq25570,62713235-3537-4302-9e6b-696361645f70,rev?*
G04 #@! TF.SameCoordinates,Original*
G04 #@! TF.FileFunction,Legend,Top*
G04 #@! TF.FilePolarity,Positive*
%FSLAX46Y46*%
G04 Gerber Fmt 4.6, Leading zero omitted, Abs format (unit mm)*
G04 Created by KiCad (PCBNEW (5.1.5)-3) date 2020-01-20 14:19:25*
%MOMM*%
%LPD*%
G04 APERTURE LIST*
%ADD10C,0.150000*%
%ADD11C,0.120000*%
G04 APERTURE END LIST*
D10*
X135339485Y-92873580D02*
X135529961Y-92873580D01*
X135625200Y-92921200D01*
X135720438Y-93016438D01*
X135768057Y-93206914D01*
X135768057Y-93540247D01*
X135720438Y-93730723D01*
X135625200Y-93825961D01*
X135529961Y-93873580D01*
X135339485Y-93873580D01*
X135244247Y-93825961D01*
X135149009Y-93730723D01*
X135101390Y-93540247D01*
X135101390Y-93206914D01*
X135149009Y-93016438D01*
X135244247Y-92921200D01*
X135339485Y-92873580D01*
X136196628Y-93873580D02*
X136196628Y-92873580D01*
X136768057Y-93873580D02*
X136339485Y-93302152D01*
X136768057Y-92873580D02*
X136196628Y-93445009D01*
X136958533Y-93968819D02*
X137720438Y-93968819D01*
X137958533Y-93873580D02*
X137958533Y-92873580D01*
X137958533Y-93349771D02*
X138529961Y-93349771D01*
X138529961Y-93873580D02*
X138529961Y-92873580D01*
X139196628Y-93397390D02*
X139196628Y-93873580D01*
X138863295Y-92873580D02*
X139196628Y-93397390D01*
X139529961Y-92873580D01*
X139815676Y-93825961D02*
X139958533Y-93873580D01*
X140196628Y-93873580D01*
X140291866Y-93825961D01*
X140339485Y-93778342D01*
X140387104Y-93683104D01*
X140387104Y-93587866D01*
X140339485Y-93492628D01*
X140291866Y-93445009D01*
X140196628Y-93397390D01*
X140006152Y-93349771D01*
X139910914Y-93302152D01*
X139863295Y-93254533D01*
X139815676Y-93159295D01*
X139815676Y-93064057D01*
X139863295Y-92968819D01*
X139910914Y-92921200D01*
X140006152Y-92873580D01*
X140244247Y-92873580D01*
X140387104Y-92921200D01*
X140672819Y-92873580D02*
X141244247Y-92873580D01*
X140958533Y-93873580D02*
X140958533Y-92873580D01*
X135379200Y-86625180D02*
X135569676Y-86625180D01*
X135664914Y-86672800D01*
X135760152Y-86768038D01*
X135807771Y-86958514D01*
X135807771Y-87291847D01*
X135760152Y-87482323D01*
X135664914Y-87577561D01*
X135569676Y-87625180D01*
X135379200Y-87625180D01*
X135283961Y-87577561D01*
X135188723Y-87482323D01*
X135141104Y-87291847D01*
X135141104Y-86958514D01*
X135188723Y-86768038D01*
X135283961Y-86672800D01*
X135379200Y-86625180D01*
X136236342Y-87625180D02*
X136236342Y-86625180D01*
X136807771Y-87625180D02*
X136379200Y-87053752D01*
X136807771Y-86625180D02*
X136236342Y-87196609D01*
X136998247Y-87720419D02*
X137760152Y-87720419D01*
X137998247Y-87625180D02*
X137998247Y-86625180D01*
X138379200Y-86625180D01*
X138474438Y-86672800D01*
X138522057Y-86720419D01*
X138569676Y-86815657D01*
X138569676Y-86958514D01*
X138522057Y-87053752D01*
X138474438Y-87101371D01*
X138379200Y-87148990D01*
X137998247Y-87148990D01*
X139569676Y-87625180D02*
X139236342Y-87148990D01*
X138998247Y-87625180D02*
X138998247Y-86625180D01*
X139379200Y-86625180D01*
X139474438Y-86672800D01*
X139522057Y-86720419D01*
X139569676Y-86815657D01*
X139569676Y-86958514D01*
X139522057Y-87053752D01*
X139474438Y-87101371D01*
X139379200Y-87148990D01*
X138998247Y-87148990D01*
X140188723Y-86625180D02*
X140379200Y-86625180D01*
X140474438Y-86672800D01*
X140569676Y-86768038D01*
X140617295Y-86958514D01*
X140617295Y-87291847D01*
X140569676Y-87482323D01*
X140474438Y-87577561D01*
X140379200Y-87625180D01*
X140188723Y-87625180D01*
X140093485Y-87577561D01*
X139998247Y-87482323D01*
X139950628Y-87291847D01*
X139950628Y-86958514D01*
X139998247Y-86768038D01*
X140093485Y-86672800D01*
X140188723Y-86625180D01*
X141569676Y-86672800D02*
X141474438Y-86625180D01*
X141331580Y-86625180D01*
X141188723Y-86672800D01*
X141093485Y-86768038D01*
X141045866Y-86863276D01*
X140998247Y-87053752D01*
X140998247Y-87196609D01*
X141045866Y-87387085D01*
X141093485Y-87482323D01*
X141188723Y-87577561D01*
X141331580Y-87625180D01*
X141426819Y-87625180D01*
X141569676Y-87577561D01*
X141617295Y-87529942D01*
X141617295Y-87196609D01*
X141426819Y-87196609D01*
X135130019Y-80478380D02*
X135463352Y-81478380D01*
X135796685Y-80478380D01*
X136320495Y-80478380D02*
X136510971Y-80478380D01*
X136606209Y-80526000D01*
X136701447Y-80621238D01*
X136749066Y-80811714D01*
X136749066Y-81145047D01*
X136701447Y-81335523D01*
X136606209Y-81430761D01*
X136510971Y-81478380D01*
X136320495Y-81478380D01*
X136225257Y-81430761D01*
X136130019Y-81335523D01*
X136082400Y-81145047D01*
X136082400Y-80811714D01*
X136130019Y-80621238D01*
X136225257Y-80526000D01*
X136320495Y-80478380D01*
X137177638Y-80478380D02*
X137177638Y-81287904D01*
X137225257Y-81383142D01*
X137272876Y-81430761D01*
X137368114Y-81478380D01*
X137558590Y-81478380D01*
X137653828Y-81430761D01*
X137701447Y-81383142D01*
X137749066Y-81287904D01*
X137749066Y-80478380D01*
X138082400Y-80478380D02*
X138653828Y-80478380D01*
X138368114Y-81478380D02*
X138368114Y-80478380D01*
X138749066Y-81573619D02*
X139510971Y-81573619D01*
X139701447Y-81430761D02*
X139844304Y-81478380D01*
X140082400Y-81478380D01*
X140177638Y-81430761D01*
X140225257Y-81383142D01*
X140272876Y-81287904D01*
X140272876Y-81192666D01*
X140225257Y-81097428D01*
X140177638Y-81049809D01*
X140082400Y-81002190D01*
X139891923Y-80954571D01*
X139796685Y-80906952D01*
X139749066Y-80859333D01*
X139701447Y-80764095D01*
X139701447Y-80668857D01*
X139749066Y-80573619D01*
X139796685Y-80526000D01*
X139891923Y-80478380D01*
X140130019Y-80478380D01*
X140272876Y-80526000D01*
X140701447Y-80954571D02*
X141034780Y-80954571D01*
X141177638Y-81478380D02*
X140701447Y-81478380D01*
X140701447Y-80478380D01*
X141177638Y-80478380D01*
X141463352Y-80478380D02*
X142034780Y-80478380D01*
X141749066Y-81478380D02*
X141749066Y-80478380D01*
X123241180Y-99833180D02*
X123574514Y-100833180D01*
X123907847Y-99833180D01*
X124574514Y-100309371D02*
X124717371Y-100356990D01*
X124764990Y-100404609D01*
X124812609Y-100499847D01*
X124812609Y-100642704D01*
X124764990Y-100737942D01*
X124717371Y-100785561D01*
X124622133Y-100833180D01*
X124241180Y-100833180D01*
X124241180Y-99833180D01*
X124574514Y-99833180D01*
X124669752Y-99880800D01*
X124717371Y-99928419D01*
X124764990Y-100023657D01*
X124764990Y-100118895D01*
X124717371Y-100214133D01*
X124669752Y-100261752D01*
X124574514Y-100309371D01*
X124241180Y-100309371D01*
X125193561Y-100547466D02*
X125669752Y-100547466D01*
X125098323Y-100833180D02*
X125431657Y-99833180D01*
X125764990Y-100833180D01*
X125955466Y-99833180D02*
X126526895Y-99833180D01*
X126241180Y-100833180D02*
X126241180Y-99833180D01*
X126622133Y-100928419D02*
X127384038Y-100928419D01*
X127812609Y-99833180D02*
X128003085Y-99833180D01*
X128098323Y-99880800D01*
X128193561Y-99976038D01*
X128241180Y-100166514D01*
X128241180Y-100499847D01*
X128193561Y-100690323D01*
X128098323Y-100785561D01*
X128003085Y-100833180D01*
X127812609Y-100833180D01*
X127717371Y-100785561D01*
X127622133Y-100690323D01*
X127574514Y-100499847D01*
X127574514Y-100166514D01*
X127622133Y-99976038D01*
X127717371Y-99880800D01*
X127812609Y-99833180D01*
X128669752Y-100833180D02*
X128669752Y-99833180D01*
X129241180Y-100833180D02*
X128812609Y-100261752D01*
X129241180Y-99833180D02*
X128669752Y-100404609D01*
X123171200Y-93838780D02*
X123504533Y-94838780D01*
X123837866Y-93838780D01*
X124742628Y-94838780D02*
X124409295Y-94362590D01*
X124171200Y-94838780D02*
X124171200Y-93838780D01*
X124552152Y-93838780D01*
X124647390Y-93886400D01*
X124695009Y-93934019D01*
X124742628Y-94029257D01*
X124742628Y-94172114D01*
X124695009Y-94267352D01*
X124647390Y-94314971D01*
X124552152Y-94362590D01*
X124171200Y-94362590D01*
X125171200Y-94838780D02*
X125171200Y-93838780D01*
X125409295Y-93838780D01*
X125552152Y-93886400D01*
X125647390Y-93981638D01*
X125695009Y-94076876D01*
X125742628Y-94267352D01*
X125742628Y-94410209D01*
X125695009Y-94600685D01*
X125647390Y-94695923D01*
X125552152Y-94791161D01*
X125409295Y-94838780D01*
X125171200Y-94838780D01*
X126171200Y-94838780D02*
X126171200Y-93838780D01*
X126504533Y-93838780D02*
X126837866Y-94838780D01*
X127171200Y-93838780D01*
X123109409Y-87844380D02*
X123442742Y-88844380D01*
X123776076Y-87844380D01*
X124442742Y-88320571D02*
X124585600Y-88368190D01*
X124633219Y-88415809D01*
X124680838Y-88511047D01*
X124680838Y-88653904D01*
X124633219Y-88749142D01*
X124585600Y-88796761D01*
X124490361Y-88844380D01*
X124109409Y-88844380D01*
X124109409Y-87844380D01*
X124442742Y-87844380D01*
X124537980Y-87892000D01*
X124585600Y-87939619D01*
X124633219Y-88034857D01*
X124633219Y-88130095D01*
X124585600Y-88225333D01*
X124537980Y-88272952D01*
X124442742Y-88320571D01*
X124109409Y-88320571D01*
X125061790Y-88558666D02*
X125537980Y-88558666D01*
X124966552Y-88844380D02*
X125299885Y-87844380D01*
X125633219Y-88844380D01*
X125823695Y-87844380D02*
X126395123Y-87844380D01*
X126109409Y-88844380D02*
X126109409Y-87844380D01*
X126490361Y-88939619D02*
X127252266Y-88939619D01*
X127680838Y-87844380D02*
X127871314Y-87844380D01*
X127966552Y-87892000D01*
X128061790Y-87987238D01*
X128109409Y-88177714D01*
X128109409Y-88511047D01*
X128061790Y-88701523D01*
X127966552Y-88796761D01*
X127871314Y-88844380D01*
X127680838Y-88844380D01*
X127585600Y-88796761D01*
X127490361Y-88701523D01*
X127442742Y-88511047D01*
X127442742Y-88177714D01*
X127490361Y-87987238D01*
X127585600Y-87892000D01*
X127680838Y-87844380D01*
X128395123Y-87844380D02*
X128728457Y-88844380D01*
X129061790Y-87844380D01*
X111709580Y-96937580D02*
X112042914Y-97937580D01*
X112376247Y-96937580D01*
X113042914Y-97413771D02*
X113185771Y-97461390D01*
X113233390Y-97509009D01*
X113281009Y-97604247D01*
X113281009Y-97747104D01*
X113233390Y-97842342D01*
X113185771Y-97889961D01*
X113090533Y-97937580D01*
X112709580Y-97937580D01*
X112709580Y-96937580D01*
X113042914Y-96937580D01*
X113138152Y-96985200D01*
X113185771Y-97032819D01*
X113233390Y-97128057D01*
X113233390Y-97223295D01*
X113185771Y-97318533D01*
X113138152Y-97366152D01*
X113042914Y-97413771D01*
X112709580Y-97413771D01*
X113661961Y-97651866D02*
X114138152Y-97651866D01*
X113566723Y-97937580D02*
X113900057Y-96937580D01*
X114233390Y-97937580D01*
X114423866Y-96937580D02*
X114995295Y-96937580D01*
X114709580Y-97937580D02*
X114709580Y-96937580D01*
X115090533Y-98032819D02*
X115852438Y-98032819D01*
X116281009Y-96937580D02*
X116471485Y-96937580D01*
X116566723Y-96985200D01*
X116661961Y-97080438D01*
X116709580Y-97270914D01*
X116709580Y-97604247D01*
X116661961Y-97794723D01*
X116566723Y-97889961D01*
X116471485Y-97937580D01*
X116281009Y-97937580D01*
X116185771Y-97889961D01*
X116090533Y-97794723D01*
X116042914Y-97604247D01*
X116042914Y-97270914D01*
X116090533Y-97080438D01*
X116185771Y-96985200D01*
X116281009Y-96937580D01*
X117138152Y-97937580D02*
X117138152Y-96937580D01*
X117709580Y-97937580D02*
X117281009Y-97366152D01*
X117709580Y-96937580D02*
X117138152Y-97509009D01*
X111688952Y-93533980D02*
X112022285Y-94533980D01*
X112355619Y-93533980D01*
X112879428Y-93533980D02*
X113069904Y-93533980D01*
X113165142Y-93581600D01*
X113260380Y-93676838D01*
X113308000Y-93867314D01*
X113308000Y-94200647D01*
X113260380Y-94391123D01*
X113165142Y-94486361D01*
X113069904Y-94533980D01*
X112879428Y-94533980D01*
X112784190Y-94486361D01*
X112688952Y-94391123D01*
X112641333Y-94200647D01*
X112641333Y-93867314D01*
X112688952Y-93676838D01*
X112784190Y-93581600D01*
X112879428Y-93533980D01*
X113736571Y-93533980D02*
X113736571Y-94343504D01*
X113784190Y-94438742D01*
X113831809Y-94486361D01*
X113927047Y-94533980D01*
X114117523Y-94533980D01*
X114212761Y-94486361D01*
X114260380Y-94438742D01*
X114308000Y-94343504D01*
X114308000Y-93533980D01*
X114641333Y-93533980D02*
X115212761Y-93533980D01*
X114927047Y-94533980D02*
X114927047Y-93533980D01*
X115308000Y-94629219D02*
X116069904Y-94629219D01*
X116308000Y-94010171D02*
X116641333Y-94010171D01*
X116784190Y-94533980D02*
X116308000Y-94533980D01*
X116308000Y-93533980D01*
X116784190Y-93533980D01*
X117212761Y-94533980D02*
X117212761Y-93533980D01*
X117784190Y-94533980D01*
X117784190Y-93533980D01*
X111628514Y-89977980D02*
X111961847Y-90977980D01*
X112295180Y-89977980D01*
X112580895Y-90930361D02*
X112723752Y-90977980D01*
X112961847Y-90977980D01*
X113057085Y-90930361D01*
X113104704Y-90882742D01*
X113152323Y-90787504D01*
X113152323Y-90692266D01*
X113104704Y-90597028D01*
X113057085Y-90549409D01*
X112961847Y-90501790D01*
X112771371Y-90454171D01*
X112676133Y-90406552D01*
X112628514Y-90358933D01*
X112580895Y-90263695D01*
X112580895Y-90168457D01*
X112628514Y-90073219D01*
X112676133Y-90025600D01*
X112771371Y-89977980D01*
X113009466Y-89977980D01*
X113152323Y-90025600D01*
X113438038Y-89977980D02*
X114009466Y-89977980D01*
X113723752Y-90977980D02*
X113723752Y-89977980D01*
X114533276Y-89977980D02*
X114723752Y-89977980D01*
X114818990Y-90025600D01*
X114914228Y-90120838D01*
X114961847Y-90311314D01*
X114961847Y-90644647D01*
X114914228Y-90835123D01*
X114818990Y-90930361D01*
X114723752Y-90977980D01*
X114533276Y-90977980D01*
X114438038Y-90930361D01*
X114342800Y-90835123D01*
X114295180Y-90644647D01*
X114295180Y-90311314D01*
X114342800Y-90120838D01*
X114438038Y-90025600D01*
X114533276Y-89977980D01*
X115961847Y-90977980D02*
X115628514Y-90501790D01*
X115390419Y-90977980D02*
X115390419Y-89977980D01*
X115771371Y-89977980D01*
X115866609Y-90025600D01*
X115914228Y-90073219D01*
X115961847Y-90168457D01*
X115961847Y-90311314D01*
X115914228Y-90406552D01*
X115866609Y-90454171D01*
X115771371Y-90501790D01*
X115390419Y-90501790D01*
X96439314Y-92670380D02*
X96772647Y-93670380D01*
X97105980Y-92670380D01*
X97391695Y-93622761D02*
X97534552Y-93670380D01*
X97772647Y-93670380D01*
X97867885Y-93622761D01*
X97915504Y-93575142D01*
X97963123Y-93479904D01*
X97963123Y-93384666D01*
X97915504Y-93289428D01*
X97867885Y-93241809D01*
X97772647Y-93194190D01*
X97582171Y-93146571D01*
X97486933Y-93098952D01*
X97439314Y-93051333D01*
X97391695Y-92956095D01*
X97391695Y-92860857D01*
X97439314Y-92765619D01*
X97486933Y-92718000D01*
X97582171Y-92670380D01*
X97820266Y-92670380D01*
X97963123Y-92718000D01*
X98248838Y-92670380D02*
X98820266Y-92670380D01*
X98534552Y-93670380D02*
X98534552Y-92670380D01*
X99344076Y-92670380D02*
X99534552Y-92670380D01*
X99629790Y-92718000D01*
X99725028Y-92813238D01*
X99772647Y-93003714D01*
X99772647Y-93337047D01*
X99725028Y-93527523D01*
X99629790Y-93622761D01*
X99534552Y-93670380D01*
X99344076Y-93670380D01*
X99248838Y-93622761D01*
X99153600Y-93527523D01*
X99105980Y-93337047D01*
X99105980Y-93003714D01*
X99153600Y-92813238D01*
X99248838Y-92718000D01*
X99344076Y-92670380D01*
X100772647Y-93670380D02*
X100439314Y-93194190D01*
X100201219Y-93670380D02*
X100201219Y-92670380D01*
X100582171Y-92670380D01*
X100677409Y-92718000D01*
X100725028Y-92765619D01*
X100772647Y-92860857D01*
X100772647Y-93003714D01*
X100725028Y-93098952D01*
X100677409Y-93146571D01*
X100582171Y-93194190D01*
X100201219Y-93194190D01*
X96398152Y-95159580D02*
X96731485Y-96159580D01*
X97064819Y-95159580D01*
X97588628Y-95159580D02*
X97779104Y-95159580D01*
X97874342Y-95207200D01*
X97969580Y-95302438D01*
X98017200Y-95492914D01*
X98017200Y-95826247D01*
X97969580Y-96016723D01*
X97874342Y-96111961D01*
X97779104Y-96159580D01*
X97588628Y-96159580D01*
X97493390Y-96111961D01*
X97398152Y-96016723D01*
X97350533Y-95826247D01*
X97350533Y-95492914D01*
X97398152Y-95302438D01*
X97493390Y-95207200D01*
X97588628Y-95159580D01*
X98445771Y-95159580D02*
X98445771Y-95969104D01*
X98493390Y-96064342D01*
X98541009Y-96111961D01*
X98636247Y-96159580D01*
X98826723Y-96159580D01*
X98921961Y-96111961D01*
X98969580Y-96064342D01*
X99017200Y-95969104D01*
X99017200Y-95159580D01*
X99350533Y-95159580D02*
X99921961Y-95159580D01*
X99636247Y-96159580D02*
X99636247Y-95159580D01*
X100017200Y-96254819D02*
X100779104Y-96254819D01*
X101017200Y-95635771D02*
X101350533Y-95635771D01*
X101493390Y-96159580D02*
X101017200Y-96159580D01*
X101017200Y-95159580D01*
X101493390Y-95159580D01*
X101921961Y-96159580D02*
X101921961Y-95159580D01*
X102493390Y-96159580D01*
X102493390Y-95159580D01*
X97231295Y-97493200D02*
X97136057Y-97445580D01*
X96993200Y-97445580D01*
X96850342Y-97493200D01*
X96755104Y-97588438D01*
X96707485Y-97683676D01*
X96659866Y-97874152D01*
X96659866Y-98017009D01*
X96707485Y-98207485D01*
X96755104Y-98302723D01*
X96850342Y-98397961D01*
X96993200Y-98445580D01*
X97088438Y-98445580D01*
X97231295Y-98397961D01*
X97278914Y-98350342D01*
X97278914Y-98017009D01*
X97088438Y-98017009D01*
X97707485Y-98445580D02*
X97707485Y-97445580D01*
X98278914Y-98445580D01*
X98278914Y-97445580D01*
X98755104Y-98445580D02*
X98755104Y-97445580D01*
X98993200Y-97445580D01*
X99136057Y-97493200D01*
X99231295Y-97588438D01*
X99278914Y-97683676D01*
X99326533Y-97874152D01*
X99326533Y-98017009D01*
X99278914Y-98207485D01*
X99231295Y-98302723D01*
X99136057Y-98397961D01*
X98993200Y-98445580D01*
X98755104Y-98445580D01*
X89238342Y-80325980D02*
X89571676Y-81325980D01*
X89905009Y-80325980D01*
X90571676Y-80802171D02*
X90714533Y-80849790D01*
X90762152Y-80897409D01*
X90809771Y-80992647D01*
X90809771Y-81135504D01*
X90762152Y-81230742D01*
X90714533Y-81278361D01*
X90619295Y-81325980D01*
X90238342Y-81325980D01*
X90238342Y-80325980D01*
X90571676Y-80325980D01*
X90666914Y-80373600D01*
X90714533Y-80421219D01*
X90762152Y-80516457D01*
X90762152Y-80611695D01*
X90714533Y-80706933D01*
X90666914Y-80754552D01*
X90571676Y-80802171D01*
X90238342Y-80802171D01*
X91190723Y-81040266D02*
X91666914Y-81040266D01*
X91095485Y-81325980D02*
X91428819Y-80325980D01*
X91762152Y-81325980D01*
X91952628Y-80325980D02*
X92524057Y-80325980D01*
X92238342Y-81325980D02*
X92238342Y-80325980D01*
X90282780Y-82564361D02*
X89425638Y-83850076D01*
X90616114Y-83088171D02*
X90949447Y-83088171D01*
X91092304Y-83611980D02*
X90616114Y-83611980D01*
X90616114Y-82611980D01*
X91092304Y-82611980D01*
X91520876Y-83611980D02*
X91520876Y-82611980D01*
X92092304Y-83611980D01*
X92092304Y-82611980D01*
X90220895Y-85352000D02*
X90125657Y-85304380D01*
X89982800Y-85304380D01*
X89839942Y-85352000D01*
X89744704Y-85447238D01*
X89697085Y-85542476D01*
X89649466Y-85732952D01*
X89649466Y-85875809D01*
X89697085Y-86066285D01*
X89744704Y-86161523D01*
X89839942Y-86256761D01*
X89982800Y-86304380D01*
X90078038Y-86304380D01*
X90220895Y-86256761D01*
X90268514Y-86209142D01*
X90268514Y-85875809D01*
X90078038Y-85875809D01*
X90697085Y-86304380D02*
X90697085Y-85304380D01*
X91268514Y-86304380D01*
X91268514Y-85304380D01*
X91744704Y-86304380D02*
X91744704Y-85304380D01*
X91982800Y-85304380D01*
X92125657Y-85352000D01*
X92220895Y-85447238D01*
X92268514Y-85542476D01*
X92316133Y-85732952D01*
X92316133Y-85875809D01*
X92268514Y-86066285D01*
X92220895Y-86161523D01*
X92125657Y-86256761D01*
X91982800Y-86304380D01*
X91744704Y-86304380D01*
X91635676Y-72740780D02*
X91635676Y-71740780D01*
X92016628Y-71740780D01*
X92111866Y-71788400D01*
X92159485Y-71836019D01*
X92207104Y-71931257D01*
X92207104Y-72074114D01*
X92159485Y-72169352D01*
X92111866Y-72216971D01*
X92016628Y-72264590D01*
X91635676Y-72264590D01*
X92635676Y-72216971D02*
X92969009Y-72216971D01*
X93111866Y-72740780D02*
X92635676Y-72740780D01*
X92635676Y-71740780D01*
X93111866Y-71740780D01*
X94016628Y-72740780D02*
X93540438Y-72740780D01*
X93540438Y-71740780D01*
X94207104Y-71740780D02*
X94778533Y-71740780D01*
X94492819Y-72740780D02*
X94492819Y-71740780D01*
X95111866Y-72740780D02*
X95111866Y-71740780D01*
X95588057Y-72216971D02*
X95921390Y-72216971D01*
X96064247Y-72740780D02*
X95588057Y-72740780D01*
X95588057Y-71740780D01*
X96064247Y-71740780D01*
X97064247Y-72740780D02*
X96730914Y-72264590D01*
X96492819Y-72740780D02*
X96492819Y-71740780D01*
X96873771Y-71740780D01*
X96969009Y-71788400D01*
X97016628Y-71836019D01*
X97064247Y-71931257D01*
X97064247Y-72074114D01*
X97016628Y-72169352D01*
X96969009Y-72216971D01*
X96873771Y-72264590D01*
X96492819Y-72264590D01*
X97492819Y-72359828D02*
X98254723Y-72359828D01*
X91635676Y-70099180D02*
X91635676Y-69099180D01*
X92016628Y-69099180D01*
X92111866Y-69146800D01*
X92159485Y-69194419D01*
X92207104Y-69289657D01*
X92207104Y-69432514D01*
X92159485Y-69527752D01*
X92111866Y-69575371D01*
X92016628Y-69622990D01*
X91635676Y-69622990D01*
X92635676Y-69575371D02*
X92969009Y-69575371D01*
X93111866Y-70099180D02*
X92635676Y-70099180D01*
X92635676Y-69099180D01*
X93111866Y-69099180D01*
X94016628Y-70099180D02*
X93540438Y-70099180D01*
X93540438Y-69099180D01*
X94207104Y-69099180D02*
X94778533Y-69099180D01*
X94492819Y-70099180D02*
X94492819Y-69099180D01*
X95111866Y-70099180D02*
X95111866Y-69099180D01*
X95588057Y-69575371D02*
X95921390Y-69575371D01*
X96064247Y-70099180D02*
X95588057Y-70099180D01*
X95588057Y-69099180D01*
X96064247Y-69099180D01*
X97064247Y-70099180D02*
X96730914Y-69622990D01*
X96492819Y-70099180D02*
X96492819Y-69099180D01*
X96873771Y-69099180D01*
X96969009Y-69146800D01*
X97016628Y-69194419D01*
X97064247Y-69289657D01*
X97064247Y-69432514D01*
X97016628Y-69527752D01*
X96969009Y-69575371D01*
X96873771Y-69622990D01*
X96492819Y-69622990D01*
X97492819Y-69718228D02*
X98254723Y-69718228D01*
X97873771Y-70099180D02*
X97873771Y-69337276D01*
X112034914Y-55535580D02*
X112368247Y-56535580D01*
X112701580Y-55535580D01*
X112987295Y-56487961D02*
X113130152Y-56535580D01*
X113368247Y-56535580D01*
X113463485Y-56487961D01*
X113511104Y-56440342D01*
X113558723Y-56345104D01*
X113558723Y-56249866D01*
X113511104Y-56154628D01*
X113463485Y-56107009D01*
X113368247Y-56059390D01*
X113177771Y-56011771D01*
X113082533Y-55964152D01*
X113034914Y-55916533D01*
X112987295Y-55821295D01*
X112987295Y-55726057D01*
X113034914Y-55630819D01*
X113082533Y-55583200D01*
X113177771Y-55535580D01*
X113415866Y-55535580D01*
X113558723Y-55583200D01*
X113844438Y-55535580D02*
X114415866Y-55535580D01*
X114130152Y-56535580D02*
X114130152Y-55535580D01*
X114939676Y-55535580D02*
X115130152Y-55535580D01*
X115225390Y-55583200D01*
X115320628Y-55678438D01*
X115368247Y-55868914D01*
X115368247Y-56202247D01*
X115320628Y-56392723D01*
X115225390Y-56487961D01*
X115130152Y-56535580D01*
X114939676Y-56535580D01*
X114844438Y-56487961D01*
X114749200Y-56392723D01*
X114701580Y-56202247D01*
X114701580Y-55868914D01*
X114749200Y-55678438D01*
X114844438Y-55583200D01*
X114939676Y-55535580D01*
X116368247Y-56535580D02*
X116034914Y-56059390D01*
X115796819Y-56535580D02*
X115796819Y-55535580D01*
X116177771Y-55535580D01*
X116273009Y-55583200D01*
X116320628Y-55630819D01*
X116368247Y-55726057D01*
X116368247Y-55868914D01*
X116320628Y-55964152D01*
X116273009Y-56011771D01*
X116177771Y-56059390D01*
X115796819Y-56059390D01*
X110374895Y-49782361D02*
X110517752Y-49829980D01*
X110755847Y-49829980D01*
X110851085Y-49782361D01*
X110898704Y-49734742D01*
X110946323Y-49639504D01*
X110946323Y-49544266D01*
X110898704Y-49449028D01*
X110851085Y-49401409D01*
X110755847Y-49353790D01*
X110565371Y-49306171D01*
X110470133Y-49258552D01*
X110422514Y-49210933D01*
X110374895Y-49115695D01*
X110374895Y-49020457D01*
X110422514Y-48925219D01*
X110470133Y-48877600D01*
X110565371Y-48829980D01*
X110803466Y-48829980D01*
X110946323Y-48877600D01*
X111374895Y-48829980D02*
X111374895Y-49639504D01*
X111422514Y-49734742D01*
X111470133Y-49782361D01*
X111565371Y-49829980D01*
X111755847Y-49829980D01*
X111851085Y-49782361D01*
X111898704Y-49734742D01*
X111946323Y-49639504D01*
X111946323Y-48829980D01*
X112422514Y-49829980D02*
X112422514Y-48829980D01*
X112803466Y-48829980D01*
X112898704Y-48877600D01*
X112946323Y-48925219D01*
X112993942Y-49020457D01*
X112993942Y-49163314D01*
X112946323Y-49258552D01*
X112898704Y-49306171D01*
X112803466Y-49353790D01*
X112422514Y-49353790D01*
X113422514Y-49306171D02*
X113755847Y-49306171D01*
X113898704Y-49829980D02*
X113422514Y-49829980D01*
X113422514Y-48829980D01*
X113898704Y-48829980D01*
X114898704Y-49829980D02*
X114565371Y-49353790D01*
X114327276Y-49829980D02*
X114327276Y-48829980D01*
X114708228Y-48829980D01*
X114803466Y-48877600D01*
X114851085Y-48925219D01*
X114898704Y-49020457D01*
X114898704Y-49163314D01*
X114851085Y-49258552D01*
X114803466Y-49306171D01*
X114708228Y-49353790D01*
X114327276Y-49353790D01*
X115898704Y-49734742D02*
X115851085Y-49782361D01*
X115708228Y-49829980D01*
X115612990Y-49829980D01*
X115470133Y-49782361D01*
X115374895Y-49687123D01*
X115327276Y-49591885D01*
X115279657Y-49401409D01*
X115279657Y-49258552D01*
X115327276Y-49068076D01*
X115374895Y-48972838D01*
X115470133Y-48877600D01*
X115612990Y-48829980D01*
X115708228Y-48829980D01*
X115851085Y-48877600D01*
X115898704Y-48925219D01*
X116279657Y-49544266D02*
X116755847Y-49544266D01*
X116184419Y-49829980D02*
X116517752Y-48829980D01*
X116851085Y-49829980D01*
X117184419Y-49829980D02*
X117184419Y-48829980D01*
X117565371Y-48829980D01*
X117660609Y-48877600D01*
X117708228Y-48925219D01*
X117755847Y-49020457D01*
X117755847Y-49163314D01*
X117708228Y-49258552D01*
X117660609Y-49306171D01*
X117565371Y-49353790D01*
X117184419Y-49353790D01*
X118136800Y-49544266D02*
X118612990Y-49544266D01*
X118041561Y-49829980D02*
X118374895Y-48829980D01*
X118708228Y-49829980D01*
X119612990Y-49734742D02*
X119565371Y-49782361D01*
X119422514Y-49829980D01*
X119327276Y-49829980D01*
X119184419Y-49782361D01*
X119089180Y-49687123D01*
X119041561Y-49591885D01*
X118993942Y-49401409D01*
X118993942Y-49258552D01*
X119041561Y-49068076D01*
X119089180Y-48972838D01*
X119184419Y-48877600D01*
X119327276Y-48829980D01*
X119422514Y-48829980D01*
X119565371Y-48877600D01*
X119612990Y-48925219D01*
X120041561Y-49829980D02*
X120041561Y-48829980D01*
X120374895Y-48829980D02*
X120946323Y-48829980D01*
X120660609Y-49829980D02*
X120660609Y-48829980D01*
X121470133Y-48829980D02*
X121660609Y-48829980D01*
X121755847Y-48877600D01*
X121851085Y-48972838D01*
X121898704Y-49163314D01*
X121898704Y-49496647D01*
X121851085Y-49687123D01*
X121755847Y-49782361D01*
X121660609Y-49829980D01*
X121470133Y-49829980D01*
X121374895Y-49782361D01*
X121279657Y-49687123D01*
X121232038Y-49496647D01*
X121232038Y-49163314D01*
X121279657Y-48972838D01*
X121374895Y-48877600D01*
X121470133Y-48829980D01*
X122898704Y-49829980D02*
X122565371Y-49353790D01*
X122327276Y-49829980D02*
X122327276Y-48829980D01*
X122708228Y-48829980D01*
X122803466Y-48877600D01*
X122851085Y-48925219D01*
X122898704Y-49020457D01*
X122898704Y-49163314D01*
X122851085Y-49258552D01*
X122803466Y-49306171D01*
X122708228Y-49353790D01*
X122327276Y-49353790D01*
X138633295Y-71483600D02*
X138538057Y-71435980D01*
X138395200Y-71435980D01*
X138252342Y-71483600D01*
X138157104Y-71578838D01*
X138109485Y-71674076D01*
X138061866Y-71864552D01*
X138061866Y-72007409D01*
X138109485Y-72197885D01*
X138157104Y-72293123D01*
X138252342Y-72388361D01*
X138395200Y-72435980D01*
X138490438Y-72435980D01*
X138633295Y-72388361D01*
X138680914Y-72340742D01*
X138680914Y-72007409D01*
X138490438Y-72007409D01*
X139109485Y-72435980D02*
X139109485Y-71435980D01*
X139680914Y-72435980D01*
X139680914Y-71435980D01*
X140157104Y-72435980D02*
X140157104Y-71435980D01*
X140395200Y-71435980D01*
X140538057Y-71483600D01*
X140633295Y-71578838D01*
X140680914Y-71674076D01*
X140728533Y-71864552D01*
X140728533Y-72007409D01*
X140680914Y-72197885D01*
X140633295Y-72293123D01*
X140538057Y-72388361D01*
X140395200Y-72435980D01*
X140157104Y-72435980D01*
X137226895Y-68845180D02*
X137560228Y-69845180D01*
X137893561Y-68845180D01*
X138417371Y-68845180D02*
X138607847Y-68845180D01*
X138703085Y-68892800D01*
X138798323Y-68988038D01*
X138845942Y-69178514D01*
X138845942Y-69511847D01*
X138798323Y-69702323D01*
X138703085Y-69797561D01*
X138607847Y-69845180D01*
X138417371Y-69845180D01*
X138322133Y-69797561D01*
X138226895Y-69702323D01*
X138179276Y-69511847D01*
X138179276Y-69178514D01*
X138226895Y-68988038D01*
X138322133Y-68892800D01*
X138417371Y-68845180D01*
X139274514Y-68845180D02*
X139274514Y-69654704D01*
X139322133Y-69749942D01*
X139369752Y-69797561D01*
X139464990Y-69845180D01*
X139655466Y-69845180D01*
X139750704Y-69797561D01*
X139798323Y-69749942D01*
X139845942Y-69654704D01*
X139845942Y-68845180D01*
X140179276Y-68845180D02*
X140750704Y-68845180D01*
X140464990Y-69845180D02*
X140464990Y-68845180D01*
D11*
X176220120Y-38864540D02*
X176202340Y-38879780D01*
X112742420Y-69714820D02*
X113192420Y-69714820D01*
X112742420Y-73434820D02*
X112742420Y-72984820D01*
X112742420Y-73454820D02*
X113212420Y-73454820D01*
X116482420Y-73454820D02*
X116012420Y-73454820D01*
X116482420Y-73434820D02*
X116482420Y-72984820D01*
X116482420Y-69734820D02*
X116482420Y-70184820D01*
X116482420Y-69714820D02*
X116012420Y-69714820D01*
X119828000Y-92904000D02*
X121158000Y-92904000D01*
X119828000Y-94234000D02*
X119828000Y-92904000D01*
X119828000Y-95504000D02*
X122488000Y-95504000D01*
X122488000Y-95504000D02*
X122488000Y-95564000D01*
X119828000Y-95504000D02*
X119828000Y-95564000D01*
X119828000Y-95564000D02*
X122488000Y-95564000D01*
X105154252Y-89714000D02*
X104631748Y-89714000D01*
X105154252Y-91134000D02*
X104631748Y-91134000D01*
X105154252Y-93270000D02*
X104631748Y-93270000D01*
X105154252Y-94690000D02*
X104631748Y-94690000D01*
X105154252Y-96826000D02*
X104631748Y-96826000D01*
X105154252Y-98246000D02*
X104631748Y-98246000D01*
X123646000Y-72642252D02*
X123646000Y-72119748D01*
X122226000Y-72642252D02*
X122226000Y-72119748D01*
X122674748Y-77418000D02*
X123197252Y-77418000D01*
X122674748Y-75998000D02*
X123197252Y-75998000D01*
X121718000Y-80755748D02*
X121718000Y-81278252D01*
X123138000Y-80755748D02*
X123138000Y-81278252D01*
X119582000Y-81283552D02*
X119582000Y-80761048D01*
X118162000Y-81283552D02*
X118162000Y-80761048D01*
X116026000Y-81296252D02*
X116026000Y-80773748D01*
X114606000Y-81296252D02*
X114606000Y-80773748D01*
X108002000Y-80773748D02*
X108002000Y-81296252D01*
X109422000Y-80773748D02*
X109422000Y-81296252D01*
X112524000Y-81197267D02*
X112524000Y-80854733D01*
X111504000Y-81197267D02*
X111504000Y-80854733D01*
X120909000Y-65002000D02*
X121889000Y-65002000D01*
X120909000Y-60982000D02*
X121889000Y-60982000D01*
X108743000Y-65002000D02*
X109723000Y-65002000D01*
X108743000Y-60982000D02*
X109723000Y-60982000D01*
X131766000Y-79696000D02*
X133096000Y-79696000D01*
X131766000Y-81026000D02*
X131766000Y-79696000D01*
X131766000Y-82296000D02*
X134426000Y-82296000D01*
X134426000Y-82296000D02*
X134426000Y-82356000D01*
X131766000Y-82296000D02*
X131766000Y-82356000D01*
X131766000Y-82356000D02*
X134426000Y-82356000D01*
X131766000Y-85792000D02*
X133096000Y-85792000D01*
X131766000Y-87122000D02*
X131766000Y-85792000D01*
X131766000Y-88392000D02*
X134426000Y-88392000D01*
X134426000Y-88392000D02*
X134426000Y-88452000D01*
X131766000Y-88392000D02*
X131766000Y-88452000D01*
X131766000Y-88452000D02*
X134426000Y-88452000D01*
X131766000Y-91888000D02*
X133096000Y-91888000D01*
X131766000Y-93218000D02*
X131766000Y-91888000D01*
X131766000Y-94488000D02*
X134426000Y-94488000D01*
X134426000Y-94488000D02*
X134426000Y-94548000D01*
X131766000Y-94488000D02*
X131766000Y-94548000D01*
X131766000Y-94548000D02*
X134426000Y-94548000D01*
X119828000Y-86808000D02*
X121158000Y-86808000D01*
X119828000Y-88138000D02*
X119828000Y-86808000D01*
X119828000Y-89408000D02*
X122488000Y-89408000D01*
X122488000Y-89408000D02*
X122488000Y-89468000D01*
X119828000Y-89408000D02*
X119828000Y-89468000D01*
X119828000Y-89468000D02*
X122488000Y-89468000D01*
X119828000Y-99000000D02*
X121158000Y-99000000D01*
X119828000Y-100330000D02*
X119828000Y-99000000D01*
X119828000Y-101600000D02*
X122488000Y-101600000D01*
X122488000Y-101600000D02*
X122488000Y-101660000D01*
X119828000Y-101600000D02*
X119828000Y-101660000D01*
X119828000Y-101660000D02*
X122488000Y-101660000D01*
X109160000Y-54550000D02*
X110490000Y-54550000D01*
X109160000Y-55880000D02*
X109160000Y-54550000D01*
X109160000Y-57150000D02*
X111820000Y-57150000D01*
X111820000Y-57150000D02*
X111820000Y-57210000D01*
X109160000Y-57150000D02*
X109160000Y-57210000D01*
X109160000Y-57210000D02*
X111820000Y-57210000D01*
X93158000Y-91634000D02*
X94488000Y-91634000D01*
X93158000Y-92964000D02*
X93158000Y-91634000D01*
X93158000Y-94234000D02*
X95818000Y-94234000D01*
X95818000Y-94234000D02*
X95818000Y-99374000D01*
X93158000Y-94234000D02*
X93158000Y-99374000D01*
X93158000Y-99374000D02*
X95818000Y-99374000D01*
X93158000Y-79442000D02*
X94488000Y-79442000D01*
X93158000Y-80772000D02*
X93158000Y-79442000D01*
X93158000Y-82042000D02*
X95818000Y-82042000D01*
X95818000Y-82042000D02*
X95818000Y-87182000D01*
X93158000Y-82042000D02*
X93158000Y-87182000D01*
X93158000Y-87182000D02*
X95818000Y-87182000D01*
X141418000Y-68012000D02*
X142748000Y-68012000D01*
X141418000Y-69342000D02*
X141418000Y-68012000D01*
X141418000Y-70612000D02*
X144078000Y-70612000D01*
X144078000Y-70612000D02*
X144078000Y-73212000D01*
X141418000Y-70612000D02*
X141418000Y-73212000D01*
X141418000Y-73212000D02*
X144078000Y-73212000D01*
X88586000Y-68266000D02*
X89916000Y-68266000D01*
X88586000Y-69596000D02*
X88586000Y-68266000D01*
X88586000Y-70866000D02*
X91246000Y-70866000D01*
X91246000Y-70866000D02*
X91246000Y-73466000D01*
X88586000Y-70866000D02*
X88586000Y-73466000D01*
X88586000Y-73466000D02*
X91246000Y-73466000D01*
X111325000Y-89464000D02*
X108465000Y-89464000D01*
X111325000Y-91384000D02*
X111325000Y-89464000D01*
X108465000Y-91384000D02*
X111325000Y-91384000D01*
X111325000Y-93020000D02*
X108465000Y-93020000D01*
X111325000Y-94940000D02*
X111325000Y-93020000D01*
X108465000Y-94940000D02*
X111325000Y-94940000D01*
X111325000Y-96576000D02*
X108465000Y-96576000D01*
X111325000Y-98496000D02*
X111325000Y-96576000D01*
X108465000Y-98496000D02*
X111325000Y-98496000D01*
X124518052Y-67108000D02*
X123995548Y-67108000D01*
X124518052Y-68528000D02*
X123995548Y-68528000D01*
X115054748Y-65480000D02*
X115577252Y-65480000D01*
X115054748Y-64060000D02*
X115577252Y-64060000D01*
X115063748Y-61924000D02*
X115586252Y-61924000D01*
X115063748Y-60504000D02*
X115586252Y-60504000D01*
X104446000Y-80764748D02*
X104446000Y-81287252D01*
X105866000Y-80764748D02*
X105866000Y-81287252D01*
X107240000Y-70858748D02*
X107240000Y-71381252D01*
X108660000Y-70858748D02*
X108660000Y-71381252D01*
D10*
X113850515Y-74207200D02*
X113850515Y-75016724D01*
X113898134Y-75111962D01*
X113945753Y-75159581D01*
X114040991Y-75207200D01*
X114231467Y-75207200D01*
X114326705Y-75159581D01*
X114374324Y-75111962D01*
X114421943Y-75016724D01*
X114421943Y-74207200D01*
X115421943Y-75207200D02*
X114850515Y-75207200D01*
X115136229Y-75207200D02*
X115136229Y-74207200D01*
X115040991Y-74350058D01*
X114945753Y-74445296D01*
X114850515Y-74492915D01*
X120348476Y-91356380D02*
X120348476Y-92070666D01*
X120300857Y-92213523D01*
X120205619Y-92308761D01*
X120062761Y-92356380D01*
X119967523Y-92356380D01*
X121348476Y-92356380D02*
X120777047Y-92356380D01*
X121062761Y-92356380D02*
X121062761Y-91356380D01*
X120967523Y-91499238D01*
X120872285Y-91594476D01*
X120777047Y-91642095D01*
X121729428Y-91451619D02*
X121777047Y-91404000D01*
X121872285Y-91356380D01*
X122110380Y-91356380D01*
X122205619Y-91404000D01*
X122253238Y-91451619D01*
X122300857Y-91546857D01*
X122300857Y-91642095D01*
X122253238Y-91784952D01*
X121681809Y-92356380D01*
X122300857Y-92356380D01*
X104250142Y-92526380D02*
X103916809Y-92050190D01*
X103678714Y-92526380D02*
X103678714Y-91526380D01*
X104059666Y-91526380D01*
X104154904Y-91574000D01*
X104202523Y-91621619D01*
X104250142Y-91716857D01*
X104250142Y-91859714D01*
X104202523Y-91954952D01*
X104154904Y-92002571D01*
X104059666Y-92050190D01*
X103678714Y-92050190D01*
X105202523Y-92526380D02*
X104631095Y-92526380D01*
X104916809Y-92526380D02*
X104916809Y-91526380D01*
X104821571Y-91669238D01*
X104726333Y-91764476D01*
X104631095Y-91812095D01*
X105821571Y-91526380D02*
X105916809Y-91526380D01*
X106012047Y-91574000D01*
X106059666Y-91621619D01*
X106107285Y-91716857D01*
X106154904Y-91907333D01*
X106154904Y-92145428D01*
X106107285Y-92335904D01*
X106059666Y-92431142D01*
X106012047Y-92478761D01*
X105916809Y-92526380D01*
X105821571Y-92526380D01*
X105726333Y-92478761D01*
X105678714Y-92431142D01*
X105631095Y-92335904D01*
X105583476Y-92145428D01*
X105583476Y-91907333D01*
X105631095Y-91716857D01*
X105678714Y-91621619D01*
X105726333Y-91574000D01*
X105821571Y-91526380D01*
X104726333Y-96082380D02*
X104393000Y-95606190D01*
X104154904Y-96082380D02*
X104154904Y-95082380D01*
X104535857Y-95082380D01*
X104631095Y-95130000D01*
X104678714Y-95177619D01*
X104726333Y-95272857D01*
X104726333Y-95415714D01*
X104678714Y-95510952D01*
X104631095Y-95558571D01*
X104535857Y-95606190D01*
X104154904Y-95606190D01*
X105202523Y-96082380D02*
X105393000Y-96082380D01*
X105488238Y-96034761D01*
X105535857Y-95987142D01*
X105631095Y-95844285D01*
X105678714Y-95653809D01*
X105678714Y-95272857D01*
X105631095Y-95177619D01*
X105583476Y-95130000D01*
X105488238Y-95082380D01*
X105297761Y-95082380D01*
X105202523Y-95130000D01*
X105154904Y-95177619D01*
X105107285Y-95272857D01*
X105107285Y-95510952D01*
X105154904Y-95606190D01*
X105202523Y-95653809D01*
X105297761Y-95701428D01*
X105488238Y-95701428D01*
X105583476Y-95653809D01*
X105631095Y-95606190D01*
X105678714Y-95510952D01*
X104726333Y-99638380D02*
X104393000Y-99162190D01*
X104154904Y-99638380D02*
X104154904Y-98638380D01*
X104535857Y-98638380D01*
X104631095Y-98686000D01*
X104678714Y-98733619D01*
X104726333Y-98828857D01*
X104726333Y-98971714D01*
X104678714Y-99066952D01*
X104631095Y-99114571D01*
X104535857Y-99162190D01*
X104154904Y-99162190D01*
X105297761Y-99066952D02*
X105202523Y-99019333D01*
X105154904Y-98971714D01*
X105107285Y-98876476D01*
X105107285Y-98828857D01*
X105154904Y-98733619D01*
X105202523Y-98686000D01*
X105297761Y-98638380D01*
X105488238Y-98638380D01*
X105583476Y-98686000D01*
X105631095Y-98733619D01*
X105678714Y-98828857D01*
X105678714Y-98876476D01*
X105631095Y-98971714D01*
X105583476Y-99019333D01*
X105488238Y-99066952D01*
X105297761Y-99066952D01*
X105202523Y-99114571D01*
X105154904Y-99162190D01*
X105107285Y-99257428D01*
X105107285Y-99447904D01*
X105154904Y-99543142D01*
X105202523Y-99590761D01*
X105297761Y-99638380D01*
X105488238Y-99638380D01*
X105583476Y-99590761D01*
X105631095Y-99543142D01*
X105678714Y-99447904D01*
X105678714Y-99257428D01*
X105631095Y-99162190D01*
X105583476Y-99114571D01*
X105488238Y-99066952D01*
X121738380Y-72547666D02*
X121262190Y-72881000D01*
X121738380Y-73119095D02*
X120738380Y-73119095D01*
X120738380Y-72738142D01*
X120786000Y-72642904D01*
X120833619Y-72595285D01*
X120928857Y-72547666D01*
X121071714Y-72547666D01*
X121166952Y-72595285D01*
X121214571Y-72642904D01*
X121262190Y-72738142D01*
X121262190Y-73119095D01*
X120738380Y-72214333D02*
X120738380Y-71547666D01*
X121738380Y-71976238D01*
X122769333Y-75510380D02*
X122436000Y-75034190D01*
X122197904Y-75510380D02*
X122197904Y-74510380D01*
X122578857Y-74510380D01*
X122674095Y-74558000D01*
X122721714Y-74605619D01*
X122769333Y-74700857D01*
X122769333Y-74843714D01*
X122721714Y-74938952D01*
X122674095Y-74986571D01*
X122578857Y-75034190D01*
X122197904Y-75034190D01*
X123626476Y-74510380D02*
X123436000Y-74510380D01*
X123340761Y-74558000D01*
X123293142Y-74605619D01*
X123197904Y-74748476D01*
X123150285Y-74938952D01*
X123150285Y-75319904D01*
X123197904Y-75415142D01*
X123245523Y-75462761D01*
X123340761Y-75510380D01*
X123531238Y-75510380D01*
X123626476Y-75462761D01*
X123674095Y-75415142D01*
X123721714Y-75319904D01*
X123721714Y-75081809D01*
X123674095Y-74986571D01*
X123626476Y-74938952D01*
X123531238Y-74891333D01*
X123340761Y-74891333D01*
X123245523Y-74938952D01*
X123197904Y-74986571D01*
X123150285Y-75081809D01*
X122880380Y-83986666D02*
X122404190Y-84320000D01*
X122880380Y-84558095D02*
X121880380Y-84558095D01*
X121880380Y-84177142D01*
X121928000Y-84081904D01*
X121975619Y-84034285D01*
X122070857Y-83986666D01*
X122213714Y-83986666D01*
X122308952Y-84034285D01*
X122356571Y-84081904D01*
X122404190Y-84177142D01*
X122404190Y-84558095D01*
X121880380Y-83081904D02*
X121880380Y-83558095D01*
X122356571Y-83605714D01*
X122308952Y-83558095D01*
X122261333Y-83462857D01*
X122261333Y-83224761D01*
X122308952Y-83129523D01*
X122356571Y-83081904D01*
X122451809Y-83034285D01*
X122689904Y-83034285D01*
X122785142Y-83081904D01*
X122832761Y-83129523D01*
X122880380Y-83224761D01*
X122880380Y-83462857D01*
X122832761Y-83558095D01*
X122785142Y-83605714D01*
X119324380Y-83986666D02*
X118848190Y-84320000D01*
X119324380Y-84558095D02*
X118324380Y-84558095D01*
X118324380Y-84177142D01*
X118372000Y-84081904D01*
X118419619Y-84034285D01*
X118514857Y-83986666D01*
X118657714Y-83986666D01*
X118752952Y-84034285D01*
X118800571Y-84081904D01*
X118848190Y-84177142D01*
X118848190Y-84558095D01*
X118657714Y-83129523D02*
X119324380Y-83129523D01*
X118276761Y-83367619D02*
X118991047Y-83605714D01*
X118991047Y-82986666D01*
X115768380Y-83986666D02*
X115292190Y-84320000D01*
X115768380Y-84558095D02*
X114768380Y-84558095D01*
X114768380Y-84177142D01*
X114816000Y-84081904D01*
X114863619Y-84034285D01*
X114958857Y-83986666D01*
X115101714Y-83986666D01*
X115196952Y-84034285D01*
X115244571Y-84081904D01*
X115292190Y-84177142D01*
X115292190Y-84558095D01*
X114768380Y-83653333D02*
X114768380Y-83034285D01*
X115149333Y-83367619D01*
X115149333Y-83224761D01*
X115196952Y-83129523D01*
X115244571Y-83081904D01*
X115339809Y-83034285D01*
X115577904Y-83034285D01*
X115673142Y-83081904D01*
X115720761Y-83129523D01*
X115768380Y-83224761D01*
X115768380Y-83510476D01*
X115720761Y-83605714D01*
X115673142Y-83653333D01*
X109164380Y-83986666D02*
X108688190Y-84320000D01*
X109164380Y-84558095D02*
X108164380Y-84558095D01*
X108164380Y-84177142D01*
X108212000Y-84081904D01*
X108259619Y-84034285D01*
X108354857Y-83986666D01*
X108497714Y-83986666D01*
X108592952Y-84034285D01*
X108640571Y-84081904D01*
X108688190Y-84177142D01*
X108688190Y-84558095D01*
X108259619Y-83605714D02*
X108212000Y-83558095D01*
X108164380Y-83462857D01*
X108164380Y-83224761D01*
X108212000Y-83129523D01*
X108259619Y-83081904D01*
X108354857Y-83034285D01*
X108450095Y-83034285D01*
X108592952Y-83081904D01*
X109164380Y-83653333D01*
X109164380Y-83034285D01*
X112466380Y-83986666D02*
X111990190Y-84320000D01*
X112466380Y-84558095D02*
X111466380Y-84558095D01*
X111466380Y-84177142D01*
X111514000Y-84081904D01*
X111561619Y-84034285D01*
X111656857Y-83986666D01*
X111799714Y-83986666D01*
X111894952Y-84034285D01*
X111942571Y-84081904D01*
X111990190Y-84177142D01*
X111990190Y-84558095D01*
X112466380Y-83034285D02*
X112466380Y-83605714D01*
X112466380Y-83320000D02*
X111466380Y-83320000D01*
X111609238Y-83415238D01*
X111704476Y-83510476D01*
X111752095Y-83605714D01*
X121232333Y-60444380D02*
X120756142Y-60444380D01*
X120756142Y-59444380D01*
X121518047Y-59539619D02*
X121565666Y-59492000D01*
X121660904Y-59444380D01*
X121899000Y-59444380D01*
X121994238Y-59492000D01*
X122041857Y-59539619D01*
X122089476Y-59634857D01*
X122089476Y-59730095D01*
X122041857Y-59872952D01*
X121470428Y-60444380D01*
X122089476Y-60444380D01*
X109066333Y-60444380D02*
X108590142Y-60444380D01*
X108590142Y-59444380D01*
X109923476Y-60444380D02*
X109352047Y-60444380D01*
X109637761Y-60444380D02*
X109637761Y-59444380D01*
X109542523Y-59587238D01*
X109447285Y-59682476D01*
X109352047Y-59730095D01*
X132286476Y-78148380D02*
X132286476Y-78862666D01*
X132238857Y-79005523D01*
X132143619Y-79100761D01*
X132000761Y-79148380D01*
X131905523Y-79148380D01*
X133286476Y-79148380D02*
X132715047Y-79148380D01*
X133000761Y-79148380D02*
X133000761Y-78148380D01*
X132905523Y-78291238D01*
X132810285Y-78386476D01*
X132715047Y-78434095D01*
X133619809Y-78148380D02*
X134238857Y-78148380D01*
X133905523Y-78529333D01*
X134048380Y-78529333D01*
X134143619Y-78576952D01*
X134191238Y-78624571D01*
X134238857Y-78719809D01*
X134238857Y-78957904D01*
X134191238Y-79053142D01*
X134143619Y-79100761D01*
X134048380Y-79148380D01*
X133762666Y-79148380D01*
X133667428Y-79100761D01*
X133619809Y-79053142D01*
X132286476Y-84244380D02*
X132286476Y-84958666D01*
X132238857Y-85101523D01*
X132143619Y-85196761D01*
X132000761Y-85244380D01*
X131905523Y-85244380D01*
X133286476Y-85244380D02*
X132715047Y-85244380D01*
X133000761Y-85244380D02*
X133000761Y-84244380D01*
X132905523Y-84387238D01*
X132810285Y-84482476D01*
X132715047Y-84530095D01*
X134238857Y-85244380D02*
X133667428Y-85244380D01*
X133953142Y-85244380D02*
X133953142Y-84244380D01*
X133857904Y-84387238D01*
X133762666Y-84482476D01*
X133667428Y-84530095D01*
X132286476Y-90340380D02*
X132286476Y-91054666D01*
X132238857Y-91197523D01*
X132143619Y-91292761D01*
X132000761Y-91340380D01*
X131905523Y-91340380D01*
X133286476Y-91340380D02*
X132715047Y-91340380D01*
X133000761Y-91340380D02*
X133000761Y-90340380D01*
X132905523Y-90483238D01*
X132810285Y-90578476D01*
X132715047Y-90626095D01*
X133905523Y-90340380D02*
X134000761Y-90340380D01*
X134096000Y-90388000D01*
X134143619Y-90435619D01*
X134191238Y-90530857D01*
X134238857Y-90721333D01*
X134238857Y-90959428D01*
X134191238Y-91149904D01*
X134143619Y-91245142D01*
X134096000Y-91292761D01*
X134000761Y-91340380D01*
X133905523Y-91340380D01*
X133810285Y-91292761D01*
X133762666Y-91245142D01*
X133715047Y-91149904D01*
X133667428Y-90959428D01*
X133667428Y-90721333D01*
X133715047Y-90530857D01*
X133762666Y-90435619D01*
X133810285Y-90388000D01*
X133905523Y-90340380D01*
X120824666Y-85260380D02*
X120824666Y-85974666D01*
X120777047Y-86117523D01*
X120681809Y-86212761D01*
X120538952Y-86260380D01*
X120443714Y-86260380D01*
X121348476Y-86260380D02*
X121538952Y-86260380D01*
X121634190Y-86212761D01*
X121681809Y-86165142D01*
X121777047Y-86022285D01*
X121824666Y-85831809D01*
X121824666Y-85450857D01*
X121777047Y-85355619D01*
X121729428Y-85308000D01*
X121634190Y-85260380D01*
X121443714Y-85260380D01*
X121348476Y-85308000D01*
X121300857Y-85355619D01*
X121253238Y-85450857D01*
X121253238Y-85688952D01*
X121300857Y-85784190D01*
X121348476Y-85831809D01*
X121443714Y-85879428D01*
X121634190Y-85879428D01*
X121729428Y-85831809D01*
X121777047Y-85784190D01*
X121824666Y-85688952D01*
X120824666Y-97452380D02*
X120824666Y-98166666D01*
X120777047Y-98309523D01*
X120681809Y-98404761D01*
X120538952Y-98452380D01*
X120443714Y-98452380D01*
X121443714Y-97880952D02*
X121348476Y-97833333D01*
X121300857Y-97785714D01*
X121253238Y-97690476D01*
X121253238Y-97642857D01*
X121300857Y-97547619D01*
X121348476Y-97500000D01*
X121443714Y-97452380D01*
X121634190Y-97452380D01*
X121729428Y-97500000D01*
X121777047Y-97547619D01*
X121824666Y-97642857D01*
X121824666Y-97690476D01*
X121777047Y-97785714D01*
X121729428Y-97833333D01*
X121634190Y-97880952D01*
X121443714Y-97880952D01*
X121348476Y-97928571D01*
X121300857Y-97976190D01*
X121253238Y-98071428D01*
X121253238Y-98261904D01*
X121300857Y-98357142D01*
X121348476Y-98404761D01*
X121443714Y-98452380D01*
X121634190Y-98452380D01*
X121729428Y-98404761D01*
X121777047Y-98357142D01*
X121824666Y-98261904D01*
X121824666Y-98071428D01*
X121777047Y-97976190D01*
X121729428Y-97928571D01*
X121634190Y-97880952D01*
X110156666Y-53002380D02*
X110156666Y-53716666D01*
X110109047Y-53859523D01*
X110013809Y-53954761D01*
X109870952Y-54002380D01*
X109775714Y-54002380D01*
X110537619Y-53002380D02*
X111204285Y-53002380D01*
X110775714Y-54002380D01*
X94154666Y-90086380D02*
X94154666Y-90800666D01*
X94107047Y-90943523D01*
X94011809Y-91038761D01*
X93868952Y-91086380D01*
X93773714Y-91086380D01*
X95059428Y-90419714D02*
X95059428Y-91086380D01*
X94821333Y-90038761D02*
X94583238Y-90753047D01*
X95202285Y-90753047D01*
X94154666Y-77894380D02*
X94154666Y-78608666D01*
X94107047Y-78751523D01*
X94011809Y-78846761D01*
X93868952Y-78894380D01*
X93773714Y-78894380D01*
X94535619Y-77894380D02*
X95154666Y-77894380D01*
X94821333Y-78275333D01*
X94964190Y-78275333D01*
X95059428Y-78322952D01*
X95107047Y-78370571D01*
X95154666Y-78465809D01*
X95154666Y-78703904D01*
X95107047Y-78799142D01*
X95059428Y-78846761D01*
X94964190Y-78894380D01*
X94678476Y-78894380D01*
X94583238Y-78846761D01*
X94535619Y-78799142D01*
X142414666Y-66464380D02*
X142414666Y-67178666D01*
X142367047Y-67321523D01*
X142271809Y-67416761D01*
X142128952Y-67464380D01*
X142033714Y-67464380D01*
X142843238Y-66559619D02*
X142890857Y-66512000D01*
X142986095Y-66464380D01*
X143224190Y-66464380D01*
X143319428Y-66512000D01*
X143367047Y-66559619D01*
X143414666Y-66654857D01*
X143414666Y-66750095D01*
X143367047Y-66892952D01*
X142795619Y-67464380D01*
X143414666Y-67464380D01*
X89582666Y-66718380D02*
X89582666Y-67432666D01*
X89535047Y-67575523D01*
X89439809Y-67670761D01*
X89296952Y-67718380D01*
X89201714Y-67718380D01*
X90582666Y-67718380D02*
X90011238Y-67718380D01*
X90296952Y-67718380D02*
X90296952Y-66718380D01*
X90201714Y-66861238D01*
X90106476Y-66956476D01*
X90011238Y-67004095D01*
X108726904Y-92526380D02*
X108726904Y-91526380D01*
X108965000Y-91526380D01*
X109107857Y-91574000D01*
X109203095Y-91669238D01*
X109250714Y-91764476D01*
X109298333Y-91954952D01*
X109298333Y-92097809D01*
X109250714Y-92288285D01*
X109203095Y-92383523D01*
X109107857Y-92478761D01*
X108965000Y-92526380D01*
X108726904Y-92526380D01*
X109631666Y-91526380D02*
X110250714Y-91526380D01*
X109917380Y-91907333D01*
X110060238Y-91907333D01*
X110155476Y-91954952D01*
X110203095Y-92002571D01*
X110250714Y-92097809D01*
X110250714Y-92335904D01*
X110203095Y-92431142D01*
X110155476Y-92478761D01*
X110060238Y-92526380D01*
X109774523Y-92526380D01*
X109679285Y-92478761D01*
X109631666Y-92431142D01*
X108726904Y-96082380D02*
X108726904Y-95082380D01*
X108965000Y-95082380D01*
X109107857Y-95130000D01*
X109203095Y-95225238D01*
X109250714Y-95320476D01*
X109298333Y-95510952D01*
X109298333Y-95653809D01*
X109250714Y-95844285D01*
X109203095Y-95939523D01*
X109107857Y-96034761D01*
X108965000Y-96082380D01*
X108726904Y-96082380D01*
X109679285Y-95177619D02*
X109726904Y-95130000D01*
X109822142Y-95082380D01*
X110060238Y-95082380D01*
X110155476Y-95130000D01*
X110203095Y-95177619D01*
X110250714Y-95272857D01*
X110250714Y-95368095D01*
X110203095Y-95510952D01*
X109631666Y-96082380D01*
X110250714Y-96082380D01*
X108726904Y-99638380D02*
X108726904Y-98638380D01*
X108965000Y-98638380D01*
X109107857Y-98686000D01*
X109203095Y-98781238D01*
X109250714Y-98876476D01*
X109298333Y-99066952D01*
X109298333Y-99209809D01*
X109250714Y-99400285D01*
X109203095Y-99495523D01*
X109107857Y-99590761D01*
X108965000Y-99638380D01*
X108726904Y-99638380D01*
X110250714Y-99638380D02*
X109679285Y-99638380D01*
X109965000Y-99638380D02*
X109965000Y-98638380D01*
X109869761Y-98781238D01*
X109774523Y-98876476D01*
X109679285Y-98924095D01*
X124090133Y-69825142D02*
X124042514Y-69872761D01*
X123899657Y-69920380D01*
X123804419Y-69920380D01*
X123661561Y-69872761D01*
X123566323Y-69777523D01*
X123518704Y-69682285D01*
X123471085Y-69491809D01*
X123471085Y-69348952D01*
X123518704Y-69158476D01*
X123566323Y-69063238D01*
X123661561Y-68968000D01*
X123804419Y-68920380D01*
X123899657Y-68920380D01*
X124042514Y-68968000D01*
X124090133Y-69015619D01*
X124994895Y-68920380D02*
X124518704Y-68920380D01*
X124471085Y-69396571D01*
X124518704Y-69348952D01*
X124613942Y-69301333D01*
X124852038Y-69301333D01*
X124947276Y-69348952D01*
X124994895Y-69396571D01*
X125042514Y-69491809D01*
X125042514Y-69729904D01*
X124994895Y-69825142D01*
X124947276Y-69872761D01*
X124852038Y-69920380D01*
X124613942Y-69920380D01*
X124518704Y-69872761D01*
X124471085Y-69825142D01*
X115149333Y-66905142D02*
X115101714Y-66952761D01*
X114958857Y-67000380D01*
X114863619Y-67000380D01*
X114720761Y-66952761D01*
X114625523Y-66857523D01*
X114577904Y-66762285D01*
X114530285Y-66571809D01*
X114530285Y-66428952D01*
X114577904Y-66238476D01*
X114625523Y-66143238D01*
X114720761Y-66048000D01*
X114863619Y-66000380D01*
X114958857Y-66000380D01*
X115101714Y-66048000D01*
X115149333Y-66095619D01*
X116006476Y-66333714D02*
X116006476Y-67000380D01*
X115768380Y-65952761D02*
X115530285Y-66667047D01*
X116149333Y-66667047D01*
X115158333Y-59921142D02*
X115110714Y-59968761D01*
X114967857Y-60016380D01*
X114872619Y-60016380D01*
X114729761Y-59968761D01*
X114634523Y-59873523D01*
X114586904Y-59778285D01*
X114539285Y-59587809D01*
X114539285Y-59444952D01*
X114586904Y-59254476D01*
X114634523Y-59159238D01*
X114729761Y-59064000D01*
X114872619Y-59016380D01*
X114967857Y-59016380D01*
X115110714Y-59064000D01*
X115158333Y-59111619D01*
X115491666Y-59016380D02*
X116110714Y-59016380D01*
X115777380Y-59397333D01*
X115920238Y-59397333D01*
X116015476Y-59444952D01*
X116063095Y-59492571D01*
X116110714Y-59587809D01*
X116110714Y-59825904D01*
X116063095Y-59921142D01*
X116015476Y-59968761D01*
X115920238Y-60016380D01*
X115634523Y-60016380D01*
X115539285Y-59968761D01*
X115491666Y-59921142D01*
X105513142Y-83986666D02*
X105560761Y-84034285D01*
X105608380Y-84177142D01*
X105608380Y-84272380D01*
X105560761Y-84415238D01*
X105465523Y-84510476D01*
X105370285Y-84558095D01*
X105179809Y-84605714D01*
X105036952Y-84605714D01*
X104846476Y-84558095D01*
X104751238Y-84510476D01*
X104656000Y-84415238D01*
X104608380Y-84272380D01*
X104608380Y-84177142D01*
X104656000Y-84034285D01*
X104703619Y-83986666D01*
X104703619Y-83605714D02*
X104656000Y-83558095D01*
X104608380Y-83462857D01*
X104608380Y-83224761D01*
X104656000Y-83129523D01*
X104703619Y-83081904D01*
X104798857Y-83034285D01*
X104894095Y-83034285D01*
X105036952Y-83081904D01*
X105608380Y-83653333D01*
X105608380Y-83034285D01*
X109957142Y-71286666D02*
X110004761Y-71334285D01*
X110052380Y-71477142D01*
X110052380Y-71572380D01*
X110004761Y-71715238D01*
X109909523Y-71810476D01*
X109814285Y-71858095D01*
X109623809Y-71905714D01*
X109480952Y-71905714D01*
X109290476Y-71858095D01*
X109195238Y-71810476D01*
X109100000Y-71715238D01*
X109052380Y-71572380D01*
X109052380Y-71477142D01*
X109100000Y-71334285D01*
X109147619Y-71286666D01*
X110052380Y-70334285D02*
X110052380Y-70905714D01*
X110052380Y-70620000D02*
X109052380Y-70620000D01*
X109195238Y-70715238D01*
X109290476Y-70810476D01*
X109338095Y-70905714D01*
X115749485Y-44867771D02*
X115892342Y-44915390D01*
X115939961Y-44963009D01*
X115987580Y-45058247D01*
X115987580Y-45201104D01*
X115939961Y-45296342D01*
X115892342Y-45343961D01*
X115797104Y-45391580D01*
X115416152Y-45391580D01*
X115416152Y-44391580D01*
X115749485Y-44391580D01*
X115844723Y-44439200D01*
X115892342Y-44486819D01*
X115939961Y-44582057D01*
X115939961Y-44677295D01*
X115892342Y-44772533D01*
X115844723Y-44820152D01*
X115749485Y-44867771D01*
X115416152Y-44867771D01*
X116273295Y-44391580D02*
X116844723Y-44391580D01*
X116559009Y-45391580D02*
X116559009Y-44391580D01*
X117701866Y-45391580D02*
X117130438Y-45391580D01*
X117416152Y-45391580D02*
X117416152Y-44391580D01*
X117320914Y-44534438D01*
X117225676Y-44629676D01*
X117130438Y-44677295D01*
M02*
